<?xml version="1.0" encoding="utf-8" ?><svg xmlns="http://www.w3.org/2000/svg" xmlns:xlink="http://www.w3.org/1999/xlink" width="1029" height="1024" viewBox="0 0 1029 1024"><clipPath id="cl_3"><rect x="0.00042724609" width="1029" height="1024"/></clipPath><g clip-path="url(#cl_3)"><path fill="white" transform="matrix(1.23086 0 0 1.23077 -270.789 0)" d="M0 0L1248 0L1248 832L0 832L0 0Z"/><path fill="#17241E" transform="matrix(1.23086 0 0 1.23077 -270.789 0)" d="M292.499 206.303C291.913 201.407 291.857 196.461 292.332 191.552C294.137 171.937 300.702 162.955 310.614 147.029C317.114 136.588 319.039 129.114 329.021 119.373C331.463 115.878 343.16 110.295 344.966 107.514C356.599 89.6043 368.498 81.7955 387.734 73.5511C391.473 71.9484 398.5 64.9293 404.216 62.3256C440.157 45.9521 478.947 40.5231 518.192 43.1069C536.875 44.3895 558.553 49.2441 577.138 52.6625C600.393 56.9397 622.742 61.0945 646.13 64.4779C659.573 66.4227 672.722 69.3499 686.225 70.7111C693.805 69.0063 701.155 66.122 708.585 64.1253C761.53 49.8961 822.678 42.6553 872.471 69.7751C896.776 79.396 916.887 97.2767 934.633 115.86C938.539 119.951 945.992 126.817 949.016 131.085C951.722 134.365 962.201 147.52 963.686 151.158C991.913 196.837 993.692 244.499 981.624 295.813C977.907 311.607 973.033 327.107 967.041 342.185C967.464 368.592 967.939 397.425 967.093 423.81C970.27 427.813 974.161 432.743 975.608 437.648C979.76 451.724 982.285 466.937 980.466 481.616C979.781 487.138 978.088 491.91 976.882 497.292C975.183 510.913 974.407 526.261 964.974 537.467L964.239 537.173L962.887 531.16L958.376 616.419L959.11 617C961.338 612.277 961.356 583.908 962.85 580.881L963.991 580.535C969.872 585.905 971.848 603.795 972.451 611.38C974.14 632.615 966.58 647.851 958.663 666.426C950.829 684.807 944.544 697.686 929.953 711.988C927.839 714.061 925.67 719.892 923.175 722.209C920.533 724.979 916.741 726.791 913.828 729.288C906.277 737.415 902.37 744.411 891.252 748.325C888.584 749.264 876.291 751.779 875.488 752.386C867.419 758.492 861.603 761.989 851.672 765.018C842.279 767.882 832.983 768.683 823.255 769.901C809.634 772.529 796.453 775.767 782.423 775.89C753.211 776.623 725.652 770.832 696.616 769.178C684.116 768.346 671.568 768.53 659.097 769.728C646.151 771.02 633.448 773.348 620.378 773.356C603.703 773.408 587.138 768.19 570.509 768.206C558.229 768.4 545.945 770.495 533.841 772.49C523.094 774.261 512.46 775.658 501.685 777.106C474.049 780.818 447.864 784.012 421.802 771.323C421.226 771.188 417.021 769.242 416.315 768.895C411.009 766.291 403.845 765.134 400.24 760.263C381.563 754.839 370.235 748.445 354.863 736.92C353.994 738.423 354.012 738.333 352.503 739.255C339.634 742.113 327.091 726.026 321.831 717.001C319.431 714.141 309.001 705.817 308.062 702.693C303.898 688.852 285.476 662.781 286.338 649.717C287.309 634.989 282.062 630.489 281.673 620.23C280.515 589.668 289.049 547.666 297.962 519.13C298.852 507.734 299.46 490.938 299.285 479.767C298.674 475.841 299.525 471.396 298.937 467.908C298.123 463.714 296.807 459.146 295.961 455.02C293.86 444.782 292.064 413.5 299.928 406.457C299.848 399.803 299.742 393.648 299.321 387.013C292.585 378.901 279.608 330.225 277.794 318.76C276.116 307.546 275.31 296.219 275.383 284.881C275.327 263.667 276.944 221.943 292.499 206.303Z"/><path fill="#E1E2DB" transform="matrix(1.23086 0 0 1.23077 -270.789 0)" d="M292.499 206.303C291.913 201.407 291.857 196.461 292.332 191.552C294.137 171.937 300.702 162.955 310.614 147.029C317.114 136.588 319.039 129.114 329.021 119.373C331.463 115.878 343.16 110.295 344.966 107.514C356.599 89.6043 368.498 81.7955 387.734 73.5511C391.473 71.9484 398.5 64.9293 404.216 62.3256C440.157 45.9521 478.947 40.5231 518.192 43.1069C536.875 44.3895 558.553 49.2441 577.138 52.6625C600.393 56.9397 622.742 61.0945 646.13 64.4779C659.573 66.4227 672.722 69.3499 686.225 70.7111C693.805 69.0063 701.155 66.122 708.585 64.1253C761.53 49.8961 822.678 42.6553 872.471 69.7751C896.776 79.396 916.887 97.2767 934.633 115.86C938.539 119.951 945.992 126.817 949.016 131.085C951.722 134.365 962.201 147.52 963.686 151.158C991.913 196.837 993.692 244.499 981.624 295.813C977.907 311.607 973.033 327.107 967.041 342.185C966.711 325.559 965.517 305.698 965.926 289.479C965.246 272.188 964.67 254.893 964.201 237.595C962.767 188.254 958.81 147.302 919.799 111.379C902.362 95.1057 880.663 84.1201 857.228 79.7C841.45 76.5953 825.985 76.7737 810.027 76.6364C748.905 76.076 687.625 78.1328 626.705 72.0934C606.851 70.3804 587.115 65.8928 567.642 61.7594C489.207 45.1102 408.788 57.2015 352.589 118.173C290.55 185.48 293.121 271.04 298.176 356.151C298.765 366.072 299.355 377.044 299.321 387.013C292.585 378.901 279.608 330.225 277.794 318.76C276.116 307.546 275.31 296.219 275.383 284.881C275.327 263.667 276.944 221.943 292.499 206.303Z"/><path fill="#A1A592" transform="matrix(1.23086 0 0 1.23077 -270.789 0)" d="M959.919 153.159C961.384 151.731 961.691 151.676 963.686 151.158C991.913 196.837 993.692 244.499 981.624 295.813C977.907 311.607 973.033 327.107 967.041 342.185C966.711 325.559 965.517 305.698 965.926 289.479C968.474 285.81 970.77 259.59 971.083 253.826C972.845 221.441 975.357 182.968 959.919 153.159Z"/><path fill="#A1A592" transform="matrix(1.23086 0 0 1.23077 -270.789 0)" d="M686.225 70.7111C693.805 69.0063 701.155 66.122 708.585 64.1253C761.53 49.8961 822.678 42.6553 872.471 69.7751C869.695 69.5665 862.879 68.2665 859.991 67.5829C841.793 63.2753 824.32 66.4103 806.509 66.5337C779.939 66.7177 756.722 69.4857 730.718 74.0161C723.109 75.3418 692.759 73.8651 686.225 70.7111Z"/><path fill="#C9CABB" transform="matrix(1.23086 0 0 1.23077 -270.789 0)" d="M949.016 131.085C951.722 134.365 962.201 147.52 963.686 151.158C961.691 151.676 961.384 151.731 959.919 153.159C958.117 151.061 949.691 135.593 948.383 132.662L949.016 131.085Z"/><path fill="#A1A592" transform="matrix(1.23086 0 0 1.23077 -270.789 0)" d="M958.376 616.419L959.11 617C961.338 612.277 961.356 583.908 962.85 580.881L963.991 580.535C969.872 585.905 971.848 603.795 972.451 611.38C974.14 632.615 966.58 647.851 958.663 666.426C950.829 684.807 944.544 697.686 929.953 711.988C927.839 714.061 925.67 719.892 923.175 722.209C920.533 724.979 916.741 726.791 913.828 729.288C906.277 737.415 902.37 744.411 891.252 748.325C888.584 749.264 876.291 751.779 875.488 752.386C867.419 758.492 861.603 761.989 851.672 765.018C842.279 767.882 832.983 768.683 823.255 769.901C809.634 772.529 796.453 775.767 782.423 775.89C753.211 776.623 725.652 770.832 696.616 769.178C684.116 768.346 671.568 768.53 659.097 769.728C646.151 771.02 633.448 773.348 620.378 773.356C603.703 773.408 587.138 768.19 570.509 768.206C558.229 768.4 545.945 770.495 533.841 772.49C523.094 774.261 512.46 775.658 501.685 777.106C474.049 780.818 447.864 784.012 421.802 771.323C431.771 771.746 442.445 776.135 453.558 775.545C472.321 774.549 492.398 770.166 510.894 767.311C520.752 765.789 566.596 764.21 572.128 760.887C590.774 762.41 608.674 768.122 628.723 766.357C644.506 764.968 659.718 759.688 674.616 757.856L675.262 757.779L675.864 758.61C679.159 758.87 683.853 758.308 687.227 758.076C709.75 756.524 731.752 759.491 754.154 760.732C758.217 760.957 774.889 762.22 777.596 760.836C781.4 760.399 797.996 763.722 803.779 763.806C874.624 764.835 941.919 722.008 954.663 650.186C955.724 644.224 956.495 638.213 956.971 632.176C957.244 628.462 957.408 619.581 958.376 616.419Z"/><path fill="#A1A592" transform="matrix(1.23086 0 0 1.23077 -270.789 0)" d="M297.962 519.13C297.765 568.759 289.935 621.01 307.015 668.813C313.824 687.871 325.829 709.158 340.148 723.658C344.822 728.329 349.733 732.755 354.863 736.92C353.994 738.423 354.012 738.333 352.503 739.255C339.634 742.113 327.091 726.026 321.831 717.001C319.431 714.141 309.001 705.817 308.062 702.693C303.898 688.852 285.476 662.781 286.338 649.717C287.309 634.989 282.062 630.489 281.673 620.23C280.515 589.668 289.049 547.666 297.962 519.13Z"/><path fill="#E1E2DB" transform="matrix(1.23086 0 0 1.23077 -270.789 0)" d="M400.24 760.263C440.94 770.475 470.321 760.961 511.319 758.691C534.904 757.385 548.661 757.47 572.128 760.887C566.596 764.21 520.752 765.789 510.894 767.311C492.398 770.166 472.321 774.549 453.558 775.545C442.445 776.135 431.771 771.746 421.802 771.323C421.226 771.188 417.021 769.242 416.315 768.895C411.009 766.291 403.845 765.134 400.24 760.263Z"/><path fill="#A1A592" transform="matrix(1.23086 0 0 1.23077 -270.789 0)" d="M967.093 423.81C970.27 427.813 974.161 432.743 975.608 437.648C979.76 451.724 982.285 466.937 980.466 481.616C979.781 487.138 978.088 491.91 976.882 497.292C975.183 510.913 974.407 526.261 964.974 537.467L964.239 537.173L962.887 531.16C962.795 528.68 963.484 520.014 963.636 517.181C964.145 507.1 964.71 497.022 965.332 486.948C965.064 484.049 965.902 471.071 966.035 467.61C966.701 453.019 967.053 438.416 967.093 423.81Z"/><path fill="#E1E2DB" transform="matrix(1.23086 0 0 1.23077 -270.789 0)" d="M965.332 486.948C968.966 497.569 962.879 527.984 964.974 537.467L964.239 537.173L962.887 531.16C962.795 528.68 963.484 520.014 963.636 517.181C964.145 507.1 964.71 497.022 965.332 486.948Z"/><path fill="#EDEDEA" transform="matrix(1.23086 0 0 1.23077 -270.789 0)" d="M675.262 757.779C717.694 749.498 735.008 753.264 777.596 760.836C774.889 762.22 758.217 760.957 754.154 760.732C731.752 759.491 709.75 756.524 687.227 758.076C683.853 758.308 679.159 758.87 675.864 758.61L675.262 757.779Z"/><path fill="#E1E2DB" transform="matrix(1.23086 0 0 1.23077 -270.789 0)" d="M299.285 479.767C298.674 475.841 299.525 471.396 298.937 467.908C298.123 463.714 296.807 459.146 295.961 455.02C293.86 444.782 292.064 413.5 299.928 406.457C300.371 423.476 300.402 440.504 300.02 457.525C299.895 463.961 299.95 473.682 299.285 479.767Z"/><path fill="white" transform="matrix(1.23086 0 0 1.23077 -270.789 0)" d="M300.943 315.819C300.759 314.477 300.633 313.128 300.564 311.775C297.425 242.708 307.331 173.493 356.109 120.986C393.408 80.8374 442.036 61.6442 496.241 59.3375C544.429 57.2869 583.352 72.6915 629.598 76.9234C690.23 82.0081 751.562 80.8615 812.374 81.0624C855.989 81.2065 885.09 85.6349 918.106 116.185C955.682 153.419 959.372 192.583 960.059 242.927C960.307 261.149 961.604 280.285 961.681 298.424C961.687 299.837 961.685 301.251 961.676 302.665C962.399 309.089 962.026 315.64 962.196 322.094C963.34 365.527 963.62 408.733 962.174 452.168C962.072 455.224 962.159 457.982 961.669 461.042C961.774 487.883 958.691 524.735 957.239 552.449C956.472 567.634 955.624 582.815 954.695 597.991C954.341 603.774 953.98 614.673 953.129 619.949C952.278 657.629 941.314 691.001 913.613 717.685C886.146 744.143 844.573 759.938 806.484 759.41C798.499 759.3 789.145 758.013 781.217 756.8C757.895 752.916 732.657 748.163 709.081 748.687C701.653 748.852 690.742 750.485 683.257 751.593C665.043 755.089 642.735 760.81 624.782 762.218C615.156 762.973 593.513 759.548 583.112 757.889C562.393 754.585 548.801 753.488 527.885 753.414C486.388 753.267 444.979 766.742 404.523 756.604C372.04 748.198 344.183 727.313 327.002 698.485C323.45 694.08 319.818 686.59 317.312 681.488C303.698 653.776 300.649 622.593 300.376 592.124C300.307 584.343 300.003 575.428 300.946 567.772C300.983 555.01 301.848 541.23 302.186 528.378C302.338 522.622 302.546 509.193 303.249 504.255L303.619 487.984C303.569 479.177 304.145 469.45 304.306 460.516C304.558 444.462 304.654 428.405 304.593 412.349C303.971 408.002 303.987 396.115 303.864 391.116L302.701 356.373C302.054 343.022 301.197 329.141 300.943 315.819Z"/><path fill="#E1E2DB" transform="matrix(1.23086 0 0 1.23077 -270.789 0)" d="M300.943 315.819C300.759 314.477 300.633 313.128 300.564 311.775C297.425 242.708 307.331 173.493 356.109 120.986C393.408 80.8374 442.036 61.6442 496.241 59.3375C544.429 57.2869 583.352 72.6915 629.598 76.9234C690.23 82.0081 751.562 80.8615 812.374 81.0624C855.989 81.2065 885.09 85.6349 918.106 116.185C911.916 115.447 901.953 106.835 895.768 103.841C882.512 97.425 868.787 92.7447 854.268 90.0705C835.243 87.2656 815.843 90.5245 796.778 89.2371C749.627 86.0531 702.723 86.2289 655.666 81.37C634.194 79.1528 609.026 80.4834 587.22 79.6586C549.847 78.2449 512.396 74.4322 475.234 80.0799C445.726 84.8349 417.708 96.321 393.351 113.648C386.498 118.551 379.691 123.832 373.295 129.322C321.817 173.504 302.454 247.007 302.838 312.911C301.905 314.537 301.991 317.494 301.875 319.423C301.714 316.867 301.644 314.781 301.655 312.221C301.006 313.403 301.055 314.462 300.943 315.819Z"/><path fill="#E1E2DB" transform="matrix(1.23086 0 0 1.23077 -270.789 0)" d="M303.249 504.255C304.751 506.075 308.312 506.444 310.024 510.799C315.101 523.707 315.418 537.586 316.735 551.272C317.774 562.066 319.004 572.907 319.055 583.828C319.106 594.781 318.116 605.923 319.023 616.845C319.648 621.471 325.177 627.402 325.67 631.375C326.971 641.85 325.365 647.937 327.948 658.597C330.306 668.328 337.332 672.321 339.475 677.711C344.103 689.357 346.451 697.17 352.836 708.556C366.474 732.876 404.798 751.96 431.554 754.771C457.237 757.47 491.587 747.353 517.463 743.119C537.802 739.791 563.484 736.431 583.954 737.229C601.692 737.921 624.965 741.964 642.674 745.284C649.786 746.618 679.094 749.983 683.257 751.593C665.043 755.089 642.735 760.81 624.782 762.218C615.156 762.973 593.513 759.548 583.112 757.889C562.393 754.585 548.801 753.488 527.885 753.414C486.388 753.267 444.979 766.742 404.523 756.604C372.04 748.198 344.183 727.313 327.002 698.485C323.45 694.08 319.818 686.59 317.312 681.488C303.698 653.776 300.649 622.593 300.376 592.124C300.307 584.343 300.003 575.428 300.946 567.772C300.983 555.01 301.848 541.23 302.186 528.378C302.338 522.622 302.546 509.193 303.249 504.255Z"/><path fill="#A1A592" transform="matrix(1.23086 0 0 1.23077 -270.789 0)" d="M327.002 698.485C323.45 694.08 319.818 686.59 317.312 681.488C303.698 653.776 300.649 622.593 300.376 592.124C300.307 584.343 300.003 575.428 300.946 567.772C301.261 573.582 300.339 583.9 300.946 588.19C302.418 598.581 306.147 610.309 308.087 620.924C310.752 635.511 312.451 650.64 316.057 664.94C317.544 670.648 319.314 676.277 321.36 681.809C322.776 685.646 326.621 694.928 327.002 698.485Z"/><path fill="#E1E2DB" transform="matrix(1.23086 0 0 1.23077 -270.789 0)" d="M953.129 619.949C952.278 657.629 941.314 691.001 913.613 717.685C886.146 744.143 844.573 759.938 806.484 759.41C798.499 759.3 789.145 758.013 781.217 756.8C784.467 753.815 794.672 751.899 799.283 750.652C806.632 748.731 813.843 746.316 820.866 743.423C837.387 736.736 841.992 730.199 856.307 720.84C864.014 716.347 873.222 712.171 880.967 708.043C911.222 691.916 937.035 672.146 947.255 637.773C948.332 634.15 951.207 622.776 953.129 619.949Z"/><path fill="#E1E2DB" transform="matrix(1.23086 0 0 1.23077 -270.789 0)" d="M961.676 302.665C962.399 309.089 962.026 315.64 962.196 322.094C963.34 365.527 963.62 408.733 962.174 452.168C962.072 455.224 962.159 457.982 961.669 461.042C961.07 456.505 962.125 449.382 961.457 445.663C959.984 437.467 958.211 429.158 956.725 420.925C953.753 405.057 952.633 388.898 953.386 372.772C953.946 361.794 955.233 350.865 957.239 340.057C959.008 330.609 961.91 320.732 961.434 311.083C961.299 308.339 961.475 305.394 961.676 302.665Z"/><path fill="#E1E2DB" transform="matrix(1.23086 0 0 1.23077 -270.789 0)" d="M304.593 412.349C304.918 408.977 304.888 402.329 304.986 398.67C305.67 401.524 306.441 407.39 309.171 408.393C310.693 411.3 312.287 417.609 312.941 420.94C316.765 440.421 315.609 459.523 309.553 478.414C308.808 480.738 308.536 482.165 307.001 484.076C306.158 484.03 305.379 484.016 304.547 484.175L303.619 487.984C303.569 479.177 304.145 469.45 304.306 460.516C304.558 444.462 304.654 428.405 304.593 412.349Z"/><path fill="#A1A592" transform="matrix(1.23086 0 0 1.23077 -270.789 0)" d="M302.701 356.373L305.758 358.462C313.79 371.372 315.792 383.824 312.197 398.953C311.405 402.165 310.394 405.319 309.171 408.393C306.441 407.39 305.67 401.524 304.986 398.67C304.888 402.329 304.918 408.977 304.593 412.349C303.971 408.002 303.987 396.115 303.864 391.116L302.701 356.373Z"/><path fill="#EDEDEA" transform="matrix(1.23086 0 0 1.23077 -270.789 0)" d="M300.943 315.819C301.055 314.462 301.006 313.403 301.655 312.221C301.644 314.781 301.714 316.867 301.875 319.423C301.991 317.494 301.905 314.537 302.838 312.911C303.668 322.353 303.535 351.724 305.758 358.462L302.701 356.373C302.054 343.022 301.197 329.141 300.943 315.819Z"/><path fill="#8F997F" transform="matrix(1.23086 0 0 1.23077 -270.789 0)" d="M583.879 410.06C567.047 379.113 555.655 337.055 556.957 301.629C558.77 252.293 579.093 201.805 608.469 162.435C611.41 158.493 617.779 147.584 622.825 147.165C633.388 150.693 667.257 208.092 673.301 220.162C698.458 269.567 702.514 327.064 684.541 379.513C673.603 412.315 654.287 449.835 631.015 475.594C631.731 480.921 632.01 524.076 629.106 526.094C627.693 520.8 627.707 481.716 627.619 474C621.772 467.304 616.111 461.505 610.598 454.374C601.608 442.746 594.648 430.584 587.588 417.725L583.879 410.06Z"/><path fill="#263429" transform="matrix(1.23086 0 0 1.23077 -270.789 0)" d="M620.842 202.565C620.855 198.115 621.146 156.801 621.071 156.877C622.74 161.534 621.787 169.598 621.942 174.695C622.629 197.169 621.929 220.231 623.453 242.646C625.866 238.884 646.706 203.724 647.895 203.443C642.684 213.938 630.037 235.833 623.434 245.068L624.745 290.654C624.931 298.434 624.919 313.526 625.835 320.946C633.61 309.666 640.813 296.551 648.056 284.823C653.825 275.482 660.313 266.105 665.862 256.758L665.977 257.928L666.293 256.953C664.29 263.884 631.234 316.048 625.806 323.574C626.226 347.864 627.229 372.225 627.836 396.537C627.648 403.385 626.826 406.687 626.373 412.971C625.598 408.345 625.677 400.58 625.569 395.566C625.425 386.161 625.143 376.758 624.725 367.361C618.946 362.931 611.72 354.788 606.69 349.477C592.704 334.708 580.231 319.734 569.215 302.598C568.363 301.273 564.233 295.351 564.061 294.116C566.474 296.846 568.677 299.737 570.69 302.771C586.07 325.964 605.242 345.032 624.576 364.931C624.921 339.939 622.927 312.694 622.789 287.291C610.91 275.612 594.079 254.722 584.929 240.926L585.406 240.107C595.893 255.354 610.255 270.374 622.696 284.305C622.383 257.641 620.838 231.616 620.926 204.688C613.862 196.559 609.939 191.6 604.823 182.076C606.831 183.955 618.013 199.109 620.842 202.565Z"/><defs><linearGradient id="gradient_0" gradientUnits="userSpaceOnUse" x1="622.37134" y1="465.25458" x2="633.68372" y2="466.06375"><stop offset="0" stop-color="#0F261F"/><stop offset="1" stop-color="#323C32"/></linearGradient></defs><path fill="url(#gradient_0)" transform="matrix(1.23086 0 0 1.23077 -270.789 0)" d="M627.836 396.537C628.03 399.834 628.186 403.2 628.536 406.478L629.953 406.946C629.403 407.63 628.445 408.994 628.462 409.867C628.816 428.513 629.624 447.236 630.39 465.882C630.524 469.147 630.682 472.373 631.015 475.594C631.731 480.921 632.01 524.076 629.106 526.094C627.693 520.8 627.707 481.716 627.619 474C627.922 462.843 627.1 444.531 626.565 432.756C626.174 432.168 625.844 431.673 625.575 431.27C626.547 429.598 626.613 430.054 626.54 428.416C626.411 423.269 626.355 418.12 626.373 412.971C626.826 406.687 627.648 403.385 627.836 396.537Z"/><path fill="#263429" transform="matrix(1.23086 0 0 1.23077 -270.789 0)" d="M628.536 406.478C644.367 386.533 659.191 360.339 674.43 339.557C675.832 337.645 683.412 326.061 684.676 325.143C679.222 334.785 635.834 401.726 629.953 406.946L628.536 406.478Z"/><path fill="#263429" transform="matrix(1.23086 0 0 1.23077 -270.789 0)" d="M625.575 431.27C614.998 422.61 571.039 377.778 569.043 367.836C569.328 368.114 570.821 369.544 570.955 369.738C583.78 388.378 599.729 404.362 616.146 419.817C618.31 421.854 624.011 427.7 626.54 428.416C626.613 430.054 626.547 429.598 625.575 431.27Z"/><path fill="#A1A592" transform="matrix(1.23086 0 0 1.23077 -270.789 0)" d="M583.879 410.06L585.874 409.221C588.111 410.399 590.938 414.088 590.25 416.73C588.536 417.048 588.774 416.755 587.588 417.725L583.879 410.06Z"/><path fill="#60685D" transform="matrix(1.23086 0 0 1.23077 -270.789 0)" d="M584.929 240.926C582.797 238.564 578.009 232.07 577.322 228.935L578.305 229.328L577.484 230.063L578.871 229.923L577.707 230.63L579.148 230.254C580.436 231.815 584.201 238.138 585.406 240.107L584.929 240.926Z"/><path fill="#C9CABB" transform="matrix(1.23086 0 0 1.23077 -270.789 0)" d="M684.608 366.149C685.717 371.164 674.732 397.355 671.007 401.994C671.187 402.665 683.893 367.981 684.608 366.149Z"/><path fill="#E1E2DB" transform="matrix(1.23086 0 0 1.23077 -270.789 0)" d="M663.503 208.215C666.864 210.088 670.756 218.305 671.639 222.023C669.779 220.34 664.898 210.833 663.503 208.215Z"/><path fill="#A1A592" transform="matrix(1.23086 0 0 1.23077 -270.789 0)" d="M632.817 168.549C634.836 169.576 638.55 176.327 640.215 178.888C636.27 178.047 634.163 171.924 632.817 168.549Z"/><path fill="#A1A592" transform="matrix(1.23086 0 0 1.23077 -270.789 0)" d="M686.276 282.675C687.773 284.61 688.631 291.417 688.678 294.038L687.713 293.272C686.691 290.34 686.391 285.805 686.276 282.675Z"/><path fill="#C9CABB" transform="matrix(1.23086 0 0 1.23077 -270.789 0)" d="M639.516 356.376C640.417 359.611 638.851 362.286 637.507 365.294C636.934 362.688 638.591 359.047 639.516 356.376Z"/><path fill="#A1A592" transform="matrix(1.23086 0 0 1.23077 -270.789 0)" d="M670.897 288.002L671.918 288.092C672.688 290.439 672.64 292.738 672.741 295.208C671.424 293.942 671.052 289.825 670.897 288.002Z"/><path fill="#A1A592" transform="matrix(1.23086 0 0 1.23077 -270.789 0)" d="M646.27 424.625L646.935 425.508C645.869 428.298 645.419 428.747 643.557 431.022L643.15 430.55C644.121 427.764 644.661 427.062 646.27 424.625Z"/><path fill="#A1A592" transform="matrix(1.23086 0 0 1.23077 -270.789 0)" d="M644.522 440.561L644.657 441.713C643.875 444.11 642.342 445.487 640.649 447.404C640.791 444.507 642.667 442.773 644.522 440.561Z"/><path fill="#C9CABB" transform="matrix(1.23086 0 0 1.23077 -270.789 0)" d="M676.96 278.264L677.745 278.071C678.8 279.695 678.981 282.704 679.277 284.758C677.449 283.161 677.334 280.641 676.96 278.264Z"/><path fill="#17241E" transform="matrix(1.23086 0 0 1.23077 -270.789 0)" d="M403.512 302.063C409.54 308.79 414.27 318.571 419.594 326.003C424.717 333.156 429.742 337.184 436.472 342.593C437.592 343.458 439.861 345.101 440.798 346C442.91 348.002 446.754 352.126 449.437 352.832C453.425 350.62 452.024 346.615 455.322 344.349C458.816 347.459 462.446 360.092 464.75 364.362C467.661 369.754 471.033 365.595 475.505 375.508C477.77 380.529 480.235 385.315 482.256 391.011C484.805 398.191 486.667 408.288 490.678 414.296C492.861 408.912 494.092 400.529 496.08 396.41C501.941 384.262 504.716 371.713 509.29 359.4C510.814 361.378 512.468 363.634 514.034 365.542C518.192 359.322 524.829 350.585 528.419 344.551C532.137 338.301 537.343 324.053 540.157 316.759C541.131 329.28 538.541 337.142 538.868 349.142C539.03 355.072 543.642 363.044 543.732 369.611C543.803 374.722 539.967 384.472 542.04 388.051C546.762 389.956 551.528 383.409 555.78 383.294C556.577 386.227 541.137 416.154 539.338 422.096C538.152 426.012 522.697 443.678 527.71 446.666C532.698 446.401 542.89 442.014 548.701 440.963C558.302 439.227 566.464 440.336 576.141 439.794C580.489 439.551 587.821 437.321 591.026 437.894L591.609 438.639C588.326 443.288 577.568 448.792 572.891 452.923C566.26 458.779 559.632 464.719 552.12 469.451C549.017 471.405 530.389 475.173 530.403 478.788L530.406 479.47C532.446 483.316 538.7 488.172 542.413 490.52C534.782 490.526 520.612 491.273 513.657 489.464C511.117 488.803 501.134 481.763 498.087 481.308L495.525 481.942L494.514 482.092C492.905 485.206 489.459 500.271 489.492 500.238C486.525 503.268 474.336 524.707 472.725 526.066C470.879 524.361 470.1 505.414 469.328 500.406C466.38 501.516 465.133 501.991 462.521 503.664C457.388 506.95 443.427 520.968 437.632 518.798C436.852 516.849 437.056 516.376 435.523 515.414L432.943 515.681C427.49 518.298 423.691 518.586 417.778 519.379C408.454 521.716 404.256 525.515 395.606 528.794C399.359 523.489 409.983 513.993 415.836 506.624C417.862 504.279 420.17 501.851 422.274 499.548C429.762 486.488 438.323 486.266 442.392 479.371C440.931 478.277 439.776 478.634 437.618 478.552C432.437 479.43 427.343 478.919 422.182 478.342C413.504 476.12 408.618 475.167 399.709 474.394L399.321 474.329C394.62 474.348 389.361 473.576 384.651 473.026C406.21 458.478 389.805 458.895 378.939 449.237C375.461 446.146 375.411 440.542 368.703 437.033C362.685 433.885 345.731 429.505 341.83 425.488L342.03 424.696C346.816 423.168 361.177 425.929 367.707 426.168C374.63 426.356 381.557 426.018 388.429 425.158C390.774 424.861 393.31 424.67 394.692 422.867L394.112 420.028L394.946 419.34C402.831 418.832 414.325 422.073 422.164 424.1C427.279 425.861 431.681 427.344 436.477 429.951C439.575 431.629 442.581 432.768 445.834 434.069C440.652 422.865 419.072 401.682 418.325 396.033C419.633 394.574 421.279 394.396 423.246 393.849L419.706 386.414L417.7 382.423C414.338 375.25 410.807 368.157 407.111 361.151C418.995 365.37 418.093 366.258 417.479 353.886C416.558 335.323 406.543 319.349 403.512 302.063Z"/><path fill="#263429" transform="matrix(1.23086 0 0 1.23077 -270.789 0)" d="M422.164 424.1C427.279 425.861 431.681 427.344 436.477 429.951C435.209 430.773 435.409 431.099 434.662 432.785C431.896 431.802 429.001 430.703 426.301 429.635C421.007 427.541 424.126 427.783 422.164 424.1Z"/><path fill="#17241E" transform="matrix(1.23086 0 0 1.23077 -270.789 0)" d="M417.778 519.379L418.195 517.8C419.24 516.484 423.041 515.375 424.753 515.092C428.63 514.45 429.502 513.694 432.943 515.681C427.49 518.298 423.691 518.586 417.778 519.379Z"/><path fill="#263429" transform="matrix(1.23086 0 0 1.23077 -270.789 0)" d="M422.182 478.342C422.465 477.466 422.68 475.883 423.496 475.676C426.658 474.874 430.266 474.245 432.804 476.549C432.343 477.643 432.682 477.189 431.627 477.801C432.677 478.525 435.857 478.335 437.618 478.552C432.437 479.43 427.343 478.919 422.182 478.342Z"/><path fill="#263429" transform="matrix(1.23086 0 0 1.23077 -270.789 0)" d="M415.836 506.624C417.862 504.279 420.17 501.851 422.274 499.548L422.564 502.426C421.121 504.952 420.086 506.396 417.747 508.248C416.368 507.931 416.854 508.147 415.836 506.624Z"/><path fill="#60685D" transform="matrix(1.23086 0 0 1.23077 -270.789 0)" d="M417.747 508.248C418.05 505.93 420.402 503.181 422.564 502.426C421.121 504.952 420.086 506.396 417.747 508.248Z"/><path fill="#17241E" transform="matrix(1.23086 0 0 1.23077 -270.789 0)" d="M417.7 382.423L419.311 381.121C421.482 381.753 423.688 385.419 422.757 387.888C421.496 387.744 420.781 387.115 419.706 386.414L417.7 382.423Z"/><path fill="#263429" transform="matrix(1.23086 0 0 1.23077 -270.789 0)" d="M436.472 342.593C437.592 343.458 439.861 345.101 440.798 346C437.139 347.71 440.758 346.539 439.153 348.554C437.16 347.62 434.8 346.166 434.379 343.801L436.472 342.593Z"/><path fill="#263429" transform="matrix(1.23086 0 0 1.23077 -270.789 0)" d="M408.608 472.473L408.972 473.261C406.919 474.559 402.497 474.266 399.709 474.394L399.321 474.329L399.633 472.442C401.795 472.892 406.358 472.744 408.608 472.473Z"/><path fill="#828682" transform="matrix(1.23086 0 0 1.23077 -270.789 0)" d="M399.633 472.442L398.863 472.107C401.749 471.238 405.718 471.635 408.608 472.473C406.358 472.744 401.795 472.892 399.633 472.442Z"/><path fill="#60685D" transform="matrix(1.23086 0 0 1.23077 -270.789 0)" d="M448.618 393.429C444.416 385.782 421.376 343.17 420.568 338.074C424.55 343.035 435.152 368.028 438.374 369.867C438.758 366.133 437.114 356.018 437.553 354.563C440.476 361.481 438.847 369.661 440.252 373.375C443.995 383.27 451.496 395.213 456.487 404.965C460.805 395.508 459.998 380.07 458.519 369.776C463.718 376.292 459.96 398.825 457.936 406.504C461.35 413.578 467.281 423.45 471.533 430.202C474.139 423.496 475.71 417.045 476.504 409.898C476.676 408.343 476.466 405.548 477.447 404.448C478.195 412.317 475.552 424.087 472.315 431.243C479.518 444.812 486.632 458.428 493.657 472.09C498.582 454.93 505.414 438.68 510.352 421.605C511.715 416.889 506.417 402.517 508.523 398.267C509.752 404.27 510.292 411.229 511.891 416.637C515.581 408.001 518.069 399.877 520.728 390.87C519.702 387.578 516.711 377.11 517.962 374.131C519.449 378.956 519.922 383.789 521.372 388.794C522.714 385.014 530.643 356.871 531.167 356.319C531.208 365.802 514.924 412.955 511.112 424.766C524.313 417.404 524.959 412.886 534.532 403.995C528.896 413.284 520.003 421.991 510.247 426.746C504.969 441.958 498.605 458.227 494.944 473.75C508.431 470.102 523.515 466.057 536.345 460.154C539.325 458.782 544.202 449.144 548.084 448.503L548.079 449.227C544.756 451.68 541.984 455.701 539.432 458.978L540.171 458.759C545.014 457.296 566.942 447.368 569.243 447.889C562.499 452.61 527.164 465.161 517.702 468.57C512.593 470.411 502.838 472.183 497.348 474.815C492.562 476.05 491.407 477.79 488.979 481.886C483.789 490.641 481.359 501.593 476.677 510.436C478.763 499.475 485.364 485.877 491.26 476.323C482.476 478.596 460.174 487.629 452.485 492.675C450.961 498.183 449.756 500.108 446.63 504.959L446.329 504.955C447.847 500.954 450.095 496.847 451.221 493.165C445.584 495.859 440.272 498.52 434.812 501.577C431.527 503.417 426.531 507.56 423.517 508.647C428.841 501.804 447.135 494.478 454.433 488.775C450.751 489.013 445.944 489.553 442.419 488.881C447.121 487.731 452.148 487.964 456.876 488.817C470.319 482.099 478.997 478.544 493.075 474.121C483.724 468.567 466.516 461.896 455.894 459.892C450.503 462.958 444.181 466.789 438.212 468.346C435.767 468.984 433.036 468.999 430.239 469.653C430.877 468.982 430.372 469.316 431.384 469.152C438.234 468.04 448.542 462.992 454.305 459.41C447.343 457.335 440.402 455.188 433.485 452.968C423.62 456.671 416.601 459.027 405.897 456.799C416.161 456.438 421.937 456.281 431.833 452.464C421.721 448.991 409.8 444.736 399.582 441.853C394.518 443.35 391.331 444.332 386.062 444.104C387.094 443.325 396.02 441.793 398.119 441.348C392.429 439.212 381.685 434.778 376.16 434.212L375.388 433.494C376.236 433.183 377.269 432.819 378.156 433.129C396.502 439.53 415.876 445.104 434.052 451.836C428.761 441.726 422.274 437.14 419.33 431.707C425.95 436.16 432.288 445.265 435.783 452.26C457.865 459.929 468.807 459.84 491.754 471.706C486.644 461.454 475.892 439.63 469.73 430.739C461.682 428.494 449.81 424.166 444.088 418.057C454.571 423.957 457.784 425.619 469.067 429.134C465.035 422.19 459.03 410.899 454.863 404.547C442.698 401.205 437.758 397.204 428.539 389.249L429.016 388.526C430.423 388.692 436.061 394.064 438.455 395.626C443.955 399.215 448.138 401.17 454.157 403.708L448.618 393.429Z"/><path fill="#60685D" transform="matrix(1.23086 0 0 1.23077 -270.789 0)" d="M497.348 474.815C502.477 475.402 519.593 481.122 523.434 484.21C519.63 483.453 499.676 476.675 497.348 474.815Z"/><path fill="#60685D" transform="matrix(1.23086 0 0 1.23077 -270.789 0)" d="M493.123 431.909C495.147 435.936 493.073 441.731 491.985 446.157L491.48 445.728C491.089 444.05 492.89 434.954 493.123 431.909Z"/><path fill="#828682" transform="matrix(1.23086 0 0 1.23077 -270.789 0)" d="M472.851 378.379C475.959 380.673 477.325 386.788 478.24 390.367C476.321 388.787 473.96 381.278 472.851 378.379Z"/><path fill="#60685D" transform="matrix(1.23086 0 0 1.23077 -270.789 0)" d="M451.087 448.439C455.73 449.885 457.236 452.355 460.056 456.161C458.434 455.587 452.893 450.044 451.087 448.439Z"/><path fill="#424D42" transform="matrix(1.23086 0 0 1.23077 -270.789 0)" d="M540.151 462.139C543.801 461.737 545.477 461.849 548.849 463.003C545.253 463.679 543.478 463.226 540.151 462.139Z"/><path fill="#424D42" transform="matrix(1.23086 0 0 1.23077 -270.789 0)" d="M749.654 469.139C736.006 464.742 728.514 455.8 720.338 444.345C714.312 435.76 706.604 418.428 708.575 407.769C712.107 388.657 732.809 415.712 736.388 416.692C720.18 398.258 707.326 349.908 747.274 384.715C753.544 389.954 757.448 395.669 760.886 403.018C765.695 413.628 768 418.987 769.601 430.588C771.108 429.944 783.137 407.328 784.746 404.163L786.543 406.155C782.497 414.457 778.188 422.468 774.1 430.696C772.775 431.96 773.19 431.509 772.773 433.652C775.257 434.181 775.721 434.308 778.266 434.116L778.156 435.352C776.488 435.532 774.597 435.477 773.414 436.541C773.551 437.303 773.442 437.281 773.824 437.883L773.192 438.324L770.656 436.763C768.558 439.049 758.424 457.034 759.354 459.529C763.22 457.47 767.684 455.834 771.872 454.618L776.778 452.982C790.727 449.604 809.022 450.474 821.459 457.639C833.401 464.519 819.344 471.902 813.324 474.499C806.054 476.85 800.813 478.083 792.935 478.077L782.977 478.092C789.392 479.487 799.699 481.068 803.61 486.696C809.644 495.38 789.825 501.233 784.43 502.413C781.47 503.626 776.837 504.132 773.665 504.093C762.706 504.756 751.785 502.293 742.17 496.992L738.983 494.59L737.839 496.396L736.012 494.39C735.485 493.948 725.575 490.558 722.958 488.963C710.719 481.504 698.001 466.158 695.659 451.985C691.568 427.217 709.469 439.383 719.652 448.182C722.19 449.987 727.471 455.721 728.338 458.623C734.229 467.5 737.906 477.661 739.062 488.253C742.547 481.718 745.868 475.524 749.654 469.139Z"/><path fill="#8F997F" transform="matrix(1.23086 0 0 1.23077 -270.789 0)" d="M750.642 430.217C749.418 428.739 747.045 426.986 746.526 425.554L748.505 426.122L748.793 425.811C745.977 422.699 740.533 419.425 737.897 416.235C731.26 408.177 719.479 385.998 725.071 375.769C728.055 370.311 745.378 386.319 747.769 388.692L748.181 388.127C747.183 386.623 747.173 386.569 747.274 384.715C753.544 389.954 757.448 395.669 760.886 403.018C765.695 413.628 768 418.987 769.601 430.588C771.108 429.944 783.137 407.328 784.746 404.163L786.543 406.155C782.497 414.457 778.188 422.468 774.1 430.696C772.775 431.96 773.19 431.509 772.773 433.652C775.257 434.181 775.721 434.308 778.266 434.116L778.156 435.352C776.488 435.532 774.597 435.477 773.414 436.541C773.551 437.303 773.442 437.281 773.824 437.883L773.192 438.324L770.656 436.763C768.558 439.049 758.424 457.034 759.354 459.529C763.22 457.47 767.684 455.834 771.872 454.618L776.778 452.982C790.727 449.604 809.022 450.474 821.459 457.639C833.401 464.519 819.344 471.902 813.324 474.499C806.054 476.85 800.813 478.083 792.935 478.077C792.671 477.816 791.103 476.341 790.89 476.346C783.736 476.489 776.486 475.666 769.669 473.432C764.771 471.826 759.473 470.131 755.328 467.021L753.398 467.525L751.117 471.392C749.939 470.152 750.167 468.578 748.907 466.257L748.838 465.632L749.988 464.678L751.012 464.829L751.466 463.371L753.406 461.372C755.446 457.201 765.339 441.198 765.442 438.063L764.051 437.53C759.717 436.476 756.933 434.741 753.257 432.339C751.719 431.486 751.739 431.558 750.642 430.217Z"/><path fill="#8F997F" transform="matrix(1.23086 0 0 1.23077 -270.789 0)" d="M776.778 452.982C790.727 449.604 809.022 450.474 821.459 457.639C833.401 464.519 819.344 471.902 813.324 474.499C806.054 476.85 800.813 478.083 792.935 478.077C792.671 477.816 791.103 476.341 790.89 476.346C783.736 476.489 776.486 475.666 769.669 473.432C764.771 471.826 759.473 470.131 755.328 467.021L756.437 466.073C774.015 464.148 794.867 464.319 812.64 464.364C800.349 460.87 769.746 464.747 756.333 464.413C756.89 462.16 758.222 461.936 760.066 460.901L759.354 459.529C763.22 457.47 767.684 455.834 771.872 454.618L776.778 452.982Z"/><path fill="#424D42" transform="matrix(1.23086 0 0 1.23077 -270.789 0)" d="M776.778 452.982C790.727 449.604 809.022 450.474 821.459 457.639C833.401 464.519 819.344 471.902 813.324 474.499L812.13 472.987C814.571 469.41 822.959 469.306 823.322 463.595C818.441 452.792 790.93 450.737 781.165 454.125C779.146 454.826 778.278 454.101 776.778 452.982Z"/><path fill="#424D42" transform="matrix(1.23086 0 0 1.23077 -270.789 0)" d="M771.872 454.618L773.022 454.839L768.222 457.353C765.221 458.374 762.815 459.918 760.066 460.901L759.354 459.529C763.22 457.47 767.684 455.834 771.872 454.618Z"/><path fill="#A1A592" transform="matrix(1.23086 0 0 1.23077 -270.789 0)" d="M773.022 454.839L775.183 454.978C773.93 456.9 770.407 457.457 768.222 457.353L773.022 454.839Z"/><path fill="#263429" transform="matrix(1.23086 0 0 1.23077 -270.789 0)" d="M765.987 436.07C761.87 430.62 733.653 392.865 732.79 388.47C739.888 395.386 761.34 432.858 768.39 434.226L767.939 432.537C768.157 432.079 769.197 431.03 769.601 430.588C771.108 429.944 783.137 407.328 784.746 404.163L786.543 406.155C782.497 414.457 778.188 422.468 774.1 430.696C772.775 431.96 773.19 431.509 772.773 433.652C775.257 434.181 775.721 434.308 778.266 434.116L778.156 435.352C776.488 435.532 774.597 435.477 773.414 436.541C773.551 437.303 773.442 437.281 773.824 437.883L773.192 438.324L770.656 436.763C768.558 439.049 758.424 457.034 759.354 459.529L760.066 460.901C758.222 461.936 756.89 462.16 756.333 464.413C769.746 464.747 800.349 460.87 812.64 464.364C794.867 464.319 774.015 464.148 756.437 466.073L755.328 467.021L753.398 467.525L751.117 471.392C749.939 470.152 750.167 468.578 748.907 466.257L748.838 465.632L749.988 464.678L751.012 464.829L751.466 463.371L753.406 461.372C755.446 457.201 765.339 441.198 765.442 438.063L764.051 437.53C759.717 436.476 756.933 434.741 753.257 432.339L755.724 432.498L756.152 432.093L755.835 431.895C759.995 433.239 761.27 434.633 765.987 436.07Z"/><path fill="#424D42" transform="matrix(1.23086 0 0 1.23077 -270.789 0)" d="M767.939 432.537C764.431 419.206 763.699 415.766 758.21 402.884C760.023 403.656 759.158 403.664 760.886 403.018C765.695 413.628 768 418.987 769.601 430.588C769.197 431.03 768.157 432.079 767.939 432.537Z"/><path fill="#8F997F" transform="matrix(1.23086 0 0 1.23077 -270.789 0)" d="M748.907 466.257C747.327 466.115 745.595 465.736 744.227 464.84C727.94 454.487 717.032 439.741 712.137 421.048C710.303 414.047 708.093 397.921 720.611 406.169C742.477 420.576 746.988 439.092 751.466 463.371L751.012 464.829L749.988 464.678L748.838 465.632L748.907 466.257Z"/><path fill="#424D42" transform="matrix(1.23086 0 0 1.23077 -270.789 0)" d="M748.838 465.632C746.38 461.338 741.867 455.091 739.039 450.644C734.422 443.24 729.992 435.721 725.754 428.094C723.72 424.487 720.547 419.174 719.176 415.373C722.312 419.08 730.514 433.893 733.39 438.879C738.475 447.759 744.015 456.37 749.988 464.678L748.838 465.632Z"/><path fill="#8F997F" transform="matrix(1.23086 0 0 1.23077 -270.789 0)" d="M738.983 494.59C743.284 491.413 782.916 490.381 790.296 490.121C786.701 486.282 746.201 492.915 741.206 491.512C743.227 487.485 754.345 484.342 758.53 482.376C768.869 477.517 795.165 478.574 802.489 488.33C803.534 496.772 782.676 499.255 781.835 500.821L785.796 500.449L786.07 500.969C785.228 501.84 785.31 501.902 784.142 502.125L784.43 502.413C781.47 503.626 776.837 504.132 773.665 504.093C762.706 504.756 751.785 502.293 742.17 496.992L738.983 494.59Z"/><path fill="#424D42" transform="matrix(1.23086 0 0 1.23077 -270.789 0)" d="M742.17 496.992C746.691 495.597 760.368 504.301 767.766 502.69C768.844 502.455 780.256 500.497 781.096 500.873C776.903 502.385 775.86 500.589 773.665 504.093C762.706 504.756 751.785 502.293 742.17 496.992Z"/><path fill="#8F997F" transform="matrix(1.23086 0 0 1.23077 -270.789 0)" d="M737.676 492.066C729.552 481.814 721.468 472.405 714.127 461.441C712.671 459.267 706.607 450.32 705.1 449.42C705.148 452.498 728.007 482.811 731.96 487.199C733.14 488.509 734.622 489.854 734.285 491.645L732.727 491.885C729.103 488.962 725.352 491.14 718.148 483.744C707.049 472.348 698.484 461.089 697.054 444.407C696.888 442.472 697.897 441.359 699.017 440.249C705.833 437.639 712.418 447.415 719.652 448.182C722.19 449.987 727.471 455.721 728.338 458.623C728.526 460.331 730.204 465.884 730.92 467.512C734.589 475.856 736.839 482.983 737.676 492.066Z"/><path fill="white" transform="matrix(1.23086 0 0 1.23077 -270.789 0)" d="M738.342 420.011C742.125 423.398 746.413 427.527 750.642 430.217C751.739 431.558 751.719 431.486 753.257 432.339C756.933 434.741 759.717 436.476 764.051 437.53L765.442 438.063C765.339 441.198 755.446 457.201 753.406 461.372C752.821 460.246 751.615 450.907 751.099 448.749C748.387 437.402 744.439 429.766 738.342 420.011Z"/><path fill="white" transform="matrix(1.23086 0 0 1.23077 -270.789 0)" d="M753.398 467.525C762.109 474.057 764.618 474.63 775.228 477.457C760.77 480.081 756.461 479.897 742.782 487.988C745.042 482.414 749.622 475.677 751.117 471.392L753.398 467.525Z"/><path fill="#8F997F" transform="matrix(1.23086 0 0 1.23077 -270.789 0)" d="M825.67 314.987C826.895 298.567 835.046 277.026 850.87 269.161C854.149 267.532 858.65 269.143 859.485 272.972C861.69 283.08 857.24 294.026 852.795 302.969C851.751 304.917 848.654 310.051 846.92 311.087C842.119 317.487 833.588 325.275 826.65 329.257L824.344 334.768C837.343 323.699 849.932 314.686 868.029 315.977C879.938 316.827 885.767 322.799 874.079 331.385C872.872 332.334 871.457 333.57 870.092 334.196C861.699 339.484 856.85 341.403 847.106 343.344C842.242 345.016 834.053 345.048 829.012 343.895C825.575 343.128 824.081 342.776 820.848 341.459C816.239 349.77 811.401 358.256 807.195 366.759L811.657 363.573C815.266 359.789 824.291 355.82 829.406 355.609C837.166 353.564 842.963 353.911 850.843 354.174C852.405 354.156 854.37 353.943 855.713 354.595C867.018 356.311 876.583 362.053 863.311 371.329C849.929 380.68 819.087 382.909 806.214 372.891L804.4 372.362L803.847 372.427L801.898 372.041C801.657 370.547 801.738 370.161 801.872 368.705L798.761 365.307L799.721 364.762C801.366 366.447 801.302 367.01 803.191 367.109L803.651 366.735C803.035 360.098 799.362 353.542 797.285 347.406C798.341 347.17 798.569 346.842 799.278 346.051C802.945 353.454 803.978 356.375 805.607 364.349C809.493 357.878 814.156 348.52 817.892 341.63C808.776 334.815 804.729 329.006 800.311 318.877C798.717 315.563 798.287 314.454 797.306 310.914C796.949 309.59 796.64 308.253 796.379 306.907C795.282 301.051 793.34 282.299 802.459 280.925C805.643 280.446 808.989 284.113 811.186 286.142C819.083 296.613 822.379 309.828 822.018 322.799C822.04 326.445 822.11 330.189 822.067 333.826C822.988 332.146 824.224 329.715 825.225 328.187C824.857 323.847 824.719 319.251 825.67 314.987Z"/><path fill="#8F997F" transform="matrix(1.23086 0 0 1.23077 -270.789 0)" d="M829.406 355.609C837.166 353.564 842.963 353.911 850.843 354.174C852.405 354.156 854.37 353.943 855.713 354.595C867.018 356.311 876.583 362.053 863.311 371.329C849.929 380.68 819.087 382.909 806.214 372.891L804.4 372.362C805.948 371.434 807.985 370.933 809.744 370.393C821.918 368.659 833.9 366.421 846.194 365.625C848.497 365.476 855.188 365.357 856.773 364.267C851.865 363.059 828.827 366.163 822.832 367.096C819.686 367.586 812.923 369.071 810.151 368.477L810.029 367.313C811.419 365.671 814.74 363.819 816.691 362.602C814.902 363.037 813.462 363.28 811.657 363.573C815.266 359.789 824.291 355.82 829.406 355.609Z"/><path fill="#424D42" transform="matrix(1.23086 0 0 1.23077 -270.789 0)" d="M855.713 354.595C867.018 356.311 876.583 362.053 863.311 371.329C849.929 380.68 819.087 382.909 806.214 372.891C809.778 371.97 823.177 377.898 828.68 378.293C841.263 379.196 857.376 373.914 866.62 365.269C869.576 362.505 861.522 358.269 859.784 357.213L860.145 357.318C859.374 355.557 857.403 355.08 855.713 354.595Z"/><path fill="#424D42" transform="matrix(1.23086 0 0 1.23077 -270.789 0)" d="M829.406 355.609C837.166 353.564 842.963 353.911 850.843 354.174L850.377 355.528C844.78 355.78 836.569 355.271 830.682 356.32C830.257 356.083 829.831 355.846 829.406 355.609Z"/><path fill="#8F997F" transform="matrix(1.23086 0 0 1.23077 -270.789 0)" d="M825.67 314.987C826.895 298.567 835.046 277.026 850.87 269.161C854.149 267.532 858.65 269.143 859.485 272.972C861.69 283.08 857.24 294.026 852.795 302.969C851.751 304.917 848.654 310.051 846.92 311.087L845.441 310.742C843.749 314.003 831.768 324.484 828.358 326.993C833.244 314.808 844.283 293.343 850.414 281.354L850.14 281.079C844.938 287.474 829.762 322.868 826.879 324.923L826.654 324.407C825.128 326.064 825.605 325.531 825.225 328.187C824.857 323.847 824.719 319.251 825.67 314.987Z"/><path fill="#424D42" transform="matrix(1.23086 0 0 1.23077 -270.789 0)" d="M825.67 314.987C826.895 298.567 835.046 277.026 850.87 269.161C854.149 267.532 858.65 269.143 859.485 272.972C861.69 283.08 857.24 294.026 852.795 302.969C852.202 302.071 851.474 301.529 851.857 300.506C853.973 294.852 862.211 272.71 854.534 270.236C842.834 272.089 828.5 297.032 828.039 308.326C827.867 312.541 826.821 317.138 826.321 321.34L825.902 321.603C825.405 319.047 825.802 317.487 825.67 314.987Z"/><path fill="#8F997F" transform="matrix(1.23086 0 0 1.23077 -270.789 0)" d="M797.306 310.914C796.949 309.59 796.64 308.253 796.379 306.907C795.282 301.051 793.34 282.299 802.459 280.925C805.643 280.446 808.989 284.113 811.186 286.142C819.083 296.613 822.379 309.828 822.018 322.799C820.083 316.258 820.367 309.436 817.423 303.732C820.112 317.609 820.756 325.342 820.016 339.214C816.973 332.651 806.176 295.213 804.958 293.839C804.456 299.072 813.965 323.625 815.11 330.299C815.522 332.702 815.617 334.082 814.14 334.359C813.245 334.527 815.006 334.845 813.981 336.383C808.836 334.044 804.228 319.683 800.514 313.962C800.585 315.841 800.483 317 800.311 318.877C798.717 315.563 798.287 314.454 797.306 310.914Z"/><path fill="#263429" transform="matrix(1.23086 0 0 1.23077 -270.789 0)" d="M797.306 310.914C796.949 309.59 796.64 308.253 796.379 306.907C795.282 301.051 793.34 282.299 802.459 280.925C805.643 280.446 808.989 284.113 811.186 286.142C809.806 287.102 810.277 286.491 809.654 287.98C805.978 286.093 806.317 281.262 801.768 282.413C795.193 288.353 798.001 303.118 797.306 310.914Z"/><path fill="#424D42" transform="matrix(1.23086 0 0 1.23077 -270.789 0)" d="M811.617 290.387C814.632 293.522 816.533 297.665 816.546 302.052C815.058 298.084 811.804 293.815 811.617 290.387Z"/><path fill="#424D42" transform="matrix(1.23086 0 0 1.23077 -270.789 0)" d="M825.225 328.187C825.605 325.531 825.128 326.064 826.654 324.407L826.879 324.923C829.762 322.868 844.938 287.474 850.14 281.079L850.414 281.354C844.283 293.343 833.244 314.808 828.358 326.993C831.768 324.484 843.749 314.003 845.441 310.742L846.92 311.087C842.119 317.487 833.588 325.275 826.65 329.257L824.344 334.768C837.343 323.699 849.932 314.686 868.029 315.977C879.938 316.827 885.767 322.799 874.079 331.385C874.498 329.422 876.49 327.637 877.845 326.123C876.691 327.057 874.7 328.938 873.384 329.151C873.71 326.131 878.556 326 877.715 321.138C876.111 319.382 874.058 318.886 871.788 318.373C853.279 314.185 835.976 324.884 824.592 338.612C833.119 335.456 859.915 325.47 867.986 324.921L868.308 325.347C865.978 326.306 864.044 326.677 861.646 327.338C849.3 330.737 837.272 334.98 825.542 340.048L825.463 340.776C828.237 342.085 836.693 342.279 840.311 342.49C838.371 343.312 832.511 342.827 829.012 343.895C825.575 343.128 824.081 342.776 820.848 341.459C816.239 349.77 811.401 358.256 807.195 366.759L811.657 363.573C813.462 363.28 814.902 363.037 816.691 362.602C814.74 363.819 811.419 365.671 810.029 367.313L810.151 368.477C812.923 369.071 819.686 367.586 822.832 367.096C828.827 366.163 851.865 363.059 856.773 364.267C855.188 365.357 848.497 365.476 846.194 365.625C833.9 366.421 821.918 368.659 809.744 370.393C807.985 370.933 805.948 371.434 804.4 372.362L803.847 372.427L801.898 372.041C801.657 370.547 801.738 370.161 801.872 368.705L798.761 365.307L799.721 364.762C801.366 366.447 801.302 367.01 803.191 367.109L803.651 366.735C803.035 360.098 799.362 353.542 797.285 347.406C798.341 347.17 798.569 346.842 799.278 346.051C802.945 353.454 803.978 356.375 805.607 364.349C809.493 357.878 814.156 348.52 817.892 341.63C808.776 334.815 804.729 329.006 800.311 318.877C800.483 317 800.585 315.841 800.514 313.962C804.228 319.683 808.836 334.044 813.981 336.383C815.006 334.845 813.245 334.527 814.14 334.359C815.617 334.082 815.522 332.702 815.11 330.299C813.965 323.625 804.456 299.072 804.958 293.839C806.176 295.213 816.973 332.651 820.016 339.214C820.756 325.342 820.112 317.609 817.423 303.732C820.367 309.436 820.083 316.258 822.018 322.799C822.04 326.445 822.11 330.189 822.067 333.826C822.988 332.146 824.224 329.715 825.225 328.187Z"/><path fill="#263429" transform="matrix(1.23086 0 0 1.23077 -270.789 0)" d="M799.721 364.762C801.366 366.447 801.302 367.01 803.191 367.109L803.651 366.735L805.63 365.242L806.644 365.438C806.67 366.97 806.652 367.807 806.927 369.306C808.143 369.77 808.17 369.729 809.482 369.831L809.744 370.393C807.985 370.933 805.948 371.434 804.4 372.362L803.847 372.427L801.898 372.041C801.657 370.547 801.738 370.161 801.872 368.705L798.761 365.307L799.721 364.762Z"/><path fill="#424D42" transform="matrix(1.23086 0 0 1.23077 -270.789 0)" d="M866.043 335.412C867.914 334.578 868.093 334.466 870.092 334.196C861.699 339.484 856.85 341.403 847.106 343.344C848.515 341.46 854.398 340.005 856.964 339.154C860.579 338.174 862.722 337.037 866.043 335.412Z"/><path fill="#E1E2DB" transform="matrix(1.23086 0 0 1.23077 -270.789 0)" d="M856.964 339.154L857.515 338.051C860.264 336.004 862.526 334.922 866.043 335.412C862.722 337.037 860.579 338.174 856.964 339.154Z"/><path fill="#17241E" transform="matrix(1.23086 0 0 1.23077 -270.789 0)" d="M360.067 594.958C374.553 594.834 401.444 591.045 409.992 605.394C417.091 617.313 413.515 627.877 401.93 634.876C417.687 640.533 425.469 652.808 416.264 668.372C404.621 682.227 376.59 678.383 359.422 678.226C361.73 676.021 365.761 672.403 365.719 669.092C365.454 647.997 367.551 622.95 365.612 602.212C363.796 599.77 361.947 597.351 360.067 594.958Z"/><path fill="white" transform="matrix(1.23086 0 0 1.23077 -270.789 0)" d="M377.038 638.018C388.438 637.908 405.538 635.396 407.146 650.935C407.921 658.422 406.445 662.722 401.91 668.609C394.219 675.476 387.042 674.205 376.975 674.102C377.179 662.215 377.032 649.935 377.038 638.018Z"/><path fill="white" transform="matrix(1.23086 0 0 1.23077 -270.789 0)" d="M377.047 599.16C382.222 599.094 390.37 598.301 394.703 601.32C403.323 607.325 403.136 620.953 397.573 628.887C391.227 634.519 385.168 633.606 377.063 633.453C377.185 622.071 377.074 610.553 377.047 599.16Z"/><path fill="#17241E" transform="matrix(1.23086 0 0 1.23077 -270.789 0)" d="M564.192 592C565.567 593.878 564.555 662.897 564.992 672.103C566.251 674.329 568.034 676.361 569.653 678.358L555.636 678.419L554.312 672.156C544.597 681.212 534.332 683.018 523.256 674.885C501.28 653.005 521.886 606.482 554.394 624.913C554.447 617.072 554.38 609.23 554.191 601.391C552.801 599.732 551.053 597.939 549.563 596.333C554.4 594.76 559.278 593.315 564.192 592Z"/><path fill="white" transform="matrix(1.23086 0 0 1.23077 -270.789 0)" d="M540.088 624.305L540.794 624.283C547.461 624.128 549.693 625.054 554.415 629.574C554.434 635.873 555.89 666.583 552.954 669.901C549.79 673.477 544.122 674.161 539.649 674.291C532.689 672.653 528.621 668.445 526.809 661.551C523.361 648.435 524.548 628.563 540.088 624.305Z"/><path fill="#17241E" transform="matrix(1.23086 0 0 1.23077 -270.789 0)" d="M655.707 596.827L653.461 595.883L653.625 595.259C656.921 594.425 677.762 594.664 682.541 594.642C678.191 597.241 675.039 599.096 671.011 602.187C665.065 624.34 657.733 646.239 651.317 668.27C650.381 671.481 649.441 674.561 648.154 677.651C646.417 678.383 647.166 678.274 645.127 677.732C643.858 675.702 643.343 674.1 642.536 671.893C637.04 656.863 632.148 641.5 626.391 626.576C623.322 633.712 609.26 677.598 606.766 678.785C603.484 676.902 601.385 667.232 600.045 663.235L587.199 625.422C582.992 613.18 581.637 604.219 572.148 594.922C581.021 594.558 591.634 594.766 600.622 594.738C596.843 597.592 595.322 599.44 592.967 603.467C596.395 618.074 605.924 645.11 610.772 660.061C615.364 647.283 619.871 634.475 624.293 621.637C619.368 607.685 619.715 604.27 608.732 594.901L638.266 594.768C635.137 597.938 633.326 599.506 630.954 603.356C636.435 620.472 643.875 642.518 650.288 659.283C656.313 641.012 662.94 620.052 668.086 601.518C664.039 599.08 660.183 598.045 655.707 596.827Z"/><path fill="#17241E" transform="matrix(1.23086 0 0 1.23077 -270.789 0)" d="M476.158 621.267C517.193 619.242 492.176 668.449 504.142 672.594C506.728 671.701 507.558 670.115 509.726 668.15L510.239 668.852C509.571 677.445 504.697 682.533 495.702 678.46C491.949 676.761 491.31 673.87 490.262 670.185C482.477 680.745 469.787 683.249 459.13 675.25C454.94 669.851 452.364 662.521 456.241 656.256C462.483 646.171 479.831 643.629 490.635 640.798C490.273 633.196 489.634 626.838 482.149 623.784C469.615 618.671 471.03 633.582 464.437 638.006C462.335 639.417 458.779 637.639 457.998 634.489C457.567 632.719 457.932 630.849 458.995 629.37C462.542 624.484 470.462 622.11 476.158 621.267Z"/><path fill="white" transform="matrix(1.23086 0 0 1.23077 -270.789 0)" d="M488.733 644.372C489.658 644.371 489.384 644.403 490.313 644.849C491.957 657.862 490.479 682.606 470.497 672.929C465.858 668.24 463.299 661.28 466.953 655.228C471.461 647.759 480.99 646.304 488.733 644.372Z"/><path fill="#17241E" transform="matrix(1.23086 0 0 1.23077 -270.789 0)" d="M807.066 621.295C826.553 619.908 834.664 629.63 836.182 647.944L795.355 647.927C795.784 655.057 796.922 661.197 801.989 666.651C805.688 670.679 810.866 673.029 816.332 673.161C823.069 673.318 828.245 670.495 832.992 665.988C834.05 664.093 835.43 660.584 837.705 660.672C838.078 662.694 836.988 664.774 836.033 666.546C829.799 679.459 809.531 683.672 797.862 675.986C776.185 661.707 781 627.605 807.066 621.295Z"/><path fill="white" transform="matrix(1.23086 0 0 1.23077 -270.789 0)" d="M806.866 624.218C821.14 622.838 823.909 632.778 825.481 644.635L815 644.727L795.577 644.655C796.483 635.117 797.176 628.035 806.866 624.218Z"/><path fill="#8F997F" transform="matrix(1.23086 0 0 1.23077 -270.789 0)" d="M772.381 399.122C757.627 390.712 745.725 374.679 740.314 358.624C738.696 353.823 736.714 344.545 744.202 342.658C748.322 341.619 756.854 347.616 760.184 350.058C774.204 360.344 786.023 380.153 788.226 397.422L790.719 392.707C792.56 393.701 792.406 394.038 793.993 393.749L794.587 393.669C793.75 394.981 793.308 395.674 792.653 397.079C793.246 398.302 793.26 398.199 794.444 398.911L793.699 399.202C791.892 399.2 791.478 399.065 789.947 399.882L786.543 406.155L784.746 404.163C781.5 402.562 777.234 401.573 772.381 399.122Z"/><path fill="#424D42" transform="matrix(1.23086 0 0 1.23077 -270.789 0)" d="M772.381 399.122C757.627 390.712 745.725 374.679 740.314 358.624C738.696 353.823 736.714 344.545 744.202 342.658C748.322 341.619 756.854 347.616 760.184 350.058C774.204 360.344 786.023 380.153 788.226 397.422L786.183 400.457C785.232 387.749 776.506 366.8 767.178 358.052C762.103 353.293 751.235 345.184 744.066 345.09C739.47 348.115 743.192 359.217 744.65 363.342C749.096 375.927 757.443 385.379 768.131 393.048C770.229 394.553 773.489 396.657 774.655 398.866L772.381 399.122Z"/><path fill="#424D42" transform="matrix(1.23086 0 0 1.23077 -270.789 0)" d="M748.632 353.878C750.133 355.335 751.689 356.762 752.877 358.49C762.979 373.182 773.818 386.677 785.402 400.225L783.541 401.295C781.997 397.839 768.894 382.859 765.88 378.764C760.006 370.779 753.683 362.498 748.632 353.878Z"/><path fill="#17241E" transform="matrix(1.23086 0 0 1.23077 -270.789 0)" d="M790.719 392.707C792.56 393.701 792.406 394.038 793.993 393.749L794.587 393.669C793.75 394.981 793.308 395.674 792.653 397.079C793.246 398.302 793.26 398.199 794.444 398.911L793.699 399.202C791.892 399.2 791.478 399.065 789.947 399.882L786.543 406.155L784.746 404.163C781.5 402.562 777.234 401.573 772.381 399.122L774.655 398.866C776.901 400.292 780.875 401.647 783.541 401.295L785.402 400.225L786.183 400.457L788.226 397.422L790.719 392.707Z"/><path fill="#8F997F" transform="matrix(1.23086 0 0 1.23077 -270.789 0)" d="M774.1 430.696C778.27 429.761 783.254 425.939 787.698 424.45C805.399 418.487 826.125 418.069 843.103 426.454C844.988 427.385 847.292 429.752 847.705 431.904C848.774 437.475 841.527 440.462 837.371 442.491L833.537 444.033C830.153 444.963 822.325 447.286 819.086 447.303C814.939 448.609 803.778 448.308 799.76 446.893C790.873 445.958 780.429 443.674 773.192 438.324L773.824 437.883C773.442 437.281 773.551 437.303 773.414 436.541C774.597 435.477 776.488 435.532 778.156 435.352L778.266 434.116C775.721 434.308 775.257 434.181 772.773 433.652C773.19 431.509 772.775 431.96 774.1 430.696Z"/><path fill="#424D42" transform="matrix(1.23086 0 0 1.23077 -270.789 0)" d="M774.1 430.696C778.27 429.761 783.254 425.939 787.698 424.45C805.399 418.487 826.125 418.069 843.103 426.454C844.988 427.385 847.292 429.752 847.705 431.904C848.774 437.475 841.527 440.462 837.371 442.491L836.471 440.767C838.405 438.259 841.827 437.881 844.834 435.033C846.307 430.623 841.699 428.563 838.398 427.112C812.948 415.92 796.068 423.433 772.773 433.652C773.19 431.509 772.775 431.96 774.1 430.696Z"/><path fill="#424D42" transform="matrix(1.23086 0 0 1.23077 -270.789 0)" d="M778.266 434.116C787.581 432.785 826.735 430.939 834.607 433.385C830.591 433.605 826.574 433.553 822.553 433.528C807.771 433.435 792.895 434.259 778.156 435.352L778.266 434.116Z"/><path fill="#424D42" transform="matrix(1.23086 0 0 1.23077 -270.789 0)" d="M819.086 447.303C816.395 445.62 817.003 447.291 814.857 445.869L815.157 445.338C821.219 444.86 830.126 441.692 833.401 441.508C832.98 443.245 832.908 442.433 833.537 444.033C830.153 444.963 822.325 447.286 819.086 447.303Z"/><path fill="#424D42" transform="matrix(1.23086 0 0 1.23077 -270.789 0)" d="M773.824 437.883C780.133 440.881 798.277 445.064 799.76 446.893C790.873 445.958 780.429 443.674 773.192 438.324L773.824 437.883Z"/><path fill="#8F997F" transform="matrix(1.23086 0 0 1.23077 -270.789 0)" d="M794.587 393.669C809.536 380.392 839.051 379.81 856.658 388.307L857.041 388.495C858.353 390.327 860.323 392.731 859.559 394.969C855.72 406.225 826.632 409.652 817.431 408.77L816.24 408.455C807.509 408.378 796.896 405.357 789.947 399.882C791.478 399.065 791.892 399.2 793.699 399.202L794.444 398.911C793.26 398.199 793.246 398.302 792.653 397.079C793.308 395.674 793.75 394.981 794.587 393.669Z"/><path fill="#424D42" transform="matrix(1.23086 0 0 1.23077 -270.789 0)" d="M794.587 393.669C809.536 380.392 839.051 379.81 856.658 388.307L857.041 388.495C858.353 390.327 860.323 392.731 859.559 394.969C855.72 406.225 826.632 409.652 817.431 408.77L817.578 408.101C825.543 409.137 853.813 402.274 856.908 394.131C856.893 385.389 834.313 384.695 828.316 384.194C822.912 383.743 795.989 389.454 796.578 396.95C804.717 396.092 839.343 392.573 846.131 394.35C844.583 395.158 841.537 394.897 839.669 394.945C824.515 395.337 809.482 396.974 794.444 398.911C793.26 398.199 793.246 398.302 792.653 397.079C793.308 395.674 793.75 394.981 794.587 393.669Z"/><path fill="#263429" transform="matrix(1.23086 0 0 1.23077 -270.789 0)" d="M789.947 399.882C791.478 399.065 791.892 399.2 793.699 399.202L793.872 400.633C799.687 404.511 813.561 406.364 816.24 408.455C807.509 408.378 796.896 405.357 789.947 399.882Z"/><path fill="#8F997F" transform="matrix(1.23086 0 0 1.23077 -270.789 0)" d="M801.898 372.041C797.492 369.446 790.487 369.468 783.973 364.353C773.265 355.945 754.635 331.967 762.174 317.943C765.562 311.639 779.587 322.608 784.075 326.627C789.335 330.099 796.491 340.146 799.278 346.051C798.569 346.842 798.341 347.17 797.285 347.406C799.362 353.542 803.035 360.098 803.651 366.735L803.191 367.109C801.302 367.01 801.366 366.447 799.721 364.762L798.761 365.307L801.872 368.705C801.738 370.161 801.657 370.547 801.898 372.041Z"/><path fill="#424D42" transform="matrix(1.23086 0 0 1.23077 -270.789 0)" d="M801.898 372.041C797.492 369.446 790.487 369.468 783.973 364.353C773.265 355.945 754.635 331.967 762.174 317.943C765.562 311.639 779.587 322.608 784.075 326.627C778.255 325.488 769.987 318.069 764.469 319.429C754.623 326.905 780.31 369.234 801.872 368.705C801.738 370.161 801.657 370.547 801.898 372.041Z"/><path fill="#263429" transform="matrix(1.23086 0 0 1.23077 -270.789 0)" d="M798.761 365.307C790.898 356.903 777.365 341.198 772.07 331.159C770.946 330.697 797.812 362.582 799.721 364.762L798.761 365.307Z"/><path fill="#424D42" transform="matrix(1.23086 0 0 1.23077 -270.789 0)" d="M722.597 517.782C705.873 517.056 691.785 502.725 687.017 487.24C686.216 484.638 686.621 481.045 688.191 478.755C692.288 472.64 701.356 479.385 705.645 482.078C714.331 487.531 723.965 501.266 725.807 511.412C728.362 510.385 734.496 497.356 736.012 494.39L737.839 496.396C735.234 501.655 732.47 506.834 729.551 511.925C728.482 512.992 728.519 514.014 728.102 515.668L728.555 516.746L728.438 518.107L727.365 519.391L726.275 520.382L725.869 520.284C723.277 522.064 709.998 549.005 704.368 553.513L703.433 553.263C703.091 549.084 722.68 523.403 722.597 517.782Z"/><path fill="#8F997F" transform="matrix(1.23086 0 0 1.23077 -270.789 0)" d="M722.017 516.146C721.212 516.056 720.412 515.922 719.622 515.744C708.197 513.158 700.235 506.874 693.814 497.133C691.28 493.288 687.9 484.775 688.876 480.363C693.021 474.509 702.143 481.529 706.193 484.481C714.931 490.851 722.745 502.478 724.349 513.252L724.098 514.719C722.835 514.512 722.871 514.407 721.814 513.639L721.859 515.446L722.017 516.146Z"/><path fill="#424D42" transform="matrix(1.23086 0 0 1.23077 -270.789 0)" d="M721.859 515.446C716.751 509.587 697.722 492.905 697.021 486.939L697.589 487.244C700.908 493.928 718.615 508.798 721.814 513.639L721.859 515.446Z"/><defs><linearGradient id="gradient_1" gradientUnits="userSpaceOnUse" x1="725.81006" y1="528.56219" x2="714.75244" y2="518.59973"><stop offset="0" stop-color="#202C30"/><stop offset="1" stop-color="#414D3E"/></linearGradient></defs><path fill="url(#gradient_1)" transform="matrix(1.23086 0 0 1.23077 -270.789 0)" d="M736.012 494.39L737.839 496.396C735.234 501.655 732.47 506.834 729.551 511.925C728.482 512.992 728.519 514.014 728.102 515.668L728.555 516.746L728.438 518.107L727.365 519.391L726.275 520.382L725.869 520.284C723.277 522.064 709.998 549.005 704.368 553.513L703.433 553.263C703.091 549.084 722.68 523.403 722.597 517.782L722.017 516.146L721.859 515.446L721.814 513.639C722.871 514.407 722.835 514.512 724.098 514.719L724.349 513.252L725.807 511.412C728.362 510.385 734.496 497.356 736.012 494.39Z"/><path fill="#17241E" transform="matrix(1.23086 0 0 1.23077 -270.789 0)" d="M732.707 622.366C747.611 622.466 762.514 622.477 777.418 622.396C766.141 640.014 753.423 658.196 741.707 675.711C762.806 675.571 767.263 678.881 780.405 660.674C779.271 665.663 777.327 670.779 775.631 675.632C775.24 676.549 774.887 677.191 774.426 678.064C770.371 678.912 734.275 678.398 727.816 678.369C729.818 674.113 736.515 664.477 739.294 660.296L762.685 625.405C756.126 625.432 746.353 624.816 739.985 626.032C737.344 626.537 731.521 634.887 729.989 635.146C729.204 632.465 731.773 625.335 732.707 622.366Z"/><path fill="#17241E" transform="matrix(1.23086 0 0 1.23077 -270.789 0)" d="M718.1 621.747L719.142 621.872C719.95 623.195 719.772 627.357 719.753 629.166C719.574 646.609 720.058 664.049 719.691 681.484C719.346 696.075 710.091 707.86 694.581 702.596C687.744 700.276 687.273 695.724 689.381 689.331C690.983 688.144 691.229 687.915 693.178 687.596C697.236 689.189 697.593 696.217 700.165 698.723C709.449 707.773 708.983 685.746 708.939 682.165C708.738 665.673 709.259 648.861 708.583 632.486L703.291 626.086C707.465 624.623 713.711 623.019 718.1 621.747Z"/><path fill="#8F997F" transform="matrix(1.23086 0 0 1.23077 -270.789 0)" d="M729.551 511.925C730.836 511.846 736.228 509.924 737.874 509.386C749.896 505.454 755.821 506.041 767.928 508.666C769.29 509.007 770.409 509.204 771.657 509.858C789.079 516.558 782.765 523.892 768.595 527.737C761.649 529.624 754.404 530.142 747.26 529.264C741.853 529.253 738.723 528.007 734.217 525.284C730.915 524.109 728.948 522.556 726.275 520.382L727.365 519.391L728.438 518.107L728.555 516.746L728.102 515.668C728.519 514.014 728.482 512.992 729.551 511.925Z"/><path fill="#424D42" transform="matrix(1.23086 0 0 1.23077 -270.789 0)" d="M771.657 509.858C789.079 516.558 782.765 523.892 768.595 527.737C761.649 529.624 754.404 530.142 747.26 529.264C745.423 528.389 741.373 527.156 740.561 525.771C748.595 529.018 778.968 527.832 779.169 517.442C778.008 515.696 774.277 513.374 772.371 512.046L772.683 511.795L771.657 509.858Z"/><path fill="#424D42" transform="matrix(1.23086 0 0 1.23077 -270.789 0)" d="M729.551 511.925C730.836 511.846 736.228 509.924 737.874 509.386C749.896 505.454 755.821 506.041 767.928 508.666C762.506 509.663 761.292 508.291 756.203 507.986C746.256 507.391 737.159 511.917 728.102 515.668C728.519 514.014 728.482 512.992 729.551 511.925Z"/><path fill="#424D42" transform="matrix(1.23086 0 0 1.23077 -270.789 0)" d="M728.555 516.746C738.314 516.437 759.387 516.294 768.756 517.775L769.4 518.384C766.284 518.61 763.172 518.349 760.055 518.26C749.52 517.96 738.977 518.041 728.438 518.107L728.555 516.746Z"/><path fill="#263429" transform="matrix(1.23086 0 0 1.23077 -270.789 0)" d="M727.365 519.391C731.691 521.937 733.527 522.961 738.275 524.852L738.3 525.597C737.022 525.563 735.508 525.393 734.217 525.284C730.915 524.109 728.948 522.556 726.275 520.382L727.365 519.391Z"/><path fill="#17241E" transform="matrix(1.23086 0 0 1.23077 -270.789 0)" d="M441.667 592.551L442.954 592.899C444.073 595.708 443.394 662.514 443.658 671.53C445.672 674.761 446.637 675.651 449.381 678.362L431.285 678.357C430.302 678.362 429.757 678.235 428.796 678.086C428.854 676.399 431.335 673.569 432.573 671.767C433.424 650.615 432.946 623.595 432.587 602.167C431.291 600.346 429.672 598.5 428.23 596.771C432.612 595.292 437.234 593.927 441.667 592.551Z"/><path fill="#17241E" transform="matrix(1.23086 0 0 1.23077 -270.789 0)" d="M857.491 621.754C857.819 621.68 858.753 621.723 859.136 621.727C860.521 623.972 859.955 631.082 859.866 634.079C864.97 626.407 871.17 620.215 881.336 621.929C886.331 622.771 891.596 626.156 886.198 631.482C881.345 636.27 874.805 629.842 869.728 629.833C858.117 629.81 859.799 651.19 859.883 659.048C859.758 669.019 859.091 671.304 866.779 678.295L843.059 678.268C845.633 675.734 846.629 674.571 848.806 671.683C849.646 660.973 849.032 642.402 848.892 631.318L843.912 626.014L857.491 621.754Z"/><path fill="#17241E" transform="matrix(1.23086 0 0 1.23077 -270.789 0)" d="M693.021 621.758L694.371 621.716C695.551 623.46 694.772 664.582 695.445 671.837C696.949 674.168 699.022 676.288 700.895 678.355L681.738 678.325L679.075 678.102C678.725 676.972 678.657 677.255 679.762 676.225C685.346 671.019 683.715 662.18 683.833 654.867C683.95 647.548 683.715 639.459 683.633 631.853C682.319 630.168 680.117 627.855 678.64 626.213C683.03 624.669 688.505 623.143 693.021 621.758Z"/><path fill="#17241E" transform="matrix(1.23086 0 0 1.23077 -270.789 0)" d="M713.523 588.034C718.123 586.827 723.017 588.184 726.34 591.588C729.662 594.992 730.9 599.918 729.583 604.489C728.265 609.06 724.595 612.571 719.971 613.683C712.923 615.379 705.825 611.082 704.057 604.051C702.289 597.019 706.512 589.875 713.523 588.034Z"/><path fill="white" transform="matrix(1.23086 0 0 1.23077 -270.789 0)" d="M709.345 608.887L708.205 608.542C706.727 603.505 718.108 593.797 721.741 595.342C723.393 601.318 716.223 608.59 710.619 609.957L709.345 608.887Z"/><path fill="#263429" transform="matrix(1.23086 0 0 1.23077 -270.789 0)" d="M719.021 597.236C716.736 601.724 711.561 607.446 710.619 609.957L709.345 608.887C712.724 603.461 714.185 601.467 719.021 597.236Z"/><path fill="#17241E" transform="matrix(1.23086 0 0 1.23077 -270.789 0)" d="M843.324 139.394C847.449 138.367 851.807 139.636 854.736 142.716C857.666 145.796 858.715 150.213 857.485 154.282C856.254 158.351 852.933 161.446 848.788 162.385C842.472 163.817 836.181 159.895 834.683 153.593C833.186 147.291 837.04 140.958 843.324 139.394Z"/><path fill="#8F5749" transform="matrix(1.23086 0 0 1.23077 -270.789 0)" d="M880.809 184.901C886.683 184.414 891.854 188.747 892.406 194.616C892.957 200.486 888.683 205.706 882.822 206.322C878.972 206.727 875.202 205.031 872.95 201.882C870.698 198.733 870.311 194.617 871.937 191.103C873.563 187.59 876.952 185.221 880.809 184.901Z"/><path fill="#C9CABB" transform="matrix(1.23086 0 0 1.23077 -270.789 0)" d="M412.493 191.491C417.498 190.169 422.622 193.171 423.917 198.184C425.212 203.196 422.182 208.306 417.164 209.574C412.184 210.832 407.123 207.83 405.839 202.855C404.554 197.881 407.527 192.803 412.493 191.491Z"/><path fill="#17241E" transform="matrix(1.23086 0 0 1.23077 -270.789 0)" d="M495.525 481.942L498.087 481.308C506.028 505.017 522.798 526.139 541.248 542.416C545.073 545.79 560.281 554.649 561.506 558.2C560.924 558.844 560.657 559.446 559.988 559.234C551.14 556.434 536.513 541.85 531.069 536.25C519.518 524.368 511.524 513.997 503.877 499.774C500.687 493.842 498.487 487.146 495.525 481.942Z"/><path fill="#C9CABB" transform="matrix(1.23086 0 0 1.23077 -270.789 0)" d="M352.08 241.129C355.115 240.106 358.467 240.802 360.845 242.95C363.222 245.097 364.255 248.362 363.545 251.487C362.835 254.611 360.493 257.109 357.422 258.018C352.793 259.388 347.92 256.799 346.464 252.196C345.008 247.593 347.506 242.671 352.08 241.129Z"/><path fill="#17241E" transform="matrix(1.23086 0 0 1.23077 -270.789 0)" d="M684.096 595.86C694.07 599.899 704.744 610.632 687.177 612.372C683.165 611.634 679.13 609.914 675.373 608.346C678.548 605.932 679.543 605.801 683.046 603.93C684.139 601.904 683.864 598.391 684.096 595.86Z"/><path fill="#C9CABB" transform="matrix(1.23086 0 0 1.23077 -270.789 0)" d="M339.635 278.867C343.06 277.392 347.035 278.942 348.558 282.347C350.082 285.751 348.59 289.749 345.209 291.322C342.978 292.36 340.36 292.116 338.36 290.683C336.359 289.25 335.285 286.85 335.549 284.402C335.813 281.955 337.374 279.84 339.635 278.867Z"/><path fill="#424D42" transform="matrix(1.23086 0 0 1.23077 -270.789 0)" d="M801.898 372.041L803.847 372.427C802.097 376.107 793.593 391.655 793.993 393.749C792.406 394.038 792.56 393.701 790.719 392.707C793.774 386.369 798.416 378.261 801.898 372.041Z"/><path fill="#8F5749" transform="matrix(1.23086 0 0 1.23077 -270.789 0)" d="M386.502 173.483C388.644 173.47 390.44 175.1 390.635 177.234C390.829 179.369 389.357 181.297 387.247 181.671C385.714 181.943 384.158 181.328 383.225 180.081C382.291 178.834 382.14 177.168 382.833 175.773C383.525 174.378 384.944 173.492 386.502 173.483Z"/><path fill="#8F5749" transform="matrix(1.23086 0 0 1.23077 -270.789 0)" d="M390.088 227.104C391.071 226.647 392.227 226.777 393.083 227.442C393.939 228.106 394.352 229.194 394.152 230.26C393.953 231.326 393.174 232.19 392.136 232.5C390.683 232.933 389.143 232.171 388.605 230.754C388.067 229.337 388.714 227.744 390.088 227.104Z"/><path fill="#8F5749" transform="matrix(1.23086 0 0 1.23077 -270.789 0)" d="M434.142 155.102C435.395 154.249 437.102 154.573 437.956 155.826C438.809 157.079 438.485 158.787 437.233 159.64C435.98 160.494 434.272 160.17 433.419 158.917C432.566 157.664 432.889 155.956 434.142 155.102Z"/></g></svg>