<?xml version="1.0" encoding="utf-8" ?><svg xmlns="http://www.w3.org/2000/svg" xmlns:xlink="http://www.w3.org/1999/xlink" width="874" height="456" viewBox="0 0 874 456"><clipPath id="cl_4"><rect y="-0.00012207031" width="874" height="456"/></clipPath><g clip-path="url(#cl_4)"><path fill="#A0A194" transform="translate(-81 -298)" d="M271.556 663.025C242.392 656.315 197.661 643.117 173.036 626.703C152.856 612.438 135.059 588.048 131.232 563.579C124.705 521.849 147.313 478.02 170.213 444.483C200.92 399.512 253.55 382.064 304.579 371.377C318.025 368.445 331.537 365.829 345.106 363.53C364.008 360.334 384.364 360.043 403.574 358.678C415.481 357.832 428.868 359.014 440.867 359.347C459.343 359.86 478.029 361.093 496.376 363.419C534.853 369.172 572.734 376.87 611.808 377.229C617.281 377.279 622.833 376.561 628.315 376.559C691.247 379.867 775.701 349.753 831.65 389.475C847.891 400.048 877.85 426.185 885.42 443.986C889.577 452.914 898.37 469.925 899.893 479.137C905.191 511.164 907.858 562.064 897.536 592.272C882.144 637.321 823.604 663.231 779.992 670.746C763.071 673.747 739.93 672.55 722.75 672.512C671.04 672.401 619.276 669.635 567.576 668.618C564.308 668.554 560.757 668.291 557.542 668.429C552.264 668.487 547.686 668.25 542.442 667.96C540.093 668.117 530.469 667.504 526.959 667.501C522.31 667.265 517.888 667.221 513.173 666.92C506.874 666.858 501.212 666.372 494.585 666.434C490.169 666.51 486.442 666.252 482.05 665.899C477.286 665.786 472.281 665.9 467.497 665.934C457.193 665.892 451.035 666.692 441.359 667.144C439.486 667.672 425.55 668.74 422.486 669.091L410.406 670.199C391.374 672.278 370.316 673.733 351.203 673.403C348.284 673.676 341.556 673.046 338.435 672.836C326.843 672.054 315.166 670.597 303.626 669.195C299.661 668.852 289.256 666.633 284.598 665.858C280.244 664.942 275.897 663.997 271.556 663.025ZM253.455 392.331C252.636 393.074 235.403 400.937 233.325 401.81C205.43 413.543 187.339 435.551 173.517 461.756C157.358 492.394 140.365 529.701 148.246 565.025C154.604 585.582 173.185 613.201 193.138 622.382C232.657 640.625 275.859 653.885 319.014 659.288C353.549 665.189 383.34 655.112 416.675 651.286C466.551 645.562 519.185 652.368 568.746 658.153C591.052 659.137 613.043 661.295 635.446 661.257C688.004 661.169 751.739 671.8 802.268 658.429C838.317 648.89 873.84 615.095 891.698 583.883C904.94 560.737 902.298 521.229 893.83 496.693C879.968 451.11 846.403 411.953 805.028 388.951C773.51 371.43 733.659 375.873 698.884 379.538C684.54 381.154 670.155 382.382 655.745 383.218C639.847 384.145 628.33 383.89 612.749 383.403C600.032 383.681 587.403 383.439 574.694 383.095C531.883 381.938 490.48 373.808 448.124 369.007C424.98 366.384 398.829 365.687 375.36 366.483C345.51 367.619 315.901 372.3 287.157 380.429C280.836 382.25 273.991 384.788 267.572 386.806C263.142 388.536 257.767 390.488 253.455 392.331Z"/><path fill="#ADACAB" transform="translate(-81 -298)" d="M391.947 659.721C396.472 659.069 402.565 657.989 407.032 656.984C406.986 659.947 406.195 667.648 407.971 669.767L410.406 670.199C391.374 672.278 370.316 673.733 351.203 673.403C348.284 673.676 341.556 673.046 338.435 672.836C326.843 672.054 315.166 670.597 303.626 669.195C301.811 666.094 301.558 664.743 301.21 661.18C303.166 661.499 315.008 662.863 315.877 663.645L315.968 664.081C318.044 663.326 332.23 664.589 334.386 665.57C338.59 665.465 343.114 666.103 347.437 665.866C351.468 665.644 355.258 664.939 359.211 664.579C370.726 663.532 380.673 662.299 391.947 659.721Z"/><path fill="#959494" transform="translate(-81 -298)" d="M391.947 659.721C396.472 659.069 402.565 657.989 407.032 656.984C406.986 659.947 406.195 667.648 407.971 669.767L410.406 670.199C391.374 672.278 370.316 673.733 351.203 673.403C354.129 672.471 356.968 673.201 359.99 672.779C361.048 672.631 362.515 670.302 363.767 670.1C372.344 668.718 383.529 669.058 392.042 669.11L391.947 659.721Z"/><path fill="#959494" transform="translate(-81 -298)" d="M315.968 664.081C318.044 663.326 332.23 664.589 334.386 665.57C328.677 668.115 322.964 669.732 316.85 667.531C315.656 666.114 316.049 666.43 315.968 664.081Z"/><path fill="#ADACAB" transform="translate(-81 -298)" d="M829.047 399.542C829.269 396.429 829.057 391.526 831.65 389.475C847.891 400.048 877.85 426.185 885.42 443.986C880.739 446.165 871.735 444.411 873.256 437.544C873.736 435.378 873.814 431.645 874.129 429.225C869.224 429.346 864.759 429.261 859.873 429.137C859.921 426.219 859.904 424.85 859.567 421.887C859.468 415.325 858.291 414.633 851.762 414.423C849.593 414.031 848.036 414.076 845.865 414.051C840.477 408.967 834.866 404.126 829.047 399.542Z"/><path fill="#ADACAB" transform="translate(-81 -298)" d="M437.336 657.884C437.341 655.799 436.957 654.834 437.901 653.399C442.529 652.995 447.101 652.945 451.743 652.681C456.61 652.404 462.054 651.349 466.852 651.584L467.565 652.574L467.497 665.934C457.193 665.892 451.035 666.692 441.359 667.144C440.203 666.849 439.4 667.218 438.641 666.677C436.883 665.422 437.4 660.411 437.336 657.884Z"/><path fill="#959494" transform="translate(-81 -298)" d="M422.372 654.188C426.763 653.957 432.705 653.178 436.827 653.178C436.867 654.661 436.727 656.691 437.336 657.884C437.4 660.411 436.883 665.422 438.641 666.677C439.4 667.218 440.203 666.849 441.359 667.144C439.486 667.672 425.55 668.74 422.486 669.091L422.372 654.188Z"/><path fill="#ADACAB" transform="translate(-81 -298)" d="M407.032 656.984C408.228 656.288 419.472 654.851 422.372 654.188L422.486 669.091L410.406 670.199L407.971 669.767C406.195 667.648 406.986 659.947 407.032 656.984Z"/><path fill="#ADACAB" transform="translate(-81 -298)" d="M481.992 652.999C487.159 653.231 492.329 653.386 497.5 653.464C497.517 655.549 497.443 663.661 497.746 665.246L494.585 666.434C490.169 666.51 486.442 666.252 482.05 665.899L481.992 652.999Z"/><path fill="#959494" transform="translate(-81 -298)" d="M467.565 652.574C472.366 652.662 477.201 652.703 481.992 652.999L482.05 665.899C477.286 665.786 472.281 665.9 467.497 665.934L467.565 652.574Z"/><path fill="#959494" transform="translate(-81 -298)" d="M498.018 653.936C503.248 654.025 507.204 654.244 512.391 654.674C512.354 658.197 512.196 661.786 512.672 665.267L513.173 666.92C506.874 666.858 501.212 666.372 494.585 666.434L497.746 665.246C498.409 664.286 498.048 655.733 498.018 653.936Z"/><path fill="#ADACAB" transform="translate(-81 -298)" d="M512.814 654.742L527.457 657.107C527.482 659.279 527.756 665.801 526.959 667.501C522.31 667.265 517.888 667.221 513.173 666.92L512.672 665.267C512.955 662.807 512.815 657.437 512.814 654.742Z"/><path fill="#959494" transform="translate(-81 -298)" d="M527.457 657.107C533.547 657.144 537.072 657.052 542.944 658.87C542.468 662.486 542.427 664.291 542.442 667.96C540.093 668.117 530.469 667.504 526.959 667.501C527.756 665.801 527.482 659.279 527.457 657.107Z"/><path fill="#ADACAB" transform="translate(-81 -298)" d="M271.728 654.095C276.905 655.045 281.62 655.961 286.574 657.764C286.463 660.436 286.528 662.684 285.756 665.242L284.598 665.858C280.244 664.942 275.897 663.997 271.556 663.025L271.728 654.095Z"/><path fill="#959494" transform="translate(-81 -298)" d="M286.574 657.764C289.73 658.455 299.116 659.982 301.21 661.18C301.558 664.743 301.811 666.094 303.626 669.195C299.661 668.852 289.256 666.633 284.598 665.858L285.756 665.242C286.528 662.684 286.463 660.436 286.574 657.764Z"/><path fill="#ADACAB" transform="translate(-81 -298)" d="M542.944 658.87C547.677 659.823 552.638 660.07 557.464 660.436L557.542 668.429C552.264 668.487 547.686 668.25 542.442 667.96C542.427 664.291 542.468 662.486 542.944 658.87Z"/><path fill="#959494" transform="translate(-81 -298)" d="M851.762 414.423C858.291 414.633 859.468 415.325 859.567 421.887C859.396 424.052 859.397 426.654 859.337 428.859C854.976 424.594 850.917 420.032 847.188 415.205L847.451 414.625L851.762 414.423Z"/><path fill="#FEFEFE" transform="translate(-81 -298)" d="M182.962 478.218C196.037 477.509 212.369 477.566 225.259 478.468C242.62 479.682 258.808 494.39 255.504 512.762C253.762 522.445 247.343 527.971 239.719 533.215C261.245 542.062 271.742 559.419 257.721 580.865C243.751 595.493 226.753 593.01 208.045 593.285C199.289 593.414 190.349 593.395 181.607 593.032C187.296 585.993 190.573 585.947 190.401 575.475C189.924 546.401 190.943 517.079 189.423 488.067C189.257 484.891 183.516 481.855 182.962 478.218ZM238.284 580.567C244.652 573.474 247.054 567.726 246.502 558.004C245.228 535.551 222.476 537.274 206.338 537.596C204.64 539.694 205.502 581.481 205.475 587.479C218.375 587.588 227.884 589.203 238.284 580.567ZM205.527 531.005C216.209 531.443 224.368 532.254 233.173 524.442C238.583 517.715 239.813 511.85 238.854 503.458C236.45 482.425 220.786 484.355 205.474 484.17L205.527 531.005Z"/><path fill="#A0A194" transform="translate(-81 -298)" d="M309.421 389.965C317.367 391.232 328.752 395.895 336.837 398.343C341.418 399.73 353.705 403.153 357.361 405.009C372.721 409.073 389.379 419.979 400.867 430.879C407.074 435.607 420.542 458.112 423.75 465.764C425.558 469.978 426.783 474.42 427.39 478.965C428.023 483.67 428.014 488.809 428.078 493.581L427.019 494.405C425.386 495.365 426.296 495.026 423.988 494.88L424.42 496.715C421.807 496.262 418.589 496.154 415.968 496.234C386.628 497.133 355.757 484.55 337.647 460.942C328.127 448.531 322.464 432.498 317.721 417.564C314.824 408.444 311.625 399.488 309.421 389.965Z"/><path fill="#FEFEFE" transform="translate(-81 -298)" d="M308.851 390.283C314.865 393.863 322.968 402.18 328.476 407.329L355.378 432.446C354.26 425.977 351.007 410.182 351.295 404.515L351.782 404.497C354.575 409.563 356.388 427.195 357.194 433.451C361.244 437.694 364.951 441.178 369.711 444.613C367.414 433.106 365.701 421.125 363.386 409.387L362.876 409.302L362.893 408.442C363.264 408.394 363.138 408.475 363.32 408.303C361.688 406.897 359.608 406.504 357.447 405.712L357.361 405.009C372.721 409.073 389.379 419.979 400.867 430.879C407.074 435.607 420.542 458.112 423.75 465.764C425.558 469.978 426.783 474.42 427.39 478.965C428.023 483.67 428.014 488.809 428.078 493.581L427.019 494.405C425.386 495.365 426.296 495.026 423.988 494.88C421.843 492.063 417.655 488.734 414.834 486.387C402.877 487.306 389.158 489.341 377.296 489.009C387.942 486.13 401.046 485.721 412.255 484.61C408.293 480.548 403.954 476.871 399.297 473.629C394.115 474.338 359.769 479.549 357.23 477.685C361.705 475.569 374.98 474.924 380.71 474.273C386.148 473.687 391.553 472.821 396.903 471.681C391.041 466.272 384.959 461.107 378.672 456.198C364.734 457.008 348.106 457.361 334.251 455.384C345.39 453.883 364.371 454.463 376.555 454.384C371.881 449.699 366.657 445.336 361.632 441.017C353.122 440.956 333.102 441.158 325.755 439.381C338.142 438.262 347.396 439.336 359.663 439.383C356.755 436.383 354.009 433.942 350.882 431.159C342.395 430.713 330.138 431.367 322.27 429.318C330.807 428.521 339.748 428.862 348.35 428.976C336.107 416.419 319.223 404.082 308.851 390.283Z"/><path fill="#A0A194" transform="translate(-81 -298)" d="M399.598 435.537C399.792 433.954 399.53 432.422 399.361 430.826L400.233 431.66L400.867 430.879C407.074 435.607 420.542 458.112 423.75 465.764C425.558 469.978 426.783 474.42 427.39 478.965C428.023 483.67 428.014 488.809 428.078 493.581L427.019 494.405C424.97 491.906 420.225 488.104 417.603 485.865C417.395 474.869 417.533 457.602 413.855 447.85C414.415 460.083 415.084 471.683 415.444 483.965C411.905 481.355 407.638 477.293 404.291 474.28C403.209 459.442 401.462 449.918 399.598 435.537Z"/><path fill="#A0A194" transform="translate(-81 -298)" d="M365.673 411.892C368.736 408.995 376.891 416.293 380.227 417.718C380.199 419.496 383.48 432.865 384.078 435.719C385.809 444.355 387.397 453.019 388.843 461.706C383.051 456.62 377.313 451.472 371.632 446.263C370.74 435.493 367.825 422.672 365.673 411.892Z"/><path fill="#A0A194" transform="translate(-81 -298)" d="M382.641 420.905C386.963 421.524 393.323 427.566 397.179 430.383C397.2 433.747 398.991 444.675 399.527 448.463C400.591 456.555 401.52 464.665 402.314 472.789C398.034 469.455 394.624 466.521 390.586 462.944C390.315 452.176 385.231 431.754 382.641 420.905Z"/><path fill="#ADACAB" transform="translate(-81 -298)" d="M357.361 405.009C372.721 409.073 389.379 419.979 400.867 430.879L400.233 431.66L399.361 430.826C399.53 432.422 399.792 433.954 399.598 435.537C398.784 433.052 398.869 431.951 397.179 430.383C393.323 427.566 386.963 421.524 382.641 420.905C382.074 418.918 381.707 418.6 380.227 417.718C376.891 416.293 368.736 408.995 365.673 411.892C365.335 410.594 365.441 410.937 364.793 409.746L363.386 409.387L362.876 409.302L362.893 408.442C363.264 408.394 363.138 408.475 363.32 408.303C361.688 406.897 359.608 406.504 357.447 405.712L357.361 405.009Z"/><path fill="#FEFEFE" transform="translate(-81 -298)" d="M812.512 413.658C814.269 414.532 813.673 413.876 814.395 415.665C809.541 432.104 798.253 459.646 787.453 472.714C772.626 490.654 748.843 500.479 726.063 501.836C716.053 502.598 713.26 502.499 703.533 499.587C702.012 500.212 696.888 504.332 695.195 505.607C697.1 502.272 698.275 501.033 700.852 498.34C701.683 491.984 702.125 489.1 704.206 483.101C708.472 466.961 719.763 451.891 733.177 442.184L733.643 441.822C738.201 436.629 752.962 429.405 759.525 427.318C764.982 425.492 769.556 424.144 775.117 422.663C786.912 419.283 800.51 416.179 812.512 413.658Z"/><path fill="#A0A194" transform="translate(-81 -298)" d="M814.395 415.665C809.541 432.104 798.253 459.646 787.453 472.714C772.626 490.654 748.843 500.479 726.063 501.836C716.053 502.598 713.26 502.499 703.533 499.587C706.935 497.067 710.398 494.628 713.918 492.274C725.799 493.606 734.298 496.35 747.631 497.168C739.006 494.039 726.137 492.614 716.782 490.111C720.282 487.914 724.426 484.715 727.827 482.232C740.699 483.674 753.99 487.8 768.968 489.276C760.773 485.847 739.814 482.343 730.269 480.62C735.573 476.315 742.577 471.817 748.288 468.091C760.992 469.478 775.476 470.867 788.173 470.114C776.922 467.827 762.324 467.698 750.489 466.329C755.012 462.836 760.142 458.758 765.127 456.059C774.304 456.636 789.565 457.415 798.184 456.532C787.792 454.434 777.274 454.719 766.62 454.458C769.594 451.933 772.561 449.715 775.673 447.363C784.623 447.717 792.181 448.416 801.042 447.107C793.741 445.704 785.264 445.754 777.775 445.521C789.201 436.498 803.119 423.512 814.395 415.665Z"/><path fill="#A0A194" transform="translate(-81 -298)" d="M759.525 427.318C760.937 428.043 761.49 428.301 762.786 429.291C763.26 434.486 758.152 451.988 756.962 458.519C751.903 462.928 745.03 467.529 739.412 471.368C742.306 460.753 748.051 442.271 749.88 432.374C744.586 442.575 740.099 460.803 737.699 472.277C734.079 475.013 730.44 477.722 726.782 480.405C727.646 475.102 734.456 443.688 734.089 442.347L733.643 441.822C738.201 436.629 752.962 429.405 759.525 427.318Z"/><path fill="#A0A194" transform="translate(-81 -298)" d="M704.206 483.101C708.472 466.961 719.763 451.891 733.177 442.184C730.78 452.177 725.734 471.131 725.361 481.026C721.823 483.649 718.063 486.566 714.345 488.868C715.409 479.365 716.778 470.066 717.884 460.645C714.715 468.742 712.503 481.283 712.418 490.072C709.029 492.989 707.639 494.322 703.45 496.132C703.494 492.635 704.988 484.515 704.206 483.101Z"/><path fill="#A0A194" transform="translate(-81 -298)" d="M775.117 422.663C786.912 419.283 800.51 416.179 812.512 413.658C809.467 417.172 805.956 419.906 802.373 422.833C792.295 431.069 782.389 439.456 772 447.302C772.878 443.361 777.072 425.904 775.892 423.094L775.117 422.663Z"/><path fill="#A0A194" transform="translate(-81 -298)" d="M772.811 425.561L773.677 425.88C774.615 429.102 771.105 444.485 770.224 448.506C766.965 451.509 763.777 453.844 760.252 456.492L759.47 456.443L759.105 455.537C760.363 448.162 762.754 435.926 765.699 428.883C766.642 426.625 770.47 426.034 772.811 425.561Z"/><path fill="#FEFEFE" transform="translate(-81 -298)" d="M460.544 475.006L462.508 474.984C462.71 475.157 462.911 475.33 463.112 475.503C463.756 510.043 462.599 545.15 463.641 579.608C463.749 583.187 466.893 590.505 467.882 593.017C462.14 593.065 456.268 592.976 450.515 592.946C450.043 590.341 449.672 587.45 449.284 584.809C435.172 596.782 422.738 598.86 407.131 588.345C375.832 558.505 404.193 496.187 448.983 520.541C449.022 511.219 449.243 501.526 448.646 492.214C448.46 489.314 444.871 483.317 443.38 480.325C445.409 478.909 457.052 476.171 460.544 475.006ZM428.934 587.191C436.307 587.188 448.062 585.231 448.807 576.248C449.275 570.605 449.13 564.96 449.127 559.296C449.169 549.248 449.133 539.199 449.017 529.152L448.977 527.333C443.192 521.911 438.922 519.329 430.649 519.546C430.151 519.56 429.654 519.578 429.156 519.6C421.442 522.402 415.83 526.569 412.537 534.327C404.928 552.252 405.412 582.115 428.934 587.191Z"/><path fill="#FEFEFE" transform="translate(-81 -298)" d="M474.103 479.7C483.218 478.95 500.401 479.467 510.229 479.471C506.589 484.26 504.041 485.037 501.234 491.128C501.853 497.28 507.852 515.874 510.094 522.463C514.595 535.692 519.23 552.945 524.531 565.556C529.294 549.607 536.117 531.689 541.561 515.621C535.63 496.705 535.061 493.384 521.013 479.765C531.546 479.135 547.92 479.833 558.899 480.022C557.722 482.104 554.434 486.316 552.842 488.655C552.968 494.73 554.096 499.897 556.149 505.634C563.24 525.445 568.99 546.375 577.017 565.812C581.793 551.639 586.12 536.525 590.601 522.186C593.365 513.339 598.529 499.416 600.267 491.058C597.104 485.767 586.855 485.306 581.229 481.893C584.084 478.661 605.065 480.563 610.277 479.854C611.804 479.646 616.683 479.765 618.111 480.332C618.14 481.924 615.37 483.171 614.11 483.917C606.23 488.587 604.263 491.178 601.772 499.947C598.635 510.989 576.407 589.911 573.659 592.812C573.094 593.408 572.536 593.226 571.772 593.268C566.591 590.138 548.785 533.461 544.493 522.683C540.921 533.075 523.302 589.162 519.327 593.337L518.197 593.035C516.704 591.575 515.197 588.984 514.557 586.991C504.36 555.24 493.121 523.813 482.895 492.054C481.26 486.977 475.845 484.094 474.103 479.7Z"/><path fill="#FEFEFE" transform="translate(-81 -298)" d="M342.284 515.17C393.58 510.482 365.534 581.22 379.126 585.526C382.631 584.926 384.404 580.832 387.566 581.501C388.841 583.851 387.547 587.793 385.888 589.723C382.104 594.123 377.489 595.385 372.052 595.927C371.638 595.778 371.226 595.623 370.817 595.462C364.641 593.009 363.006 588.469 360.575 582.825C349.963 596.19 332.176 599.913 318.455 588.644C316.245 586.069 313.812 582.857 313.043 579.514C306.538 551.213 342.49 547.35 360.892 542.595C360.424 536.027 360.124 527.145 355.196 522.156C351.045 517.952 345.853 518.422 340.473 518.491C337.312 520.222 336.262 520.788 333.995 523.924C330.744 528.421 326.364 542.363 318.619 537.66C314.797 535.34 316.066 529.075 318.638 525.972C324.888 518.433 332.966 516.342 342.284 515.17ZM332.463 584.085C340.683 590.299 350.347 589.959 356.307 581.607C361.474 574.366 361.947 556.447 360.973 547.988L360.535 547.775C345.377 548.559 325.944 554.809 327.352 573.524C327.682 577.914 329.518 580.936 332.463 584.085Z"/><path fill="#A0A194" transform="translate(-81 -298)" d="M712.626 598.467C723.902 600.202 740.5 608.634 748.76 616.459L749.255 617.13C756.193 621.519 773.523 645.206 777.986 652.882C748.691 654.392 722.763 657.565 699.222 636.265C698.443 635.56 696.354 633.548 695.88 632.805L694.691 631.561C687.043 624.101 681.638 613.499 678.177 603.513L676.144 601.354L676.319 600.762C683.99 600.139 702.183 598.463 709.09 598.43L712.626 598.467Z"/><path fill="#FEFEFE" transform="translate(-81 -298)" d="M712.626 598.467C723.902 600.202 740.5 608.634 748.76 616.459L749.255 617.13C747.716 619.149 726.409 623.948 722.361 625.038C726.749 626.714 729.898 628.005 733.946 630.437C741.593 627.875 749.484 625.173 757.449 623.858C750.158 627.591 743.667 629.194 735.813 631.244C738.008 632.406 740.464 633.635 742.593 634.866C748.915 632.522 756.189 629.951 762.927 629.193C756.584 632.302 750.626 633.555 743.817 635.244C753.63 640.141 769.307 646.577 777.377 652.877C773.595 651.828 763.518 646.526 759.525 644.554C754.698 642.169 748.356 639.418 743.724 636.981C745.345 641.047 747.266 645.428 748.213 649.664L748.022 650.077C745.582 645.931 743.702 640.77 741.963 636.256C739.698 635.078 737.267 633.71 734.898 632.819C737.467 639.521 740.634 646.976 742.792 653.704C738.193 647.925 735.496 638.744 732.991 631.641C728.622 629.311 724.241 627.004 719.847 624.721C723.544 634.362 727.424 643.231 729.579 653.368C725.84 645.999 721.193 632.764 718.686 624.74C713.916 621.824 707.152 618.018 701.942 615.907C704.853 625.071 706.987 632.6 708.259 642.263C705.359 636.038 702.052 621.67 699.974 614.765C696.8 613.051 693.17 610.969 689.904 609.586C691.074 613.36 697.203 630.518 695.88 632.805L694.691 631.561C687.043 624.101 681.638 613.499 678.177 603.513L676.144 601.354L676.319 600.762C683.99 600.139 702.183 598.463 709.09 598.43L712.626 598.467Z"/><path fill="#A0A194" transform="translate(-81 -298)" d="M712.626 598.467C723.902 600.202 740.5 608.634 748.76 616.459C739.539 619.008 730.292 621.466 721.023 623.834C716.911 621.926 712.597 619.471 708.584 617.295C717.365 615.229 732.302 612.24 739.912 608.511C729.59 609.97 716.73 613.69 706.832 616.568C704.786 615.446 702.514 614.003 700.488 612.786C709.202 609.324 719.409 606.959 728.465 603.248C718.743 603.674 707.718 608.294 698.734 611.98C695.961 610.615 693.153 609.138 690.393 607.727C697.02 604.445 709.306 601.333 712.908 599.338L712.626 598.467Z"/><path fill="#A0A194" transform="translate(-81 -298)" d="M678.177 603.513L688.122 608.419C690.034 614.981 693.3 625.068 694.691 631.561C687.043 624.101 681.638 613.499 678.177 603.513Z"/><path fill="#A0A194" transform="translate(-81 -298)" d="M676.144 601.354L676.319 600.762C683.99 600.139 702.183 598.463 709.09 598.43C704.726 600.966 693.266 605.264 688.179 606.938C684.839 605.255 679.542 602.361 676.144 601.354Z"/><path fill="#FEFEFE" transform="translate(-81 -298)" d="M783.343 516.15C791.404 514.779 801.814 516.995 808.209 522.131C817.766 529.806 819.363 539.951 820.73 551.433C802.77 551.764 784.395 551.493 766.343 551.707C766.672 554.811 766.941 557.866 767.58 560.921C772.468 584.287 797.487 595.23 815.39 576.482C816.877 574.572 820.059 570.003 822.23 569.405L822.671 570.03C820.049 594.243 785.354 600.658 767.169 587.794C758.925 581.863 753.396 572.88 751.814 562.849C748.136 540.724 760.315 519.718 783.343 516.15ZM766.228 546.761C773.936 547.182 781.657 547.31 789.375 547.146C794.849 547.095 800.584 547.122 806.031 546.952C804.482 532.556 800.75 518.844 782.779 520.106C768.88 524.113 768.218 534.611 766.228 546.761Z"/><path fill="#ADACAB" transform="translate(-81 -298)" d="M478.127 378.604C486.881 415.005 482.707 446.35 447.145 464.662C443.979 466.292 438.927 469.488 436.272 471.7L435.609 470.508L435.395 469.879C433.477 462.853 431.681 446.463 432.796 439.316L432.992 438.173C434.243 432.946 435.164 428.5 437.466 423.638L438.176 421.937C439.812 418.673 441.537 414.994 443.526 411.979L443.988 411.473C450.583 402.168 468.171 384.236 478.127 378.604Z"/><path fill="#FEFEFE" transform="translate(-81 -298)" d="M462.681 414.179C467.123 403.318 471.849 391.052 477.148 380.701L477.532 380.58C476.032 388.528 469.138 401.805 465.938 409.994C470.613 407.806 475.633 405.306 480.465 403.594C475.455 407.077 470.594 409.311 465.206 412.116L462.363 417.847C469.666 415.186 476.18 411.757 483.557 409.368C476.516 414.292 470.239 416.084 462.268 419.175C460.1 423.379 457.954 427.593 455.83 431.819C462.96 428.923 470.714 424.708 478.048 423.416L478.375 423.661C474.593 425.916 459.428 431.934 455.206 433.392C453.136 437.23 450.338 442.373 448.806 446.47C457.808 443.926 463.498 442.04 472.907 441.794C465.561 444.479 455.231 446.419 447.519 448.447C445.497 451.742 444.596 453.825 443.035 457.392C445.998 456.474 459.152 451.985 460.863 452.75C458.214 454.485 445.868 458.227 442.136 459.309C440.45 462.706 438.163 467.959 435.609 470.508L435.395 469.879C433.477 462.853 431.681 446.463 432.796 439.316L432.992 438.173C434.243 432.946 435.164 428.5 437.466 423.638L438.176 421.937C439.812 418.673 441.537 414.994 443.526 411.979L443.988 411.473C445.563 413.023 450.114 434.068 451.03 438.01C453.352 433.77 455.355 429.937 457.024 425.381C455.081 418.045 452.18 408.137 451.921 400.692C454.503 408.572 456.232 415.611 458.084 423.72C459.442 421.174 460.794 418.743 461.891 416.067C460.497 410.514 458.315 402.753 458.217 397.201C459.812 401.565 461.686 409.43 462.681 414.179Z"/><path fill="#ADACAB" transform="translate(-81 -298)" d="M438.176 421.937C439.812 418.673 441.537 414.994 443.526 411.979C445.442 419.287 448.701 432.493 449.912 439.871C448.625 443.16 448.012 444.743 446.259 447.831C444.227 442.585 439.66 424.422 438.176 421.937Z"/><path fill="#ADACAB" transform="translate(-81 -298)" d="M432.992 438.173C434.243 432.946 435.164 428.5 437.466 423.638C440.014 432.839 442.018 440.344 445.377 449.273L441.443 457.092C439.741 453.175 434.926 440.325 432.992 438.173Z"/><path fill="#ADACAB" transform="translate(-81 -298)" d="M435.395 469.879C433.477 462.853 431.681 446.463 432.796 439.316C434.868 444.911 437.93 453.68 440.824 458.738C439.17 462.014 436.2 466.735 435.395 469.879Z"/><path fill="#FEFEFE" transform="translate(-81 -298)" d="M686.49 517.012C689.635 516.914 693.086 516.944 696.236 517.039C711.877 517.512 727.707 516.767 743.324 517.25C738.15 526.662 730.833 537.563 724.893 546.601L697.236 588.432C705.103 588.49 712.988 588.597 720.859 588.647C732.79 588.724 737.956 578.911 745.718 570.965C744.243 576.268 742.637 581.534 740.9 586.758C740.53 588.718 739.625 591.146 738.975 593.084C726.101 593.223 713.134 593.368 700.269 592.975C696.185 592.85 681.333 594.09 679.317 590.935C679.849 588.601 681.786 586.491 683.06 584.383C691.776 569.964 701.725 556.137 710.794 541.915C714.735 535.736 720.973 528.438 723.745 521.818C717.968 521.377 711.903 521.498 706.164 521.395C693.779 521.173 689.144 526.004 681.194 533.932C682.078 526.287 681.998 523.234 686.49 517.012Z"/><path fill="#FEFEFE" transform="translate(-81 -298)" d="M666.14 516.2L666.953 516.479C667.912 518.24 668.206 519.728 668.171 521.757C667.795 543.543 667.594 565.333 667.572 587.123C667.564 595.306 667.696 605.197 663.921 612.692C660.865 618.828 655.426 623.441 648.874 625.456C641.027 627.801 627.381 626.325 625.307 616.661C624.455 612.694 624.745 610.709 626.788 607.311C635.929 598.432 637.479 618.812 644.475 622.368C654.411 623.384 653.141 604.237 653.285 597.916C653.474 585.846 653.509 573.775 653.39 561.704C653.357 552.622 653.632 542.019 652.843 533.016C652.6 530.245 648.32 524.818 646.602 522.48C651.185 520.219 661.135 516.741 666.14 516.2Z"/><path fill="#FEFEFE" transform="translate(-81 -298)" d="M294.933 474.093L295.972 474.166C298.263 477.86 295.608 557.439 296.467 568.553C297.554 582.619 293.809 577.471 302.787 592.934C295.101 593.166 286.621 592.991 278.875 592.989L277.521 592.775C276.31 589.938 280.313 586.893 281.041 583.583C281.585 581.138 282.319 578.118 282.356 575.614C282.687 553.518 282.44 531.397 282.477 509.295C282.489 502.156 282.654 494.547 281.855 487.476C280.205 485.336 278.095 482.95 276.324 480.856C281.029 477.781 289.486 475.501 294.933 474.093Z"/><path fill="#FEFEFE" transform="translate(-81 -298)" d="M876.29 516.24C879.709 515.508 883.856 517.675 886.798 519.118C888.493 521.304 892.324 526.897 888.619 529.162C880.97 533.838 871.663 527.989 863.494 527.254C848.473 535.562 851.898 552.476 851.444 566.819C851.003 580.726 852.442 583.283 861.561 592.984C853.903 593.17 846.244 593.299 838.584 593.37L829.61 593.247C831.65 590.014 834.432 586.647 835.774 583.084C837.384 578.808 837.201 536.008 836.144 530.299C835.588 527.297 833.864 524.284 832.596 521.524C836.361 520.344 848.07 515.431 850.78 516.606C852.239 518.793 852.053 528.15 852.276 531.551C858.76 522.077 864.319 517.286 876.29 516.24Z"/><path fill="#FEFEFE" transform="translate(-81 -298)" d="M630.725 516.552C632.064 516.469 632.427 516.504 633.757 516.559C636.062 519.298 633.239 573.589 634.819 581.319C635.813 586.181 639.304 589.791 642.406 593.382C634.397 593.224 626.386 593.156 618.375 593.176L611.438 593.065C612.7 591.494 617.509 585.512 617.875 583.301C620.394 568.076 619.529 547.165 618.52 531.645C618.437 530.365 614.699 522.973 614.137 521.836C618.747 519.877 625.892 517.884 630.725 516.552Z"/><path fill="#A0A194" transform="translate(-81 -298)" d="M660.354 469.201C666.727 467.779 673.368 469.957 677.661 474.877C681.954 479.798 683.212 486.673 680.938 492.794C678.665 498.916 673.225 503.303 666.76 504.228C657.285 505.585 648.431 499.212 646.709 489.796C644.987 480.381 651.012 471.287 660.354 469.201Z"/><path fill="#474747" transform="translate(-81 -298)" d="M654.576 495.835L653.281 495.882C650.122 491.544 663.76 477.237 669.966 478.489C675.353 482.911 666.423 496.15 659.236 497.31C658.923 497.201 658.163 496.971 657.921 496.812C656.822 495.909 656.004 495.987 654.576 495.835Z"/><path fill="#ADACAB" transform="translate(-81 -298)" d="M654.576 495.835C658.435 490.019 660.342 486.997 665.948 482.829C663.587 489.446 662.169 491.007 657.921 496.812C656.822 495.909 656.004 495.987 654.576 495.835Z"/><path fill="#FEFEFE" transform="translate(-81 -298)" d="M565.447 617.309C569.905 616.399 574.507 617.954 577.5 621.38C580.492 624.806 581.414 629.576 579.913 633.87C578.413 638.165 574.721 641.322 570.246 642.139C563.426 643.383 556.875 638.905 555.56 632.098C554.245 625.292 558.655 618.695 565.447 617.309Z"/><path fill="#FEFEFE" transform="translate(-81 -298)" d="M244.869 429.729C249.184 428.53 253.81 429.769 256.948 432.965C260.086 436.16 261.241 440.808 259.963 445.101C258.685 449.394 255.176 452.654 250.801 453.613C247.484 454.34 244.013 453.664 241.21 451.745C238.407 449.826 236.523 446.834 236.002 443.477C235.044 437.309 238.855 431.401 244.869 429.729Z"/><path fill="#FEFEFE" transform="translate(-81 -298)" d="M621.377 481.118C639.469 485.901 641.507 503.889 623.955 502.601C618.807 501.907 613.046 499.477 608.476 497.066C613.138 494.26 615.87 492.989 621.139 491.564C621.068 488.048 621.237 484.629 621.377 481.118Z"/><path fill="#A0A194" transform="translate(-81 -298)" d="M301.495 621.287C304.899 620.141 308.656 620.922 311.321 623.33C313.986 625.738 315.142 629.397 314.346 632.899C313.549 636.401 310.923 639.199 307.479 640.218C302.29 641.752 296.828 638.848 295.197 633.689C293.567 628.529 296.367 623.014 301.495 621.287Z"/><path fill="#FEFEFE" transform="translate(-81 -298)" d="M845.022 461.891C854.336 462.511 854.98 469.395 847.577 474.525C839.882 475.486 836.629 467.069 845.022 461.891Z"/><path fill="#ADACAB" transform="translate(-81 -298)" d="M167.696 544.914C170.818 544.423 173.759 546.524 174.305 549.638C174.852 552.751 172.804 555.728 169.701 556.331C167.643 556.731 165.531 555.988 164.175 554.39C162.819 552.792 162.432 550.586 163.162 548.621C163.892 546.657 165.625 545.239 167.696 544.914Z"/><path fill="#FEFEFE" transform="translate(-81 -298)" d="M806.908 619.672C808.17 619.126 809.631 619.328 810.696 620.197C811.762 621.066 812.254 622.457 811.972 623.802C811.69 625.148 810.681 626.224 809.356 626.592C807.493 627.11 805.548 626.097 804.903 624.274C804.258 622.452 805.135 620.441 806.908 619.672Z"/><path fill="#ADACAB" transform="translate(-81 -298)" d="M427.019 494.405L428.078 493.581C431.489 497.512 435.098 501.028 437.389 505.65C433.411 502.415 429.166 498.543 424.42 496.715L423.988 494.88C426.296 495.026 425.386 495.365 427.019 494.405Z"/><path fill="#ADACAB" transform="translate(-81 -298)" d="M136.782 533.698C138.894 533.58 141.244 533.573 143.38 533.518C142.929 536.756 142.9 547.017 142.326 548.293L135.594 548.449C135.546 545.237 134.673 536.726 135.437 534.289L136.782 533.698Z"/><path fill="#ADACAB" transform="translate(-81 -298)" d="M253.455 392.331C253.475 391.836 253.628 391.105 253.714 390.593C256.804 387.44 263.266 385.45 267.572 386.806C263.142 388.536 257.767 390.488 253.455 392.331Z"/></g></svg>