<?xml version="1.0" encoding="utf-8" ?><svg xmlns="http://www.w3.org/2000/svg" xmlns:xlink="http://www.w3.org/1999/xlink" width="847" height="417" viewBox="0 0 847 417"><clipPath id="cl_3"><rect width="847" height="417"/></clipPath><g clip-path="url(#cl_3)"><path fill="none" transform="translate(-89 -309)" d="M0 0L1024 0L1024 1024L0 1024L0 0Z"/><path fill="#B8C4A8" transform="translate(-89 -309)" d="M339.785 365.546C340.137 365.169 340.49 364.791 340.842 364.414C355.474 361.503 384.267 359.734 398.197 359.259C438.695 358.249 479.204 360.82 519.25 366.943C543.898 370.608 570.716 377.442 595.438 377.424C620.64 377.406 647.145 377.346 672.353 376.399C688.397 375.796 705.381 371.944 721.368 370.132C746.41 367.358 772.72 368.858 797.272 374.413C818.904 379.488 833.859 391.148 849.987 405.376C856.312 410.956 863.022 415.843 869.402 421.864C873.131 425.38 876.457 429.301 879.316 433.554C885.01 442.027 888.12 450.406 892.473 459.234C899.592 473.671 902.621 487.232 902.831 503.303C902.875 506.717 903.225 509.336 901.975 512.607C905.137 527.585 906.278 556.171 901.357 570.347L901.423 570.856C901.737 573.634 901.934 575.114 901.397 577.902C893.547 617.619 859.361 643.892 823.342 657.482C807.327 663.525 798.007 668.203 780.089 670.363C741.384 675.03 702.846 672.839 664.046 671.553L543.583 667.884C522.392 667.158 501.308 666.006 480.108 665.412C442.272 664.35 405.677 671.295 367.984 672.907C343.088 673.972 320.115 671.629 295.52 667.488C265.947 662.492 236.965 654.471 209.032 643.551C197.958 639.317 187.033 635.121 176.989 628.725C164.959 621.105 154.564 611.167 146.409 599.492C130.969 577.615 127.934 554.485 132.423 528.41C137.026 501.682 161.224 455.853 178.339 435.33C186.788 425.267 196.549 416.382 207.36 408.913C228.291 394.392 248.663 385.154 273.284 379.242C278.584 377.969 286.493 374.49 291.745 375.435C301.629 372.413 312.972 369.797 323.151 367.832C328.394 366.819 334.388 366.501 339.785 365.546Z"/><path fill="#9AA39A" transform="translate(-89 -309)" d="M901.357 570.347L901.423 570.856C901.737 573.634 901.934 575.114 901.397 577.902C893.547 617.619 859.361 643.892 823.342 657.482C807.327 663.525 798.007 668.203 780.089 670.363C741.384 675.03 702.846 672.839 664.046 671.553L543.583 667.884C522.392 667.158 501.308 666.006 480.108 665.412C442.272 664.35 405.677 671.295 367.984 672.907C343.088 673.972 320.115 671.629 295.52 667.488C265.947 662.492 236.965 654.471 209.032 643.551C197.958 639.317 187.033 635.121 176.989 628.725C164.959 621.105 154.564 611.167 146.409 599.492C130.969 577.615 127.934 554.485 132.423 528.41C137.026 501.682 161.224 455.853 178.339 435.33C186.788 425.267 196.549 416.382 207.36 408.913C228.291 394.392 248.663 385.154 273.284 379.242C278.584 377.969 286.493 374.49 291.745 375.435C263.936 385.756 221.802 399.719 199.354 419.351C181.836 436.553 167.858 463.092 157.639 484.909C143.686 514.693 136.935 551.148 147.922 582.617C157.498 610.045 185.696 625.114 211.401 634.503C246.713 647.399 283.116 659.407 320.66 663.453C340.561 665.564 363.617 664.97 383.305 661.037C408.827 655.937 429.952 652.567 456.08 652.439C475.856 652.413 495.619 653.444 515.284 655.528C534.245 657.572 553.446 660.36 572.393 662.113C607.941 665.403 643.969 664.532 679.456 665.809C695.373 666.428 711.285 667.173 727.19 668.043C756.546 669.385 787.215 669.112 814.963 658.229C846.288 645.943 884.342 610.703 897.853 579.961C899.251 576.845 900.422 573.632 901.357 570.347Z"/><path fill="#9AA39A" transform="translate(-89 -309)" d="M339.785 365.546C340.137 365.169 340.49 364.791 340.842 364.414C355.474 361.503 384.267 359.734 398.197 359.259C438.695 358.249 479.204 360.82 519.25 366.943C543.898 370.608 570.716 377.442 595.438 377.424C620.64 377.406 647.145 377.346 672.353 376.399C688.397 375.796 705.381 371.944 721.368 370.132C746.41 367.358 772.72 368.858 797.272 374.413C818.904 379.488 833.859 391.148 849.987 405.376C856.312 410.956 863.022 415.843 869.402 421.864C873.131 425.38 876.457 429.301 879.316 433.554C885.01 442.027 888.12 450.406 892.473 459.234C899.592 473.671 902.621 487.232 902.831 503.303C902.875 506.717 903.225 509.336 901.975 512.607C892.091 469.61 872.017 438.784 839.896 408.627C819.935 389.886 794.983 377.65 767.748 373.751C740.547 369.856 710.364 375.669 682.978 377.663C655.744 379.646 626.577 381.807 599.317 381.323C571.892 380.776 544.516 378.773 517.305 375.321C494.549 372.327 474.189 368.234 450.82 366.054C424.748 363.465 398.541 362.497 372.349 363.158C361.319 363.54 350.576 365.064 339.785 365.546Z"/><path fill="none" transform="translate(-89 -309)" d="M147.374 566.287C142.236 525.435 153.469 499.921 171.822 465.096C192.13 426.56 202.822 415.888 242.735 398.329C276.476 383.484 301.842 373.982 339.132 369.294C356.594 367.119 374.183 366.136 391.779 366.351C415.401 366.529 438.995 368.029 462.45 370.843C480.313 372.985 497.648 376.224 515.416 378.627C539.489 381.789 563.703 383.761 587.969 384.536C617.852 385.253 647.752 384.395 677.545 381.965C732.697 377.187 780.271 365.39 828.2 403.747C865.992 433.992 893.572 475.569 900.021 524.278C903.769 554.562 899.012 579.057 879.576 602.487C850.046 638.084 821.786 658.734 774.808 663.853C746.206 666.97 723.295 663.892 694.995 662.974C657.099 661.744 619.56 661.984 581.744 659.147C542.42 656.197 504.051 649.039 464.553 648.935C449.265 648.895 433.987 649.103 418.815 651.216C408.154 652.701 396.93 654.859 386.391 656.927C363.553 661.407 340.801 662.2 317.727 659.449C281.125 655.084 202.844 633.34 174.675 611.647C159.601 601.844 149.941 583.776 147.374 566.287Z"/><path fill="#9AA39A" transform="translate(-89 -309)" d="M147.374 566.287C149.714 568.459 154.049 580.209 156.254 584.431C159.009 589.668 162.223 594.652 165.856 599.324C168.72 602.937 174.669 607.376 174.675 611.647C159.601 601.844 149.941 583.776 147.374 566.287Z"/><path fill="#E8EBE6" transform="translate(-89 -309)" d="M182.419 478.6C195.945 478.48 221.862 476.902 234.204 480.454C259.094 487.617 264.486 520.478 238.647 533.412C260.422 538.783 271.843 560.283 258.57 579.629C257.889 580.433 257.183 581.214 256.452 581.973C244.095 594.641 225.217 593.099 209.12 593.007L181.63 592.929C186.825 587.949 190.305 584.703 190.387 577.06C190.625 554.907 190.468 532.742 190.543 510.586C190.566 503.702 190.826 496.53 189.87 489.736C189.32 485.945 184.942 481.383 182.419 478.6Z"/><path fill="none" transform="translate(-89 -309)" d="M213.908 537.25C233.187 536.97 249.785 540.195 246.537 565.535C245.547 573.257 240.503 579.746 234.073 584.035C224.455 588.968 216.02 587.937 205.373 587.815C205.703 571.276 205.323 554.072 205.444 537.436L213.908 537.25Z"/><path fill="none" transform="translate(-89 -309)" d="M205.595 484.268C213.436 483.656 226.045 482.939 232.101 488.679C241.73 497.805 241.167 515.939 232.889 525.663C225.05 532.274 215.06 531.542 205.459 531.481C205.45 515.982 205.202 499.703 205.595 484.268Z"/><path fill="#E8EBE6" transform="translate(-89 -309)" d="M381.722 491.508C344.463 478.989 328.228 455.99 318.896 419.663C317.301 413.453 308.765 396.093 309.853 390.838C311.34 390.031 314.292 390.661 315.841 391.322C330.736 397.682 348.252 401.174 363.047 406.888C400.236 421.252 428.261 454.607 429.088 495.539C431.028 497.003 435.877 500.174 436.26 502.345L435.492 502.816C429.476 501.207 432.154 495.699 422.522 496.957C406.71 497.42 396.897 496.322 381.722 491.508Z"/><path fill="#B8C4A8" transform="translate(-89 -309)" d="M335.847 456.333C350.355 456.557 364.866 456.561 379.375 456.346C381.755 458.437 395.768 470.054 396.852 471.846C395.641 472.65 394.968 472.493 393.383 472.664C382.369 474.384 367.858 475.979 356.79 476.934C347.797 471.343 342.249 464.468 335.847 456.333Z"/><path fill="#B8C4A8" transform="translate(-89 -309)" d="M365.269 410.341C369.573 411.602 376.166 415.248 379.883 417.733C380.768 423.011 382.856 430.63 384.097 436.043C386.057 444.517 387.682 453.065 388.971 461.666C386.524 460.136 374.902 449.644 371.638 446.91C370.618 436.441 367.435 420.563 365.269 410.341Z"/><path fill="#B8C4A8" transform="translate(-89 -309)" d="M328.069 440.612C337.771 440.297 352.004 441.13 362.143 441.419C365.585 444.383 374.076 451.391 376.691 454.452C362.813 454.738 348.931 454.765 335.052 454.532C331.846 449.41 330.288 446.249 328.069 440.612Z"/><path fill="#B8C4A8" transform="translate(-89 -309)" d="M312.827 392.079L322.878 395.75C325.999 396.444 326.963 396.906 329.789 398.175C332.894 398.797 346.566 403.659 350.796 404.972L355.529 432.165C350.427 428.347 344.665 422.792 339.914 418.398C330.61 409.913 321.576 401.136 312.827 392.079Z"/><path fill="none" transform="translate(-89 -309)" d="M322.878 395.75C325.999 396.444 326.963 396.906 329.789 398.175C326.376 398.825 324.6 399.029 322.878 395.75Z"/><path fill="#B8C4A8" transform="translate(-89 -309)" d="M382.084 419.209C385.732 420.685 393.336 427.341 396.357 430.12C399.219 439.393 401.737 462.958 402.523 473.235C400.334 472.042 393.269 465.67 390.984 463.647C390.134 449.96 384.986 432.622 382.084 419.209Z"/><path fill="#B8C4A8" transform="translate(-89 -309)" d="M397.362 474.208C397.704 474.14 398.738 473.906 398.988 473.984C402.519 475.088 409.809 482.33 412.399 484.69C407.461 485.177 379.659 488.176 376.317 487.639C370.373 484.751 364.854 481.806 359.033 478.672C369.162 478.175 386.651 475.46 397.362 474.208Z"/><path fill="#B8C4A8" transform="translate(-89 -309)" d="M398.991 432.45C399.468 432.822 399.628 432.92 400 433.296C412.439 445.858 414.242 447.657 414.769 464.655L415.321 483.79C412.915 482.687 406.741 476.836 404.491 474.763C403.933 460.639 401.676 446.299 398.991 432.45Z"/><path fill="#B8C4A8" transform="translate(-89 -309)" d="M312.041 394.393C315.131 396.948 323.45 405.403 326.761 408.633C331.923 413.667 343.605 423.707 347.731 428.704C342.234 429.122 329.771 428.571 323.761 428.487C320.408 418.323 314.497 404.106 312.041 394.393Z"/><path fill="#B8C4A8" transform="translate(-89 -309)" d="M352.674 405.62C356.597 406.838 359.28 407.735 363.05 409.319C365.434 420.592 368.153 433.914 369.756 445.251C367.034 443.322 359.956 436.391 357.243 433.852C356.757 427.156 354.001 412.27 352.674 405.62Z"/><path fill="#B8C4A8" transform="translate(-89 -309)" d="M324.152 430.373C330.602 430.503 344.401 431.136 350.124 430.521C353.462 433.373 356.832 436.457 360.121 439.386C357.094 440.009 332.189 438.641 327.025 438.464L324.152 430.373Z"/><path fill="#B8C4A8" transform="translate(-89 -309)" d="M381.892 489.597C385.348 488.437 408.002 487.605 414.445 486.384C416.592 488.159 422.461 492.782 423.862 494.751C415.429 497.153 390.079 493.288 381.892 489.597Z"/><path fill="#B8C4A8" transform="translate(-89 -309)" d="M415.927 454.778C422.326 459.871 426.921 484.794 427.134 493.334C424.251 491.681 419.97 488.043 417.472 485.862C417.556 476.086 416.645 464.569 415.927 454.778Z"/><path fill="#E8EBE6" transform="translate(-89 -309)" d="M812.476 414.144L813.63 414.343C815.584 418.483 803.077 442.485 800.964 448.155C795.231 463.542 786.416 477.636 772.196 486.492C751.903 499.129 726.039 504.981 702.361 500.003L696.213 504.596L695.219 505.224L694.574 505.057C694.85 503.142 699.47 499.952 701.224 498.565C705.58 462.345 732.164 435.936 766.251 425.495C773.574 423.252 781.127 421.877 788.55 420.023C796.562 418.021 804.306 415.534 812.476 414.144Z"/><path fill="#B8C4A8" transform="translate(-89 -309)" d="M748.517 467.961C754.625 469.444 780.114 470.515 787.032 470.584C781.039 478.068 775.834 482.187 767.739 487.145C766.904 487.554 765.666 488.096 764.741 487.956C753.526 486.254 741.12 483 730.026 480.724C734.873 476.888 743.207 471.426 748.517 467.961Z"/><path fill="#B8C4A8" transform="translate(-89 -309)" d="M762.5 428.475C762.805 428.424 762.553 428.437 763.558 428.599C763.777 430.634 757.155 455.146 756.233 459.844C751.09 463.62 745.925 467.365 740.739 471.081L740.199 471.422L739.538 471.272C739.62 467.115 748.713 438.945 750.527 433.626C754.408 431.67 758.469 430.105 762.5 428.475Z"/><path fill="#B8C4A8" transform="translate(-89 -309)" d="M764.83 455.87C772.614 456.907 786.869 456.854 794.994 456.926C792.545 461.727 790.611 464.992 787.727 469.526L782.124 469.08C771.66 468.748 760.49 467.34 749.806 466.877C754.75 463.122 759.759 459.453 764.83 455.87Z"/><path fill="#B8C4A8" transform="translate(-89 -309)" d="M809.531 416.132L810.286 416.192C809.202 417.596 803.361 422.286 801.737 423.708C792.408 431.877 782.544 439.586 772.849 447.334L772.19 446.975C773.775 439.544 775.224 432.085 776.533 424.601C786.369 421.83 799.564 418.473 809.531 416.132Z"/><path fill="#B8C4A8" transform="translate(-89 -309)" d="M748.306 434.525C748.165 436.181 744.097 447.916 743.252 450.663C740.954 458.167 738.991 465.769 737.367 473.447C733.488 475.72 730.829 477.46 727.169 480.075C726.166 474.808 733.47 449.338 735.331 443.296C739.461 440.093 743.795 437.164 748.306 434.525Z"/><path fill="#B8C4A8" transform="translate(-89 -309)" d="M727.832 482.43C730.927 482.28 758.82 488.43 763.657 489.453C759.28 491.551 755.842 492.868 751.328 494.569C750.248 494.96 747.569 495.942 746.498 495.844C736.377 494.925 725.774 491.942 715.606 490.407C718.704 488.826 724.672 484.538 727.832 482.43Z"/><path fill="#B8C4A8" transform="translate(-89 -309)" d="M732.01 445.455L732.229 445.685C732.354 446.466 725.344 475.56 724.909 481.714L714.981 489.037C714.809 488.705 714.638 488.373 714.466 488.041C714.758 482.549 717.2 463.103 720.058 458.254C722.184 454.647 728.808 448.324 732.01 445.455Z"/><path fill="#B8C4A8" transform="translate(-89 -309)" d="M811.353 417.956C811.665 421.917 802.076 441.329 799.786 446.579C793.051 446.509 785.913 446.128 779.152 445.87C778.722 445.581 778.943 445.804 778.733 445.027C780.612 443.328 782.839 441.613 784.875 440.067C794.018 433.123 802.378 425.045 811.353 417.956Z"/><path fill="#B8C4A8" transform="translate(-89 -309)" d="M774.475 425.155C774.887 426.411 770.749 445.876 770.321 449.305C766.784 452.127 762.627 455.085 758.966 457.816C757.833 455.724 764.983 430.971 765.993 427.375L774.475 425.155Z"/><path fill="#B8C4A8" transform="translate(-89 -309)" d="M776.066 447.169C783.394 448.112 791.619 448.048 799.023 448.08L795.876 455.435C794.327 455.233 792.619 455.159 791.045 455.054C782.802 455.107 774.56 454.916 766.328 454.48C769.951 451.956 772.66 449.962 776.066 447.169Z"/><path fill="#B8C4A8" transform="translate(-89 -309)" d="M714.301 491.963C723.753 493.556 733.175 495.326 742.56 497.274C739.006 498.054 734.764 498.674 731.127 499.294C720.572 500.595 714.897 500.101 704.543 498.789C707.782 496.383 710.958 494.225 714.301 491.963Z"/><path fill="#B8C4A8" transform="translate(-89 -309)" d="M715.913 463.471C716.429 464.842 712.824 486.905 712.29 490.532L704.058 496.604L703.494 495.945C703.462 486.444 711.014 471.608 715.913 463.471Z"/><path fill="#E8EBE6" transform="translate(-89 -309)" d="M461.582 474.578C462.514 474.674 462.912 474.539 462.967 475.494C463.175 479.057 463.101 483.984 463.091 487.393L462.928 549.913C462.915 557.679 462.861 565.483 462.939 573.249C463.027 582.059 463.537 585.908 469.236 592.881L450.696 593.01L449.302 584.186C436.449 596.818 421.122 600.264 406.293 588.152C401.519 583.56 398.026 577.801 396.157 571.446C385.553 536.622 414.039 500.995 449.053 520.639C449.255 513.336 449.39 506.032 449.458 498.727C449.487 489.546 448.937 486.499 442.664 480.209C449.067 478.044 455.066 476.381 461.582 474.578Z"/><path fill="none" transform="translate(-89 -309)" d="M430.356 519.654C438.999 519.123 443.139 521.187 449.212 526.916C449.95 543.025 449.31 563.11 449.155 579.461C448.627 580.04 448.085 580.605 447.527 581.155C441.64 586.894 435.781 587.64 428.146 587.527C416.937 585.155 411.657 576.517 409.818 565.844C406.91 548.966 409.386 523.035 430.356 519.654Z"/><path fill="#B8C4A8" transform="translate(-89 -309)" d="M473.013 480.079C483.214 479.438 499.957 479.823 510.459 479.984C506.64 482.879 500.24 488.198 501.447 493.553C503.328 501.901 506.288 510.163 508.856 518.354C513.768 534.317 518.839 550.231 524.068 566.094C529.521 554.397 537.348 528.86 541.729 515.789C536.795 499.307 534.583 490.54 521.23 479.976C533.905 479.832 546.582 479.866 559.256 480.079C555.328 484.437 553.745 485.801 551.723 491.286C553.763 500.363 560.654 518.48 563.767 528.017C567.238 538.651 572.526 556.56 577.019 566.065C579.431 560.853 586.018 538.499 587.935 531.868C591.68 518.913 597.832 502.336 600.838 489.773C594.295 485.469 587.472 484.662 580.177 481.677L580.897 480.436C583.852 479.617 615.38 479.98 620.857 479.994C615.038 484.09 610.749 484.536 604.807 490.289L583.155 563.134C581.867 567.425 575.392 591.725 573.693 593.181C571.586 593.479 572.638 593.539 570.451 592.696C568.027 589.658 564.347 577.656 562.633 573.337C556.184 557.091 550.984 538.651 544.561 522.612C541.973 528.783 539.53 536.823 537.403 543.298L527.352 573.988C525.968 578.256 522.624 592.472 518.909 593.882C517.847 593.475 517.064 593.071 516.566 591.841C513.269 583.707 510.462 574.203 507.701 565.916L489.12 510.445C486.833 503.458 484.437 494.955 481.303 488.385C480.285 486.251 475.046 481.874 473.013 480.079Z"/><path fill="#E8EBE6" transform="translate(-89 -309)" d="M340.161 515.666C343.439 515.433 346.71 515.303 349.992 515.576C390.983 518.989 366.968 575.63 377.356 584.721C378.255 585.508 379.042 585.6 380.176 585.527C382.009 585.409 382.888 584.429 384.047 583.166C385.088 582.03 386.118 580.325 387.667 580.178C390.665 585.392 383.411 594.014 377.665 595.463C374.338 596.27 370.827 595.701 367.925 593.886C362.941 590.827 361.978 587.32 360.785 582.202C351.189 595.588 335.145 600.089 320.903 591.133C307.571 579.801 309.762 560.924 325.593 553.24C336.875 547.764 348.97 545.737 361.04 542.538C360.92 528.342 357.107 514.986 339.279 519.166C333.217 520.587 331.378 528.977 328.62 534.034C322.058 546.059 311.53 533.993 318.629 525.69C324.267 519.014 331.828 516.81 340.161 515.666Z"/><path fill="none" transform="translate(-89 -309)" d="M359.208 547.174L360.503 547.058L361.145 547.775C362.04 553.544 361.842 575.104 358.388 580.178C352.964 588.147 342.164 591.258 333.392 585.57C330.539 582.922 328.645 579.972 327.84 576.119C323.391 554.847 342.842 549.643 359.208 547.174Z"/><path fill="#E8EBE6" transform="translate(-89 -309)" d="M699.254 598.208C720.589 595.311 749.205 612.724 760.536 630.046C763.315 634.294 777.976 648.76 776.538 652.354C772.878 653.995 754.997 653.336 749.375 653.719C734.95 654.525 721.153 652.109 708.986 644.069C695.607 635.228 682.632 619.627 679.164 603.729C676.76 602.825 675.932 602.629 673.881 601.18L673.788 600.533C675.653 600.416 677.516 601.517 679.281 602.312C686.368 599.423 691.714 598.764 699.254 598.208Z"/><path fill="#B8C4A8" transform="translate(-89 -309)" d="M701.523 615.61C705.08 616.675 714.208 621.657 717.575 623.588C721.14 630.134 725.582 643.464 728.299 650.948C719.871 648.421 715.336 647.028 708.337 641.78C706.274 631.927 704.574 625.198 701.523 615.61Z"/><path fill="#B8C4A8" transform="translate(-89 -309)" d="M737.358 610.624C739.442 610.796 745.446 615.833 747.514 617.446C743.2 618.384 723.761 624.089 721.828 624.221C718.524 622.891 712.502 619.416 709.16 617.615C717.285 615.165 729.133 612.374 737.358 610.624Z"/><path fill="#B8C4A8" transform="translate(-89 -309)" d="M719.526 624.811C722.34 625.429 729.287 629.577 732.144 631.168C735.02 636.632 738.729 646.666 741.035 652.557C736.764 652.371 734.002 651.96 729.749 651.285C726.193 642.923 723.035 633.438 719.526 624.811Z"/><path fill="#B8C4A8" transform="translate(-89 -309)" d="M689.619 609.195C692.839 610.588 695.86 612.358 698.927 614.065C702.511 620.486 705.59 633.654 706.52 641.001C699.257 635.033 696.626 632.606 693.961 623.242C692.682 618.748 690.981 613.742 689.619 609.195Z"/><path fill="#B8C4A8" transform="translate(-89 -309)" d="M759.11 631.049C761.425 632.012 773.66 647.757 775.51 650.84C772.101 649.391 768.401 647.575 765.012 646.002C758.708 642.656 749.455 638.981 743.724 635.19C748.88 633.913 754.01 632.532 759.11 631.049Z"/><path fill="#B8C4A8" transform="translate(-89 -309)" d="M725.76 605.183C728.273 604.922 734.034 608.332 736.392 609.589C727.423 611.592 718.498 613.787 709.624 616.173C705.627 617.342 702.834 614.814 699.404 612.77C706.826 610.244 718.363 605.888 725.76 605.183Z"/><path fill="#B8C4A8" transform="translate(-89 -309)" d="M743.924 637.19C753.718 641.728 764.759 646.926 774.289 651.889C767.944 652.486 756.026 652.202 749.268 652.245C747.636 647.218 746.076 642.004 743.924 637.19Z"/><path fill="#B8C4A8" transform="translate(-89 -309)" d="M748.131 618.637C749.774 618.986 753.203 623.189 754.492 624.623C750.24 625.891 735.9 630.787 732.455 630.046C729.614 628.286 726.598 626.625 723.684 624.973C731.785 622.419 739.86 620.529 748.131 618.637Z"/><path fill="#B8C4A8" transform="translate(-89 -309)" d="M711.256 600.085C713.734 600.096 722.074 602.857 724.834 603.738C717.268 605.345 709.158 608.054 701.814 610.469L698.023 612.011C695.374 610.486 692.355 608.968 689.629 607.527C696.833 604.753 703.785 602.079 711.256 600.085Z"/><path fill="#B8C4A8" transform="translate(-89 -309)" d="M734.151 632.142C736.024 632.678 740.044 634.933 741.984 635.954C744.619 641.638 746.314 646.603 748.425 652.513C746.976 652.55 744.529 652.842 743.172 652.314C740.809 651.395 735.741 635.547 734.151 632.142Z"/><path fill="#B8C4A8" transform="translate(-89 -309)" d="M680.59 604.849C682.859 605.807 685.621 607.305 688.142 608.4C689.883 615.193 692.781 622.801 694.865 629.755C689.382 625.956 682.194 611.357 680.59 604.849Z"/><path fill="#B8C4A8" transform="translate(-89 -309)" d="M754.068 626.084L754.863 626.037C756.529 626.71 757.829 628.549 759.059 629.959C753.303 631.537 747.537 633.078 741.762 634.583C739.799 633.43 737.523 632.428 735.451 631.448C741.442 629.575 747.998 627.825 754.068 626.084Z"/><path fill="#B8C4A8" transform="translate(-89 -309)" d="M701.53 599.24C703.742 599.413 706.254 599.394 708.498 599.434C701.81 601.766 695.126 603.949 688.684 606.888C685.472 605.5 683.764 604.708 680.743 602.946C687.799 600.308 694.095 599.617 701.53 599.24Z"/><path fill="#B8C4A8" transform="translate(-89 -309)" d="M782.863 516.157C807.544 513.841 819.459 527.971 820.485 551.469C802.67 551.873 784.202 551.541 766.278 551.663C766.288 552.168 766.303 552.673 766.323 553.178C766.715 562.866 769.643 572.339 777.026 578.998C782.599 584.076 790.001 586.664 797.524 586.162C805.634 585.617 811.037 582.378 816.307 576.532C818.345 573.905 819.34 570.983 821.707 568.551L822.537 568.77C823.611 571.773 820.621 577.424 818.898 579.905C807.41 596.45 782.982 599.242 766.924 587.867C749.012 575.177 746.737 547.233 759.28 530.082C765.399 521.74 772.768 517.692 782.863 516.157Z"/><path fill="none" transform="translate(-89 -309)" d="M781.202 520.095C782.049 520.017 782.897 519.955 783.747 519.909C800.482 519.075 804.879 533.367 805.558 547.025L790.966 547.167C782.775 547.187 774.584 547.165 766.394 547.1C766.622 535.518 769.163 524.398 781.202 520.095Z"/><path fill="#B8C4A8" transform="translate(-89 -309)" d="M467.939 388.006C469.609 385.916 475.271 379.891 477.795 379.393C480.511 382.717 480.525 403.986 481.413 409.691C484.219 427.735 470.945 450.221 455.106 458.884C452.505 461.41 442.047 466.404 438.344 466.905C437.068 468.506 436.331 470.359 434.921 472.158C434.966 470.653 435.933 468.879 436.58 467.437C425.252 439.008 438.961 409.406 462.901 392.465C463.631 390.981 466.522 389.062 467.939 388.006Z"/><path fill="#9AA39A" transform="translate(-89 -309)" d="M467.939 388.006C469.923 387.554 474.855 382.144 476.628 380.3C474.004 388.774 466.934 406.05 463.017 414.541C461.09 408.48 459.807 403.239 458.317 397.05C460.548 395.343 461.423 394.892 462.901 392.465C463.631 390.981 466.522 389.062 467.939 388.006Z"/><path fill="#9AA39A" transform="translate(-89 -309)" d="M447.122 448.305C455.208 446.038 463.337 443.932 471.506 441.986C468.913 445.301 464.074 451.481 459.918 452.009L459.241 452.599C456.252 452.695 445.523 456.631 442.139 457.85L447.122 448.305Z"/><defs><linearGradient id="gradient_0" gradientUnits="userSpaceOnUse" x1="451.34586" y1="461.00745" x2="448.03055" y2="455.79834"><stop offset="0" stop-color="#BABDB5"/><stop offset="1" stop-color="#E3E2DF"/></linearGradient></defs><path fill="url(#gradient_0)" transform="translate(-89 -309)" d="M459.241 452.599L459.918 452.009L460.889 452.705C459.922 455.234 456.786 455.833 455.106 458.884C452.505 461.41 442.047 466.404 438.344 466.905C439.496 463.408 440.286 462.048 441.966 458.734C444.951 457.836 457.765 454.237 459.241 452.599Z"/><path fill="#9AA39A" transform="translate(-89 -309)" d="M478.579 423.669L479.287 423.905C480.008 427.795 474.561 437.595 472.228 440.839C464.921 443.012 456.863 444.574 449.016 446.91L448.163 446.731C448.798 443.842 453.373 436.205 455.028 433.394C462.137 430.798 471.476 426.631 478.579 423.669Z"/><path fill="#9AA39A" transform="translate(-89 -309)" d="M479.418 404.53C480.304 405.693 480.131 406.704 480.272 408.123C480.337 408.781 480.08 410.633 479.54 410.914C477.17 412.145 467.594 416.116 466.111 417.589C470.78 416.254 476.179 413.616 480.375 411.179C480.4 415.534 480.397 417.879 479.819 422.152L470.781 426.018C465.551 428.212 460.335 430.439 455.133 432.698C457.141 429.203 459.465 424.098 461.34 420.369C462.432 419.8 462.263 420.074 463.057 419.057C463.895 418.871 463.47 419.01 464.325 418.616L464.326 418.527C462.985 418.66 463.487 418.878 462.624 418.257C462.761 416.444 464.114 413.907 464.906 412.101C469.548 409.454 474.624 407.309 479.418 404.53Z"/><path fill="#9AA39A" transform="translate(-89 -309)" d="M444.977 412.329C446.533 409.147 449.501 406.191 451.994 403.668C453.304 411.29 455.031 418.56 456.924 426.046C457.027 426.452 456.748 427.298 456.523 427.69C454.699 431.31 452.853 435.122 450.957 438.685C449.539 433.774 445.849 414.247 444.977 412.329Z"/><path fill="#9AA39A" transform="translate(-89 -309)" d="M444.977 412.329C444.947 419.581 448.106 432.896 450.154 439.943C449.277 441.731 447.404 446.115 446.097 447.175L445.532 446.687C442.629 438.354 440.812 431.547 438.741 422.946C440.48 419.053 442.231 415.624 444.977 412.329Z"/><path fill="#9AA39A" transform="translate(-89 -309)" d="M437.879 424.941C438.916 426.366 440.551 434.314 441.169 436.557C442.427 441.131 443.702 444.816 445.498 449.25L441.591 457.095L441.42 457.179L440.743 456.774C435.011 443.296 432.454 438.75 437.879 424.941Z"/><path fill="#9AA39A" transform="translate(-89 -309)" d="M477.212 382.341C479.037 384.137 479.51 400.207 479.695 403.561C475.866 405.662 471.593 407.709 467.667 409.684C467.461 409.783 466.808 409.845 466.543 409.883C466.496 407.246 475.605 386.739 477.212 382.341Z"/><path fill="#9AA39A" transform="translate(-89 -309)" d="M457.474 397.963L457.68 398.191C458.333 402.243 461.061 411.518 462.226 415.798C461.164 418.531 459.392 421.895 458.062 424.583C456.119 421.286 453.518 407.126 452.622 402.799L457.474 397.963Z"/><path fill="#9AA39A" transform="translate(-89 -309)" d="M433.504 442.625C435.719 443.701 438.434 454.634 440.66 458.861L438.479 463.34C437.873 464.289 438.131 463.97 437.207 464.663C433.813 461.552 433.443 446.993 433.504 442.625Z"/><path fill="#B8C4A8" transform="translate(-89 -309)" d="M665.809 516.062C666.692 515.977 666.735 516.083 667.641 516.265C668.245 519.138 668.132 524.552 668.122 527.639C668.062 548.885 667.985 569.874 668.066 591.137C668.141 611.047 661.268 628.084 637.965 626.533C632.122 626.143 627.462 623.311 625.208 617.74C623.717 614.054 625.468 609.702 627.44 606.579C639.639 597.915 638.475 635.877 651.253 618.897C652.58 617.133 652.959 611.424 653.018 608.959C653.48 589.491 653.373 570.003 653.448 550.528C653.47 544.912 653.673 538.368 652.73 532.858C652.07 529 648.363 525.252 645.802 522.406C651.755 519.844 659.554 517.648 665.809 516.062Z"/><path fill="#B8C4A8" transform="translate(-89 -309)" d="M684.939 517.155C703.908 516.914 724.394 517.455 743.581 517.478C740.559 523.925 732.285 534.92 728.088 541.316C717.707 557.136 707.048 572.833 696.786 588.744C705.124 588.995 715.359 589.305 723.587 588.465C734.339 587.366 739.567 579.057 745.557 571.211C744.883 577.155 743.508 580.684 741.491 586.389L739.138 592.692C726.335 593.009 713.526 593.035 700.722 592.768C697.2 592.726 680.942 593.227 679.6 591.755C679.352 589.938 679.362 589.664 680.433 587.993C694.645 565.816 710.434 544.123 723.975 521.557C716.372 521.412 708.462 521.182 700.864 521.287C692.106 521.409 686.639 529.05 681.073 535.226C681.659 527.216 682.529 524.76 684.939 517.155Z"/><path fill="#E8EBE6" transform="translate(-89 -309)" d="M295.904 474.117C298.057 477.774 295.349 547.42 296.376 557.876C297.706 571.422 291.696 581.153 303.708 592.969L276.956 593.005L276.399 592.843C276.078 591.274 280.514 586.778 281.148 585.03C282.517 581.252 282.45 574.123 282.475 570.183L282.538 520.215C282.542 510.811 283.032 497.352 281.647 488.011C281.327 485.854 277.457 482.184 275.79 480.496C280.591 478.536 290.93 475.154 295.904 474.117Z"/><path fill="#B8C4A8" transform="translate(-89 -309)" d="M849.983 516.074L850.852 516.013L851.622 516.715C852.344 519.93 852.05 528.355 852.021 532.154C858.362 523.972 863.16 517.113 875.124 515.816C881.333 514.186 894.955 521.949 887.995 528.739C882.162 534.431 870.957 527.109 865.933 527.205C848.19 527.543 851.497 557.776 851.592 569.779C851.825 582.149 851.353 584.76 861.263 592.749C851.202 592.924 838.766 593.101 828.841 592.615C837.818 583.95 837.213 581.996 837.037 569.691C836.849 556.642 837.733 543.117 836.315 530.163C836.14 528.566 832.593 523.886 831.561 522.22C836.183 519.805 844.713 517.55 849.983 516.074Z"/><path fill="#B8C4A8" transform="translate(-89 -309)" d="M631.21 516.555C632.179 516.441 634.351 516.065 634.394 517.467C634.952 536.268 634.285 555.158 634.435 573.981C634.519 584.53 634.966 584.905 641.945 592.683L615.875 592.656C614.355 592.731 613.539 592.915 612.152 592.283C612.425 590.341 618.637 586.788 619.054 578.852C619.828 564.137 620.286 546.591 618.736 531.985C618.479 529.562 614.526 524.418 613.031 522.376C617.688 520.242 626.111 518.019 631.21 516.555Z"/><path fill="#B8C4A8" transform="translate(-89 -309)" d="M659.132 469.608C668.546 466.685 678.547 471.945 681.473 481.358C684.399 490.771 679.143 500.774 669.731 503.704C660.314 506.634 650.305 501.375 647.377 491.957C644.45 482.539 649.713 472.532 659.132 469.608Z"/><path fill="none" transform="translate(-89 -309)" d="M669.876 477.455C675.011 483.953 665.705 497.321 658.643 497.711C656.589 495.152 665.723 488.085 665.97 483.818L665.175 483.492C659.15 487.761 656.756 495.044 653.556 496.605L652.465 495.761C650.206 489.332 665.285 480.103 669.876 477.455Z"/><path fill="#E8EBE6" transform="translate(-89 -309)" d="M566.857 617.238C573.857 616.554 580.081 621.686 580.741 628.688C581.402 635.69 576.249 641.897 569.245 642.534C562.274 643.169 556.103 638.045 555.445 631.076C554.788 624.107 559.891 617.92 566.857 617.238Z"/><path fill="#E8EBE6" transform="translate(-89 -309)" d="M244.621 429.778C251.217 427.733 258.215 431.461 260.197 438.076C262.179 444.691 258.385 451.653 251.751 453.572C245.206 455.466 238.358 451.733 236.402 445.206C234.446 438.68 238.114 431.796 244.621 429.778Z"/><path fill="#B8C4A8" transform="translate(-89 -309)" d="M621.156 481.167C627.19 483.303 636.092 487.249 636.636 494.774C637.074 500.844 629.847 502.362 625.124 502.686C619.167 501.904 614.617 499.718 609.15 497.422C613.743 493.358 615.363 492.84 620.99 491.232C620.959 487.824 621.051 484.573 621.156 481.167Z"/><path fill="#B8C4A8" transform="translate(-89 -309)" d="M301.747 621.285C306.962 619.585 312.563 622.458 314.226 627.685C315.889 632.912 312.976 638.493 307.738 640.119C302.551 641.729 297.037 638.852 295.391 633.676C293.745 628.501 296.583 622.967 301.747 621.285Z"/><path fill="#B8C4A8" transform="translate(-89 -309)" d="M707.348 401.329C712.758 400.774 717.586 404.726 718.112 410.139C718.637 415.552 714.659 420.359 709.243 420.854C703.87 421.346 699.108 417.405 698.586 412.035C698.065 406.664 701.98 401.88 707.348 401.329Z"/><path fill="#9AA39A" transform="translate(-89 -309)" d="M525.201 425.852C527.323 424.967 529.758 425.291 531.574 426.701C533.39 428.112 534.308 430.39 533.975 432.666C533.643 434.941 532.113 436.862 529.969 437.694C526.711 438.959 523.043 437.369 521.738 434.128C520.432 430.886 521.976 427.198 525.201 425.852Z"/><path fill="#E8EBE6" transform="translate(-89 -309)" d="M844.452 462.272C847.792 461.201 851.365 463.055 852.413 466.403C853.46 469.75 851.58 473.31 848.225 474.333C844.904 475.345 841.388 473.489 840.352 470.175C839.315 466.862 841.146 463.333 844.452 462.272Z"/><path fill="#9AA39A" transform="translate(-89 -309)" d="M166.395 545.3C169.401 544.19 172.744 545.687 173.917 548.669C175.09 551.652 173.662 555.025 170.705 556.26C168.736 557.082 166.477 556.775 164.799 555.458C163.121 554.14 162.286 552.018 162.617 549.911C162.948 547.803 164.393 546.04 166.395 545.3Z"/><path fill="#9AA39A" transform="translate(-89 -309)" d="M477.759 608.85C480.82 608.418 483.694 610.428 484.34 613.451C484.986 616.474 483.183 619.482 480.213 620.339C478.096 620.949 475.816 620.327 474.303 618.727C472.789 617.126 472.296 614.815 473.023 612.736C473.751 610.657 475.578 609.157 477.759 608.85Z"/><path fill="#E8EBE6" transform="translate(-89 -309)" d="M807.338 619.237C809.434 618.747 811.527 620.059 811.999 622.16C812.47 624.26 811.138 626.342 809.033 626.793C806.956 627.239 804.908 625.928 804.443 623.855C803.978 621.782 805.269 619.722 807.338 619.237Z"/></g></svg>