<?xml version="1.0" encoding="utf-8" ?><svg xmlns="http://www.w3.org/2000/svg" xmlns:xlink="http://www.w3.org/1999/xlink" width="847" height="417" viewBox="0 0 847 417"><clipPath id="cl_5"><rect width="847" height="417"/></clipPath><g clip-path="url(#cl_5)"><path fill="#A3A58E" transform="translate(-89 -309)" d="M341.575 364.178C348.045 362.597 357.67 361.883 364.572 361.339C412.406 357.679 462.173 358.684 509.726 365.123C539.313 369.129 566.915 376.932 597.103 377.097C637.701 377.32 675.783 377.775 715.895 370.595C731.311 367.836 752.116 369.211 767.861 369.551C788.181 371.329 807.847 375.076 825.324 386.048C837.005 393.38 841.712 398.263 851.573 406.242C871.221 422.14 881.11 431.244 890.868 454.999C894.326 463.416 898.097 470.61 900.287 480.306C902.223 488.871 904.27 505.375 902.557 514.068C905.168 533.213 905.721 551.878 901.574 570.841C902.579 576.374 900.859 581.497 899.299 586.695C890.745 615.195 864.583 638.64 838.456 651.235C817.442 661.366 795.241 669.621 771.817 671.591C739.444 674.315 706.49 672.61 674.075 671.625L542.882 667.57C520.774 666.859 498.547 665.379 476.436 665.404C464.229 665.418 452.088 665.598 439.915 666.605C422.947 668.008 406.079 670.463 389.093 671.746C365.579 673.522 342.017 673.7 318.567 670.957C278.39 666.258 206.066 648.512 172.865 625.991C152.445 612.141 136.139 589.505 131.509 565.084C124.087 525.94 148.562 477.108 170.439 445.265C197.836 405.386 243.99 383.458 290.468 374.813C298.064 371.663 314.354 370.14 322.729 367.8C328.506 366.186 335.233 366.11 341.575 364.178ZM176.434 611.905C178.673 614.319 182.643 617.171 185.585 618.712C227.247 640.521 276.118 653.795 322.57 659.975C356.547 664.496 389.584 655.363 422.764 650.46C442.021 647.614 463.895 649.521 483.382 649.552C513.425 650.488 544.36 656.358 574.407 658.492C616.754 662.905 663.084 661.141 704.985 663.601C768.592 667.335 823.823 667.485 868.672 614.788C876.953 605.059 882.891 599.727 889.842 587.681C904.754 561.837 902.926 531.943 895.876 503.978C886.326 466.192 866.131 439.459 838.857 413.219C788.239 364.521 738.921 376.525 675.763 381.943C651.227 383.923 626.61 384.714 601.998 384.313C576.8 384.068 551.635 382.45 526.613 379.467C504.67 376.937 482.596 372.885 460.867 370.499C410.263 364.944 352.065 362.624 302.565 376.174C272.642 384.364 229.835 400.274 204.936 419.548C195.146 427.127 185.145 440.526 179.09 451.274C160.711 483.899 137.944 528.497 148.235 566.862C158.369 589.536 160.332 592.991 176.434 611.905Z"/><path fill="#DFDFDD" transform="translate(-89 -309)" d="M901.574 570.841C902.579 576.374 900.859 581.497 899.299 586.695C890.745 615.195 864.583 638.64 838.456 651.235C817.442 661.366 795.241 669.621 771.817 671.591C739.444 674.315 706.49 672.61 674.075 671.625L542.882 667.57C520.774 666.859 498.547 665.379 476.436 665.404C464.229 665.418 452.088 665.598 439.915 666.605C422.947 668.008 406.079 670.463 389.093 671.746C365.579 673.522 342.017 673.7 318.567 670.957C278.39 666.258 206.066 648.512 172.865 625.991C152.445 612.141 136.139 589.505 131.509 565.084C124.087 525.94 148.562 477.108 170.439 445.265C197.836 405.386 243.99 383.458 290.468 374.813C286.38 378.223 273.642 381.864 267.855 384.115C249.655 391.778 216.323 403.366 201.987 417.1C174.404 443.526 151.37 489.946 144.251 527.315C137.324 563.678 147.597 603.653 182.817 621.38C219.717 639.952 266.725 655.344 307.677 661.75C327.998 665.005 348.667 665.481 369.116 663.164C381.412 661.749 394.676 658.755 407.004 656.705C423.641 653.894 440.485 652.491 457.358 652.513C477.808 652.597 498.24 653.72 518.576 655.877C539.066 658.051 559.424 661.186 579.965 662.682C617.817 665.438 655.813 664.613 693.7 666.331C740.622 668.459 792.532 674.888 834.267 648.329C858.151 633.142 879.058 612.787 893.665 588.443C897.053 582.797 898.719 576.473 901.574 570.841Z"/><path fill="#DFDFDD" transform="translate(-89 -309)" d="M341.575 364.178C348.045 362.597 357.67 361.883 364.572 361.339C412.406 357.679 462.173 358.684 509.726 365.123C539.313 369.129 566.915 376.932 597.103 377.097C637.701 377.32 675.783 377.775 715.895 370.595C731.311 367.836 752.116 369.211 767.861 369.551C788.181 371.329 807.847 375.076 825.324 386.048C837.005 393.38 841.712 398.263 851.573 406.242C871.221 422.14 881.11 431.244 890.868 454.999C894.326 463.416 898.097 470.61 900.287 480.306C902.223 488.871 904.27 505.375 902.557 514.068C891.621 474.462 879.978 450.152 851.224 419.851C823.035 388.594 783.25 369.478 740.253 372.514C692.392 375.894 644.238 382.517 595.646 381.335C570.785 380.713 545.969 378.898 521.282 375.895C503.294 373.614 485.085 370.283 467.026 367.884C451.159 365.92 435.226 364.528 419.258 363.711C404.501 362.971 390.004 362.988 375.263 363.141C369.157 363.204 344.822 365.785 341.575 364.178Z"/><path fill="#111414" transform="translate(-89 -309)" d="M199.919 478.246C222.531 477.687 259.797 477.063 254.554 513.516C253.243 522.63 246.043 528.809 238.568 533.574C254.378 538.655 266.833 549.023 263.505 568.238C261.981 577.033 256.406 582.791 249.067 587.472C234.152 595.501 200.031 592.629 181.721 593.029C185.028 589.717 189.854 584.593 190.313 579.919C191.292 569.97 190.489 558.947 190.546 549.004L190.964 510.836C190.977 503.998 191.122 495.535 189.929 488.826C189.506 486.444 184.822 481.635 182.944 478.952L182.627 478.493C188.392 478.451 194.156 478.369 199.919 478.246ZM205.274 588.014C217.62 588.092 229.099 589.222 238.836 580.392C242.631 576.383 245.559 572.38 246.456 566.778C251.437 535.649 226.423 536.992 205.309 537C204.895 552.123 204.72 572.912 205.274 588.014ZM232.787 525.634C235.964 521.875 238.736 516.7 239.033 511.757C240.644 484.862 225.509 483.366 205.335 484.047C204.683 499.779 205.799 516.508 205.164 531.536C215.201 531.485 224.519 532.29 232.787 525.634Z"/><path fill="#111414" transform="translate(-89 -309)" d="M310.143 390.506C317.183 390.674 323.077 394.896 329.573 396.454C383.12 409.297 423.358 434.989 429.143 494.878C431.605 497.068 436.21 500.085 435.768 503.373C432.954 501.817 430.914 499.643 428.582 497.427C421.08 495.898 411.34 497.122 403.275 496.132C379.07 493.322 354.574 482.489 338.95 463.331C328.018 449.926 322.845 433.88 318.306 417.507C316.12 409.62 309.365 398.74 310.143 390.506Z"/><path fill="#A3A58E" transform="translate(-89 -309)" d="M336.363 456.255C339.37 456.566 345.563 456.45 348.822 456.477L379.576 456.429C382.523 458.947 395.363 469.416 396.332 471.8C395.33 472.722 393.783 472.671 392.328 472.846C380.641 474.675 368.588 475.869 356.806 477.046C352.342 474.12 336.937 460.933 336.363 456.255Z"/><path fill="#A3A58E" transform="translate(-89 -309)" d="M365.296 410.348C369.796 411.63 376.032 415.175 379.898 417.767C383.113 432.936 386.622 445.683 388.823 461.295C386.301 460.223 374.377 449.357 371.68 446.947C370.129 434.215 367.815 422.922 365.296 410.348Z"/><path fill="#A3A58E" transform="translate(-89 -309)" d="M328.018 440.601C339.424 440.328 351.011 440.929 362.405 441.504C367.277 445.72 372.284 449.897 376.792 454.492C362.845 454.712 348.896 454.714 334.949 454.496C331.942 449.656 330.163 445.843 328.018 440.601Z"/><path fill="#A3A58E" transform="translate(-89 -309)" d="M313.235 392.39C316.417 393.13 322.53 395.389 325.87 396.512L350.829 405.005C352.56 413.677 354.002 423.043 355.511 431.801C350.478 429.521 318.474 398.163 313.235 392.39Z"/><path fill="#A3A58E" transform="translate(-89 -309)" d="M382.143 419.301C387.145 421.64 392.488 426.517 396.467 430.316C399.461 440.837 401.795 462.108 402.514 473.195C399.798 471.722 393.601 465.986 391.023 463.666C389.327 447.222 385.511 435.164 382.143 419.301Z"/><path fill="#A3A58E" transform="translate(-89 -309)" d="M397.928 474.22C401.864 473.745 409.665 482.115 412.346 484.794C405.456 485.483 380.463 488.501 375.333 487.285C370.332 484.437 364.251 481.449 359.071 478.672C371.945 477.847 385.064 475.433 397.928 474.22Z"/><path fill="#A3A58E" transform="translate(-89 -309)" d="M399.045 432.757C417.391 444.32 415.066 464.679 415.291 483.405C412.546 482.701 406.834 476.969 404.526 474.761C403.395 458.846 401.896 448.571 399.045 432.757Z"/><path fill="#A3A58E" transform="translate(-89 -309)" d="M312.433 394.988C315.553 397.096 323.26 405.08 326.626 408.388C332.783 414.44 342.273 422.246 347.639 428.672C343.003 429.389 329.188 428.682 323.748 428.491C321.199 421.041 313.387 401.574 312.433 394.988Z"/><path fill="#A3A58E" transform="translate(-89 -309)" d="M352.672 405.71C356.89 406.949 359.192 407.654 363.168 409.432C365.02 418.546 368.948 436.306 369.576 445.03C365.732 442.325 360.565 437.049 357.16 433.6C356.353 424.326 354.415 414.878 352.672 405.71Z"/><path fill="#A3A58E" transform="translate(-89 -309)" d="M324.203 430.383C333.028 430.585 341.318 430.766 350.16 430.525C353.711 433.599 356.71 436.253 360.085 439.554C349.085 439.589 338.046 439.026 327.061 438.487C325.995 435.986 325.078 432.989 324.203 430.383Z"/><path fill="#A3A58E" transform="translate(-89 -309)" d="M411.847 486.708C416.383 485.975 421.152 491.953 424.293 495.08C415.201 496.231 405.584 495.037 396.607 493.546C390.726 492.543 386.661 491.307 381.07 489.535C390.437 488.078 402.111 487.706 411.847 486.708Z"/><path fill="#A3A58E" transform="translate(-89 -309)" d="M415.997 455.235C422.844 458.889 426.805 485.959 427.044 493.209C424.042 491.586 420.119 488.162 417.532 485.948C417.399 475.911 416.654 465.26 415.997 455.235Z"/><path fill="#111414" transform="translate(-89 -309)" d="M461.75 474.587C462.048 474.739 462.428 474.789 462.646 475.043C464.363 477.054 460.519 569.496 463.754 583.326C464.533 586.656 466.661 589.634 468.495 592.462C463.285 592.997 456.009 592.921 450.611 593.015C450.18 590.071 449.799 587.12 449.465 584.164C436.676 595.889 421.491 600.464 406.758 588.12C377.099 560.482 402.158 495.628 449.27 521.06C449.34 514.062 449.61 506.981 449.639 499.982C449.677 490.677 448.986 486.89 442.573 480.133C448.933 478.175 455.326 476.326 461.75 474.587ZM427.192 587.277C435.035 588.03 441.716 586.529 447.879 581.386C448.366 580.984 448.84 580.567 449.298 580.133C449.715 561.844 450.173 544.907 449.471 526.598C443.676 522.014 440.335 519.781 432.593 519.687C411.414 521.688 406.873 544.098 409.025 561.71C410.554 574.225 414.613 582.841 427.192 587.277Z"/><path fill="#111414" transform="translate(-89 -309)" d="M812.631 414.748L813.339 415.106C814.127 418.994 798.916 452.765 796.051 458.338C794.061 462.208 791.815 465.941 789.328 469.511C785.574 474.919 780.94 479.661 775.62 483.539C754.497 499.206 728.228 503.722 702.589 499.867L696.825 504.067L695.847 504.573L695.493 504.099C697.232 501.859 699.596 500.015 701.763 498.143C706.063 452.103 746.893 427.389 787.973 420.261C796.242 418.827 803.963 415.679 812.631 414.748Z"/><path fill="#A3A58E" transform="translate(-89 -309)" d="M748.399 467.951C755.106 469.547 779.686 470.476 787.264 470.531C780.271 478.735 776.867 481.293 768.12 487.134C761.909 489.371 737.698 482.443 730.071 480.676C736.001 476.096 742.162 472.093 748.399 467.951Z"/><path fill="#A3A58E" transform="translate(-89 -309)" d="M762.39 428.548L763.193 428.825C763.774 431.645 757.314 455.552 756.231 459.871C750.993 463.733 745.713 467.54 740.394 471.292L739.964 471.196C738.979 468.345 749.125 437.531 750.667 433.439C754.742 431.596 758.153 430.06 762.39 428.548Z"/><path fill="#A3A58E" transform="translate(-89 -309)" d="M764.695 455.929C773.889 456.859 785.671 456.802 794.956 456.909C792.665 461.482 790.477 465.157 787.863 469.522L781.568 469.098C771.135 468.609 760.092 467.623 749.632 466.862C754.625 463.402 759.765 459.529 764.695 455.929Z"/><path fill="#A3A58E" transform="translate(-89 -309)" d="M809.527 416.195L809.692 416.328C809.25 418.545 776.347 444.563 773.123 447.086L772.524 446.565C772.472 443.981 775.76 428.234 776.449 424.703C784.441 421.812 801.046 418.044 809.527 416.195Z"/><path fill="#A3A58E" transform="translate(-89 -309)" d="M747.462 435.013L747.818 435.42C747.697 437.907 743.13 451.146 742.104 454.928C740.476 460.929 738.834 467.532 737.255 473.579C733.929 475.495 730.956 477.548 727.777 479.699L727.135 478.949C726.838 472.261 733.191 450.309 735.348 443.238C739.707 440.041 742.901 437.878 747.462 435.013Z"/><path fill="#A3A58E" transform="translate(-89 -309)" d="M727.716 482.401C733.287 482.549 757.393 488.054 763.795 489.415C759.305 491.662 755.275 493.169 750.612 494.965C743.422 497.183 724.501 491.751 715.481 490.553C719.945 487.777 723.442 485.428 727.716 482.401Z"/><path fill="#A3A58E" transform="translate(-89 -309)" d="M731.431 445.93L731.817 446.333C732.077 450.917 726.025 475.116 724.86 481.757C721.786 484.162 718.203 486.646 715.016 488.957C713.021 485.924 718.038 460.169 721.349 456.238C723.793 453.336 728.482 448.697 731.431 445.93Z"/><path fill="#A3A58E" transform="translate(-89 -309)" d="M810.791 418.425C811.834 422.434 802.232 441.454 799.872 446.529C793.123 446.552 786.375 446.218 779.63 445.951C779.194 445.578 779.442 445.849 779.085 444.991C780.498 443.292 782.579 441.823 784.326 440.446C793.347 433.334 801.888 425.687 810.791 418.425Z"/><path fill="#A3A58E" transform="translate(-89 -309)" d="M772.785 425.612C773.436 425.475 772.999 425.524 774.101 425.728C774.794 428.491 771.032 445.481 770.253 449.401L760.265 456.886L759.268 457.213C758.121 453.785 764.686 431.768 766.14 427.197L772.785 425.612Z"/><path fill="#A3A58E" transform="translate(-89 -309)" d="M776.173 447.071C782.1 448.059 792.918 447.991 799.025 448.05L795.866 455.447L790.616 455.088C782.525 455.102 774.435 454.902 766.354 454.487C769.671 452.073 772.944 449.601 776.173 447.071Z"/><path fill="#A3A58E" transform="translate(-89 -309)" d="M714.324 491.911C723.45 493.96 733.475 494.831 742.573 497.607C738.824 498.107 734.953 498.762 731.204 499.342C720.481 500.531 714.963 500.008 704.351 498.888L714.324 491.911Z"/><path fill="#A3A58E" transform="translate(-89 -309)" d="M715.715 463.857C716.448 466.838 712.987 486.415 712.215 490.577C709.46 492.739 706.619 494.724 703.765 496.753C702.159 489.296 711.503 470.447 715.715 463.857Z"/><path fill="#A3A58E" transform="translate(-89 -309)" d="M481.872 479.725C490.319 479.055 501.627 479.969 510.432 480.021C504.605 484.389 500.028 487.242 501.899 495.205C503.892 503.689 506.597 511.762 509.205 520.059C514.023 535.516 519.007 550.921 524.156 566.271C527.414 557.939 530.481 549.533 533.355 541.061C535.782 533.696 538.511 523.026 542.079 516.442C537.619 498.895 534.415 491.532 521.3 479.822C533.627 480.161 546.542 479.846 559.07 480.093C554.869 484.661 550.346 489.101 552.627 495.595C560.645 518.417 567.563 544.236 577.069 566.349C580.743 557.114 583.795 545.72 586.726 536.076L601.115 489.62C594.154 485.042 586.218 484.361 578.855 480.522C588.116 479.594 597.662 480.115 606.928 479.841C616.329 479.563 621.303 480.249 629.624 484.683C632.106 486.374 634.172 488.66 635.848 491.114C638.855 495.515 636.371 499.151 631.934 500.811C624.144 503.726 616.266 499.982 609.183 497.025C613.183 494.076 616.929 492.48 621.451 490.508C621.21 487.963 621.354 484.674 620.162 482.645C619.623 482.295 619.047 481.701 618.368 481.888C602.64 486.213 603.313 494.639 599.289 508.073L583.249 562.066C581.743 567.213 575.478 590.796 573.367 593.19C568.788 594.104 566.837 584.214 565.56 580.892C561.513 570.601 557.698 560.219 554.117 549.756C551.562 542.437 546.314 528.795 544.585 521.922C541.219 533.816 536.227 546.72 532.253 558.536C530.215 564.595 523.037 591.529 518.972 593.341C517.932 592.996 517.363 592.881 516.818 591.603C513.079 582.831 509.997 572.685 507.006 563.683L489.894 512.536C485.161 498.054 485.014 489.429 472.015 480.044C475.218 480.037 478.654 479.848 481.872 479.725Z"/><path fill="#111414" transform="translate(-89 -309)" d="M340.804 515.693C347.756 514.679 358.934 515.86 364.482 520.279C380.768 533.251 372.644 560.948 374.678 578.698C375 581.509 375.539 583.748 377.762 585.428C382.675 586.831 382.987 582.082 387.004 580.711L387.681 581.125C390.302 592.286 367.961 607.036 360.791 582.198C350.514 594.746 335.473 601.012 320.753 590.589C303.352 575.064 314.433 555.713 333.542 550.055C343.553 547.092 350.928 544.981 361.23 542.806C360.735 530.324 358.405 516.431 342.23 518.38C330.069 519.845 332.423 533.622 323.971 538.188C317.35 541.764 314.377 529.97 318.612 525.459C324.811 518.857 332.096 516.774 340.804 515.693ZM333.136 585.037C341.497 590.496 352.803 588.926 358.127 580.393C362.475 573.424 362.392 555.281 361.355 547.234C360.732 546.639 361.041 546.72 360.588 546.656C350.54 548.525 336.148 550.886 330.143 560.047C324.75 568.274 326.368 578.207 333.136 585.037Z"/><path fill="#111414" transform="translate(-89 -309)" d="M696.153 598.201C726.134 595.629 748.556 613.192 765.413 636.094C769.886 642.172 773.812 645.059 776.979 652.328C769.438 653.547 762.547 653.453 754.948 653.496C738.763 654.42 725.613 653.13 711.248 645.052C696.661 636.85 683.361 619.896 678.967 603.741C676.861 602.714 674.208 601.705 672.005 600.796C672.855 600.879 677.815 601.451 678.269 601.402C684.528 600.729 689.717 598.871 696.153 598.201Z"/><path fill="#A3A58E" transform="translate(-89 -309)" d="M701.542 615.644C706.5 617.362 712.981 620.991 717.585 623.621C720.642 629.901 726.495 644.128 727.968 650.902C718.941 648.261 715.967 647.152 708.236 641.838C706.456 632.388 704.313 624.861 701.542 615.644Z"/><path fill="#A3A58E" transform="translate(-89 -309)" d="M737.525 610.717C740.426 611.334 745.022 615.397 747.51 617.408C743.153 618.571 723.588 624.525 720.841 623.836C717.059 622.02 712.813 619.605 709.074 617.596C717.567 615.016 728.861 612.274 737.525 610.717Z"/><path fill="#A3A58E" transform="translate(-89 -309)" d="M719.505 624.767C723.803 626.227 728.365 628.943 732.227 631.307C735.537 638.001 738.352 645.611 741.091 652.605C737.035 652.265 733.72 651.906 729.701 651.297C726.217 642.883 722.807 633.352 719.505 624.767Z"/><path fill="#A3A58E" transform="translate(-89 -309)" d="M756.997 631.585C757.457 631.469 758.556 631.214 758.928 631.385C763.827 633.63 772.666 646.777 775.623 650.902C772.576 649.536 769.539 648.148 766.512 646.738C758.993 643.112 750.687 639.296 743.474 635.234L756.997 631.585Z"/><path fill="#A3A58E" transform="translate(-89 -309)" d="M689.802 609.348C692.737 610.574 696.048 612.483 698.891 614.027C703.008 621.502 705.085 632.321 706.488 640.696C695.706 634.777 692.77 620.342 689.802 609.348Z"/><path fill="#A3A58E" transform="translate(-89 -309)" d="M726.272 605.225C729.309 605.371 733.714 608.12 736.403 609.635C727.434 611.647 718.502 613.824 709.613 616.165C705.432 617.018 702.89 614.96 699.267 612.864C707.311 609.916 717.879 605.911 726.272 605.225Z"/><path fill="#A3A58E" transform="translate(-89 -309)" d="M743.871 637.031C749.823 639.93 768.626 648.42 773.074 651.387L772.988 651.837L772.03 651.951C768.538 653.024 753.385 652.646 749.316 652.287C747.554 646.929 746.034 642.251 743.871 637.031Z"/><path fill="#5C5D55" transform="translate(-89 -309)" d="M749.316 652.287C755.421 651.644 765.503 652.118 772.03 651.951C768.538 653.024 753.385 652.646 749.316 652.287Z"/><path fill="#A3A58E" transform="translate(-89 -309)" d="M748.081 618.663C750.28 619.519 752.936 622.81 754.591 624.646C749.068 626.359 737.543 630.381 732.297 629.989L723.68 624.933C731.998 622.628 739.676 620.576 748.081 618.663Z"/><path fill="#A3A58E" transform="translate(-89 -309)" d="M711.059 600.106C716.321 600.835 719.938 602.085 724.99 603.62C717.224 605.568 709.545 607.848 701.975 610.454L698.053 612.047C695.248 610.571 692.468 609.049 689.713 607.481C697.057 604.581 703.493 602.252 711.059 600.106Z"/><path fill="#A3A58E" transform="translate(-89 -309)" d="M734.382 632.337C737.457 633.32 739.238 634.473 742.025 636.082C744.569 641.519 746.408 646.899 748.383 652.544C747.24 652.588 744.692 652.762 743.836 652.236C739.435 649.533 736.051 637.126 734.382 632.337Z"/><path fill="#A3A58E" transform="translate(-89 -309)" d="M680.707 604.962C682.772 605.759 685.988 607.34 688.089 608.298C690.211 615.301 692.397 622.286 694.645 629.25C688.774 626.103 682.415 611.166 680.707 604.962Z"/><path fill="#A3A58E" transform="translate(-89 -309)" d="M754.255 626.068C756.37 626.216 757.79 628.345 759.089 629.873C753.347 631.532 747.577 633.09 741.78 634.546L735.652 631.398C741.813 629.485 748.016 627.708 754.255 626.068Z"/><path fill="#A3A58E" transform="translate(-89 -309)" d="M702.249 599.254L707.958 599.484C705.322 600.489 689.314 607.001 687.793 606.557L680.456 603.129C687.87 600.14 694.327 599.638 702.249 599.254Z"/><path fill="#A3A58E" transform="translate(-89 -309)" d="M785.603 516.152C810.439 514.398 817.711 530.059 820.66 551.054C814.282 551.67 805.413 551.505 798.859 551.518L766.023 551.551C766.093 552.686 766.175 553.82 766.27 554.953C767.112 564.829 770.768 573.482 778.396 580.046C789.411 589.525 806.918 588.309 815.918 576.638C818.087 574.186 819.257 571.472 821.716 568.702L822.539 569.007C823.516 572.612 819.826 578.712 817.549 581.604C805.404 596.817 780.067 598.246 765.182 586.277C747.939 572.412 747.333 544.745 760.78 528.089C767.426 519.858 775.341 517.192 785.603 516.152ZM766.207 547.323C773.985 546.968 781.968 547.034 789.77 547.007C794.888 546.982 800.663 546.837 805.728 546.962C803.952 531.937 800.57 519.287 782.493 520.062C769.08 523.047 767.028 535.656 766.207 547.323Z"/><path fill="#A3A58E" transform="translate(-89 -309)" d="M475.886 380.535L477.332 379.414L478.111 379.542C479.156 381.483 479.179 385.164 479.44 387.602C479.769 391.956 480.631 399.85 480.484 403.935C481.287 408.555 482.066 417.304 480.67 421.776L480.392 423.615C478.676 430.358 476.78 434.801 472.999 440.741L471.473 442.634C470.205 444.423 466.851 449.028 465.08 450.118C457.298 460.002 446.222 463.64 436.587 469.881C436.475 470.579 436.281 470.776 435.946 471.443L435.353 471.355C434.27 467.762 432.693 450.35 432.624 446.188C432.57 444.945 432.746 443.636 432.856 442.382C433.298 437.479 433.677 433.305 435.626 428.725C435.802 427.514 436.737 425.185 437.181 423.942L438.648 420.808C439.64 416.078 448.086 406.117 451.266 402.678C453.741 400.051 456.194 397.82 458.85 395.375C463.504 391.394 471.298 383.86 475.886 380.535Z"/><path fill="#DFDFDD" transform="translate(-89 -309)" d="M466.121 410.509C467.523 406.084 475.053 386.666 477.347 382.881C478.003 383.197 479.044 386.577 479.44 387.602C479.769 391.956 480.631 399.85 480.484 403.935C481.287 408.555 482.066 417.304 480.67 421.776L480.392 423.615C478.676 430.358 476.78 434.801 472.999 440.741C464.92 442.812 455.905 445.324 447.814 446.998C450.374 441.239 459.713 423.301 463.182 418.767L462.661 417.722C463.388 415.322 464.057 414.028 465.123 411.791C469.137 409.964 475.024 407.485 478.419 404.752C476.679 404.558 468.195 409.402 466.121 410.509Z"/><path fill="#A3A58E" transform="translate(-89 -309)" d="M480.484 403.935C481.287 408.555 482.066 417.304 480.67 421.776C480.081 419.1 480.333 414.259 480.387 411.415C477.488 412.884 471.06 416.363 468.096 416.477C471.579 414.328 476.572 412.202 480.38 410.448C480.313 408.022 480.322 406.355 480.484 403.935Z"/><path fill="#A3A58E" transform="translate(-89 -309)" d="M480.392 423.615C476.041 423.621 461.044 431.983 458.805 431.57C460.38 430.111 477.632 423.085 480.67 421.776L480.392 423.615Z"/><path fill="#DFDFDD" transform="translate(-89 -309)" d="M451.266 402.678C452.715 405.668 456.014 422.585 457.012 426.824C455.254 430.314 453.03 435.073 450.955 438.252C450.116 435.03 446.031 415.006 444.932 414.165C445.798 422.171 448.136 432.676 450.189 440.347L446.036 448.013C443.679 441.603 439.164 427.451 438.648 420.808C439.64 416.078 448.086 406.117 451.266 402.678Z"/><path fill="#DFDFDD" transform="translate(-89 -309)" d="M437.181 423.942C439.063 426.131 442.989 443.588 445.536 449.308C444.634 451.014 443.553 452.686 443.306 454.57L442.879 456.37C441.121 460.225 438.091 466.207 436.587 469.881C436.475 470.579 436.281 470.776 435.946 471.443L435.353 471.355C434.27 467.762 432.693 450.35 432.624 446.188C432.57 444.945 432.746 443.636 432.856 442.382C433.298 437.479 433.677 433.305 435.626 428.725C435.802 427.514 436.737 425.185 437.181 423.942Z"/><path fill="#A3A58E" transform="translate(-89 -309)" d="M432.856 442.382C433.298 437.479 433.677 433.305 435.626 428.725C435.79 431.71 435.179 434.274 435.178 437.156C435.177 440.711 437.945 456.667 441.881 456.575L443.306 454.57L442.879 456.37C441.121 460.225 438.091 466.207 436.587 469.881C436.475 470.579 436.281 470.776 435.946 471.443L435.353 471.355C434.27 467.762 432.693 450.35 432.624 446.188C432.57 444.945 432.746 443.636 432.856 442.382Z"/><path fill="#DFDFDD" transform="translate(-89 -309)" d="M432.856 442.382C436.112 445.046 438.627 454.21 440.767 458.876C439.903 460.713 439.297 462.655 437.633 463.692C433.548 462.809 434.159 450.236 432.624 446.188C432.57 444.945 432.746 443.636 432.856 442.382Z"/><path fill="#DFDFDD" transform="translate(-89 -309)" d="M447.433 447.968C453.284 447.085 467.042 442.239 471.473 442.634C470.205 444.423 466.851 449.028 465.08 450.118C457.298 460.002 446.222 463.64 436.587 469.881C438.091 466.207 441.121 460.225 442.879 456.37L443.306 454.57C444.507 453.85 446.616 449.474 447.433 447.968Z"/><path fill="#CDCCCA" transform="translate(-89 -309)" d="M454.899 453.807C455.609 453.208 463.072 450.989 465.08 450.118C457.298 460.002 446.222 463.64 436.587 469.881C438.091 466.207 441.121 460.225 442.879 456.37L443.361 457.707C445.635 456.35 452.179 454.506 454.899 453.807Z"/><path fill="#A3A58E" transform="translate(-89 -309)" d="M443.361 457.707C445.635 456.35 452.179 454.506 454.899 453.807C452.909 455.397 445.597 457.911 443.361 457.707Z"/><path fill="#DFDFDD" transform="translate(-89 -309)" d="M475.886 380.535C475.845 385.647 465.762 408.581 463.09 414.613C461.522 409.529 458.429 400.443 458.85 395.375C463.504 391.394 471.298 383.86 475.886 380.535Z"/><path fill="#DFDFDD" transform="translate(-89 -309)" d="M457.398 397.964C457.915 398.584 461.718 414.137 462.193 415.983C460.914 418.985 459.454 421.777 457.976 424.683C455.657 418.551 453.812 409.118 452.746 402.584C454.151 401.073 455.907 399.431 457.398 397.964Z"/><path fill="#A3A58E" transform="translate(-89 -309)" d="M684.61 517.068C701.372 517.021 727.273 516.256 743.443 517.537C740.351 523.433 735.501 530.297 731.711 535.971L713.281 563.442C707.653 571.749 702.104 579.597 697.369 588.47C705.294 588.289 713.444 589.037 721.501 588.573C734.05 587.852 738.236 580.138 745.623 571.531C744.788 577.143 742.242 583.925 740.339 589.378C740.037 590.352 739.701 591.25 739.354 592.206C736.353 594.138 685.382 592.646 678.697 592.308C680.551 585.915 718.695 529.757 724.708 521.656C705.342 521.3 693.084 517.477 680.972 535.969C681.632 531.147 683.021 521.204 684.61 517.068Z"/><path fill="#A3A58E" transform="translate(-89 -309)" d="M667.442 515.696C667.524 515.846 667.606 515.997 667.687 516.147C668.859 539.421 666.856 562.729 667.783 586.104C668.722 600.972 666.572 619.4 650.001 624.876C641.53 627.676 628.141 627.346 625.141 616.919C624.189 613.609 625.597 609.526 627.26 606.673L627.569 606.154C637.91 600.612 637.434 620.775 644.338 623.039C648.674 623.919 652.643 618.38 652.803 614.605C653.781 591.103 653.189 567.427 653.431 543.894C653.555 531.858 653.472 531.616 646.514 522.474C653.196 519.392 660.222 517.117 667.442 515.696Z"/><path fill="#111414" transform="translate(-89 -309)" d="M294.258 474.577L294.897 474.461C295.955 475.218 296.12 475.841 296.141 477.218C296.514 505.656 295.474 534.038 296.209 562.49C296.58 576.87 292.996 579.691 302.813 592.82C295.001 592.949 287.188 592.983 279.375 592.922L277.498 592.863C276.673 591.569 277.153 590.663 278.384 589.34C282.006 585.409 282.92 577.128 282.75 571.944C281.864 544.894 284.986 513.75 281.772 487.089C280.337 485.136 277.62 482.289 275.9 480.39C280.49 478.396 289.329 475.958 294.258 474.577Z"/><path fill="#A3A58E" transform="translate(-89 -309)" d="M852.218 531.338C855.912 526.168 856.781 525.115 862.657 520.474C869.75 514.871 890.287 512.872 889.611 526.189C889.527 527.834 886.431 529.54 884.871 530.438C879.862 530.698 878.01 530.387 873.301 528.753C847.702 519.869 851.359 556.201 851.511 570.824C851.575 572.738 851.661 574.651 851.769 576.563C852.267 584.7 854.887 587.493 860.663 592.572C853.092 592.537 834.792 592.102 828.454 593.072C830.716 590.735 836.415 584.91 836.676 581.138C837.738 565.837 837.791 546.841 836.65 531.524C836.459 528.958 832.944 523.842 831.759 522.049C837.759 519.846 844.014 517.343 850.279 516.095C850.982 516.053 850.581 515.994 851.414 516.528C852.506 520.18 852.266 527.427 852.218 531.338Z"/><path fill="#A3A58E" transform="translate(-89 -309)" d="M630.841 516.612C632.228 516.402 632.889 516.131 634.093 516.811C635.478 521.022 633.872 568.205 634.408 576.413C635.014 585.683 635.336 585.885 642.858 593.07C636.222 592.188 626.212 592.423 619.228 592.412L611.817 592.568C614.992 588.437 618.76 584.94 618.983 579.325C619.587 564.09 620.57 546.053 618.366 530.93C618.014 528.515 614.24 523.919 612.746 522.003C618.259 519.996 625.187 517.994 630.841 516.612Z"/><path fill="#A3A58E" transform="translate(-89 -309)" d="M661.855 469.19C671.516 467.786 680.475 474.507 681.832 484.174C683.188 493.842 676.424 502.768 666.75 504.078C657.143 505.378 648.29 498.67 646.943 489.069C645.596 479.468 652.261 470.583 661.855 469.19ZM664.695 483.416L665.725 483.66C666.155 487.01 658.869 493.659 659.424 497.121C665.845 498.056 673.797 484.605 670.187 477.793L669.572 477.527C665.04 480.125 650.822 489.24 653.215 495.23L654.41 495.745C657.284 494.329 658.938 486.876 664.695 483.416Z"/><path fill="#111414" transform="translate(-89 -309)" d="M565.118 617.676C571.715 616.114 578.347 620.131 580.018 626.702C581.689 633.273 577.782 639.97 571.239 641.749C566.91 642.926 562.283 641.677 559.133 638.482C555.984 635.286 554.803 630.641 556.043 626.33C557.283 622.018 560.752 618.71 565.118 617.676Z"/><path fill="#111414" transform="translate(-89 -309)" d="M245.712 429.698C252.269 428.285 258.726 432.468 260.116 439.029C261.507 445.591 257.301 452.034 250.735 453.402C244.201 454.763 237.796 450.582 236.412 444.053C235.029 437.523 239.187 431.104 245.712 429.698Z"/><path fill="#A3A58E" transform="translate(-89 -309)" d="M301.951 621.234C305.349 620.202 309.04 621.084 311.604 623.542C314.168 626 315.205 629.65 314.316 633.089C313.428 636.528 310.752 639.219 307.318 640.127C302.142 641.496 296.822 638.467 295.359 633.316C293.896 628.165 296.828 622.791 301.951 621.234Z"/><path fill="#A3A58E" transform="translate(-89 -309)" d="M705.321 401.682C708.691 400.609 712.377 401.445 714.954 403.868C717.531 406.29 718.594 409.918 717.731 413.347C716.869 416.777 714.216 419.47 710.8 420.385C705.685 421.755 700.413 418.791 698.924 413.71C697.436 408.629 700.276 403.289 705.321 401.682Z"/><path fill="#DFDFDD" transform="translate(-89 -309)" d="M525.394 425.762C528.529 424.5 532.095 425.999 533.386 429.122C534.677 432.244 533.212 435.824 530.101 437.145C526.949 438.483 523.311 436.993 522.003 433.829C520.694 430.665 522.218 427.04 525.394 425.762Z"/><path fill="#111414" transform="translate(-89 -309)" d="M845.434 462.222C848.76 461.739 851.848 464.04 852.336 467.365C852.823 470.69 850.525 473.782 847.201 474.273C843.871 474.765 840.773 472.462 840.285 469.132C839.797 465.801 842.103 462.706 845.434 462.222Z"/><path fill="#DFDFDD" transform="translate(-89 -309)" d="M167.248 545.264C170.17 544.694 173.036 546.481 173.812 549.356C174.588 552.23 173.01 555.216 170.198 556.195C168.192 556.893 165.963 556.413 164.423 554.949C162.883 553.486 162.289 551.285 162.884 549.246C163.478 547.206 165.162 545.67 167.248 545.264Z"/><path fill="#DFDFDD" transform="translate(-89 -309)" d="M476.44 609.289C479.285 608.202 482.479 609.568 483.659 612.376C484.838 615.183 483.577 618.42 480.809 619.691C478.937 620.55 476.745 620.32 475.091 619.092C473.437 617.864 472.583 615.832 472.864 613.791C473.145 611.75 474.516 610.025 476.44 609.289Z"/><path fill="#111414" transform="translate(-89 -309)" d="M806.876 619.8C808.035 619.323 809.362 619.514 810.341 620.298C811.319 621.082 811.795 622.335 811.582 623.571C811.37 624.806 810.504 625.829 809.32 626.242C807.558 626.856 805.626 625.955 804.964 624.21C804.302 622.465 805.149 620.51 806.876 619.8Z"/><path fill="#DFDFDD" transform="translate(-89 -309)" d="M176.434 611.905C176.27 611.9 176.105 611.895 175.941 611.891C162.453 607.35 146.563 578.303 148.235 566.862C158.369 589.536 160.332 592.991 176.434 611.905Z"/></g></svg>